/* XPM */
static char *aadfd35c48fc4459bb757b9eb3dda2ccclXQREi4BZoFtyt9[] = {
/* columns rows colors chars-per-pixel */
"40 40 5 1 ",
"  c #A8E61D",
". c #564104",
"X c #7C5E06",
"o c #B28709",
"O c #FFC20E",
/* pixels */
"                                        ",
"                                        ",
"                                        ",
"                                        ",
"                                        ",
"                  XXXX                  ",
"                XXXOOXXX                ",
"               XXOOOOOOXX               ",
"              XXOOooooOOXX              ",
"             XXOOOOOOOOOOXX             ",
"            XXOOoOOOOOOoOOXX            ",
"           XXOOoOOOOOOOOoOOXX           ",
"           XOOOoOOOOOOOOoOOOX           ",
"           XOOooOOOOOOOOooOOX           ",
"           XOOoOOOOOOOOOOoOOX           ",
"          XXOOoOOOOXXOOOOoOOXX          ",
"          XOOOOOOOooooOOOOOOOX          ",
"         XXOOOOOOXoOOoXOOOOOOXX         ",
"         .oOOoOOOXOOOOXOOOoOOo.         ",
"         .XOOoOOOXOOOOXOOOoOOX.         ",
"         .XOOoOOOXOOOOXOOOoOOX.         ",
"         .oOOoOOOXOOOOXOOOoOOo.         ",
"         XXOOOOOOXoOOoXOOOOOOXX         ",
"          XOOOOOOOooooOOOOOOOX          ",
"          XXOOoOOOOXXOOOOoOOXX          ",
"           XOOoOOOOOOOOOOoOOX           ",
"           XOOooOOOOOOOOooOOX           ",
"           XOOOoOOOOOOOOoOOOX           ",
"           XXOOoOOOOOOOOoOOXX           ",
"            XXOOoOOOOOOoOOXX            ",
"             XXOOOOOOOOOOXX             ",
"              XXOOooooOOXX              ",
"               XXOOOOOOXX               ",
"                XXXOOXXX                ",
"                  XXXX                  ",
"                                        ",
"                                        ",
"                                        ",
"                                        ",
"                                        "
};
