/* XPM */
static char *abda6a1a68194898efa7800776bda1f5HQEwYYoU1xeF8f3a[] = {
/* columns rows colors chars-per-pixel */
"96 96 48 1 ",
"  c #38490C",
". c #415711",
"X c #496314",
"o c #4A6414",
"O c #527016",
"+ c #5B7D19",
"@ c #648A1A",
"# c #659011",
"$ c #6F9E13",
"% c #6D971C",
"& c #6F981E",
"* c #79AC15",
"= c #76A41F",
"- c #78A520",
"; c #7FB121",
": c #83BA17",
"> c #81B223",
", c #8ABF26",
"< c #8DC819",
"1 c #97D61B",
"2 c #A0E31D",
"3 c #91CC25",
"4 c #93CA2A",
"5 c #93CC29",
"6 c #9BD52F",
"7 c #9AD828",
"8 c #9CD828",
"9 c #A0DA35",
"0 c #A1D83C",
"q c #A6E52B",
"w c #A6E52C",
"e c #ACE739",
"r c #ADDE56",
"t c #B2E947",
"y c #B2E948",
"u c #B8EB55",
"i c #B8EF55",
"p c #B3E063",
"a c #BEED63",
"s c #BEED64",
"d c #BEF063",
"f c #C4EF71",
"g c #C4F171",
"h c #CAF17F",
"j c #D0F38D",
"k c #D6F49B",
"l c #DCF6A9",
"z c #E2F7B7",
/* pixels */
",,,---&&&>>>---,,,555222qqqqqq--->>>>>>>>>ooo$$$$$$...---,,,>>>---222eeeeee,,,555555555555555555",
",,,---&&&>>>---,,,555222qqqqqq--->>>>>>>>>ooo$$$$$$...---,,,>>>---222eeeeee,,,555555555555555555",
",,,---&&&>>>---,,,555222qqqqqq--->>>>>>>>>ooo$$$$$$...---,,,>>>---222eeeeee,,,555555555555555555",
">>>---&&&>>>>>>tttuuu222qqqqqqqqqtttttt,,,:::#########&&&ttteeeqqq222eeeeeetttttt,,,,,,>>>,,,,,,",
">>>---&&&>>>>>>tttuuu222qqqqqqqqqtttttt,,,:::#########&&&ttteeeqqq222eeeeeetttttt,,,,,,>>>,,,,,,",
">>>---&&&>>>>>>tttuuu222qqqqqqqqqtttttt,,,:::#########&&&ttteeeqqq222eeeeeetttttt,,,,,,>>>,,,,,,",
">>>---222eeeeeetttuuu222qqqqqqqqqttttttttt:::#########eeeaaauuuttt222eeeeeettteeeqqqqqq222>>>,,,",
">>>---222eeeeeetttuuu222qqqqqqqqqttttttttt:::#########eeeaaauuuttt222eeeeeettteeeqqqqqq222>>>,,,",
">>>---222eeeeeetttuuu222qqqqqqqqqttttttttt:::#########eeeaaauuuttt222eeeeeettteeeqqqqqq222>>>,,,",
"555uuuttttttuuuuuu666qqqqqqqqqqqqaaaaaaaaa111#########eeeaaauuuttt222eeeeee,,,eeeqqqqqq111qqq>>>",
"555uuuttttttuuuuuu666qqqqqqqqqqqqaaaaaaaaa111#########eeeaaauuuttt222eeeeee,,,eeeqqqqqq111qqq>>>",
"555uuuttttttuuuuuu666qqqqqqqqqqqqaaaaaaaaa111#########eeeaaauuuttt222eeeeee,,,eeeqqqqqq111qqq>>>",
">>>tttttttttfffaaaaaaffffffffffffffffffffffff555555uuufffhhhhhhhhhaaaaaaffffffuuuttteee222eee,,,",
">>>tttttttttfffaaaaaaffffffffffffffffffffffff555555uuufffhhhhhhhhhaaaaaaffffffuuuttteee222eee,,,",
">>>tttttttttfffaaaaaaffffffffffffffffffffffff555555uuufffhhhhhhhhhaaaaaaffffffuuuttteee222eee,,,",
",,,,,,eeeeeeuuuuuuaaaffffffffffffaaaaaaaaaaaaaaaaaaaaahhhhhhjjjjjjffffffffffffaaauuuqqq222--->>>",
",,,,,,eeeeeeuuuuuuaaaffffffffffffaaaaaaaaaaaaaaaaaaaaahhhhhhjjjjjjffffffffffffaaauuuqqq222--->>>",
",,,,,,eeeeeeuuuuuuaaaffffffffffffaaaaaaaaaaaaaaaaaaaaahhhhhhjjjjjjffffffffffffaaauuuqqq222--->>>",
"555555tttttteeeeeetttuuufffffffff666hhhjjjjjjjjjfffaaaaaaaaa000fffffffffffffffffffffttteee>>>>>>",
"555555tttttteeeeeetttuuufffffffff666hhhjjjjjjjjjfffaaaaaaaaa000fffffffffffffffffffffttteee>>>>>>",
"555555tttttteeeeeetttuuufffffffff666hhhjjjjjjjjjfffaaaaaaaaa000fffffffffffffffffffffttteee>>>>>>",
"555&&&XXX111:::qqqeeetttfffffffffaaahhhjjjjjjrrr000aaaaaaaaafffffffffhhhhhhhhhhhhfffttt%%%,,,,,,",
"555&&&XXX111:::qqqeeetttfffffffffaaahhhjjjjjjrrr000aaaaaaaaafffffffffhhhhhhhhhhhhfffttt%%%,,,,,,",
"555&&&XXX111:::qqqeeetttfffffffffaaahhhjjjjjjrrr000aaaaaaaaafffffffffhhhhhhhhhhhhfffttt%%%,,,,,,",
"666@@@qqqeee<<<qqq>>>eeeaaaaaaaaaaaahhhjjjjjjjjjfffaaaaaaaaahhhhhhfffhhhaaa666hhhfffuuuuuu%%%,,,",
"666@@@qqqeee<<<qqq>>>eeeaaaaaaaaaaaahhhjjjjjjjjjfffaaaaaaaaahhhhhhfffhhhaaa666hhhfffuuuuuu%%%,,,",
"666@@@qqqeee<<<qqq>>>eeeaaaaaaaaaaaahhhjjjjjjjjjfffaaaaaaaaahhhhhhfffhhhaaa666hhhfffuuuuuu%%%,,,",
"666%%%tttttt111qqqqqqeeeaaaaaaaaaaaahhhjjjjjjjjjfffaaaaaaaaaffffffaaafffaaaaaahhhfffffffff;;;666",
"666%%%tttttt111qqqqqqeeeaaaaaaaaaaaahhhjjjjjjjjjfffaaaaaaaaaffffffaaafffaaaaaahhhfffffffff;;;666",
"666%%%tttttt111qqqqqqeeeaaaaaaaaaaaahhhjjjjjjjjjfffaaaaaaaaaffffffaaafffaaaaaahhhfffffffff;;;666",
"%%%+++qqq222222eeeeeeuuuaaa666aaaaaaaaaaaa666aaaaaa666ffffffffffff555aaaaaaaaahhhfffffffff;;;;;;",
"%%%+++qqq222222eeeeeeuuuaaa666aaaaaaaaaaaa666aaaaaa666ffffffffffff555aaaaaaaaahhhfffffffff;;;;;;",
"%%%+++qqq222222eeeeeeuuuaaa666aaaaaaaaaaaa666aaaaaa666ffffffffffff555aaaaaaaaahhhfffffffff;;;;;;",
",,,eeeeeeqqqqqqeeeeeeuuuffffffjjjjjjhhhhhhaaaaaaaaaaaaffffffffffffuuuhhhhhhgggjjjaaaaaafffaaa666",
",,,eeeeeeqqqqqqeeeeeeuuuffffffjjjjjjhhhhhhaaaaaaaaaaaaffffffffffffuuuhhhhhhgggjjjaaaaaafffaaa666",
",,,eeeeeeqqqqqqeeeeeeuuuffffffjjjjjjhhhhhhaaaaaaaaaaaaffffffffffffuuuhhhhhhgggjjjaaaaaafffaaa666",
"===eeeeee222222eeedddhhhkkkkkkjjjjjjhhhhhhaaaaaaaaaaaafffhhhffffffaaahhhjjjhhhhhhuuuuuuaaaaaa;;;",
"===eeeeee222222eeedddhhhkkkkkkjjjjjjhhhhhhaaaaaaaaaaaafffhhhffffffaaahhhjjjhhhhhhuuuuuuaaaaaa;;;",
"===eeeeee222222eeedddhhhkkkkkkjjjjjjhhhhhhaaaaaaaaaaaafffhhhffffffaaahhhjjjhhhhhhuuuuuuaaaaaa;;;",
"===qqqqqq222222tttggghhhkkkpppjjjjjjhhhhhh;;;aaaaaa;;;fffhhhffffff666dddgggddddddaaaqqqeeeeee+++",
"===qqqqqq222222tttggghhhkkkpppjjjjjjhhhhhh;;;aaaaaa;;;fffhhhffffff666dddgggddddddaaaqqqeeeeee+++",
"===qqqqqq222222tttggghhhkkkpppjjjjjjhhhhhh;;;aaaaaa;;;fffhhhffffff666dddgggddddddaaaqqqeeeeee+++",
"666eeeeeeeee---uuuhhhhhhaaaaaafffhhhllllllfff666666aaaaaaffffffhhhhhhhhhhhhdddiii555222qqqeee---",
"666eeeeeeeee---uuuhhhhhhaaaaaafffhhhllllllfff666666aaaaaaffffffhhhhhhhhhhhhdddiii555222qqqeee---",
"666eeeeeeeee---uuuhhhhhhaaaaaafffhhhllllllfff666666aaaaaaffffffhhhhhhhhhhhhdddiii555222qqqeee---",
";;;aaaaaaaaaaaaaaajjjzzzhhhhhhfffuuujjjjjjhhhfffffffffaaaffffffhhhhhhuuuuuuhhhfffkkkdddqqqeee+++",
";;;aaaaaaaaaaaaaaajjjzzzhhhhhhfffuuujjjjjjhhhfffffffffaaaffffffhhhhhhuuuuuuhhhfffkkkdddqqqeee+++",
";;;aaaaaaaaaaaaaaajjjzzzhhhhhhfffuuujjjjjjhhhfffffffffaaaffffffhhhhhhuuuuuuhhhfffkkkdddqqqeee+++",
";;;aaaaaaaaaaaaaaauuuhhhttteeesssyyyhhhllljjjhhhhhhaaaaaaaaaaaaffffffuuuuuuhhhfffkkkdddqqqeee+++",
";;;aaaaaaaaaaaaaaauuuhhhttteeesssyyyhhhllljjjhhhhhhaaaaaaaaaaaaffffffuuuuuuhhhfffkkkdddqqqeee+++",
";;;aaaaaaaaaaaaaaauuuhhhttteeesssyyyhhhllljjjhhhhhhaaaaaaaaaaaaffffffuuuuuuhhhfffkkkdddqqqeee+++",
"666fffaaa;;;aaaaaauuuhhhttteee888yyyhhhllljjjhhhhhhaaaaaaaaaaaa000fffffffffkkkjjjjjj333tttuuu555",
"666fffaaa;;;aaaaaauuuhhhttteee888yyyhhhllljjjhhhhhhaaaaaaaaaaaa000fffffffffkkkjjjjjj333tttuuu555",
"666fffaaa;;;aaaaaauuuhhhttteee888yyyhhhllljjjhhhhhhaaaaaaaaaaaa000fffffffffkkkjjjjjj333tttuuu555",
";;;fffaaaaaaaaaaaa555aaaaaauuuaaauuuuuuhhhhhhhhhhhhaaaaaaaaaaaaaaaaaaaaa222444uuuuuujjjuuuuuu===",
";;;fffaaaaaaaaaaaa555aaaaaauuuaaauuuuuuhhhhhhhhhhhhaaaaaaaaaaaaaaaaaaaaa222444uuuuuujjjuuuuuu===",
";;;fffaaaaaaaaaaaa555aaaaaauuuaaauuuuuuhhhhhhhhhhhhaaaaaaaaaaaaaaaaaaaaa222444uuuuuujjjuuuuuu===",
"666000aaaaaauuuttteee222qqqqqqeeeuuuuuuhhhfffhhhhhhaaafffaaaeeeeeeeeeqqqeeeeeewwweeeeeeeee,,,,,,",
"666000aaaaaauuuttteee222qqqqqqeeeuuuuuuhhhfffhhhhhhaaafffaaaeeeeeeeeeqqqeeeeeewwweeeeeeeee,,,,,,",
"666000aaaaaauuuttteee222qqqqqqeeeuuuuuuhhhfffhhhhhhaaafffaaaeeeeeeeeeqqqeeeeeewwweeeeeeeee,,,,,,",
"666000999aaauuuttttttqqqeeettttttaaaaaaaaaaaaffffffffffffaaaeeeeeeeeeqqqeeeyyyeeeyyyeee+++>>>>>>",
"666000999aaauuuttttttqqqeeettttttaaaaaaaaaaaaffffffffffffaaaeeeeeeeeeqqqeeeyyyeeeyyyeee+++>>>>>>",
"666000999aaauuuttttttqqqeeettttttaaaaaaaaaaaaffffffffffffaaaeeeeeeeeeqqqeeeyyyeeeyyyeee+++>>>>>>",
"666000999fffuuu+++eee222eeeuuutttaaaaaaaaaaaa000000ffffffaaaeeeeeeeeeqqq:::<<<   ###111...@@@,,,",
"666000999fffuuu+++eee222eeeuuutttaaaaaaaaaaaa000000ffffffaaaeeeeeeeeeqqq:::<<<   ###111...@@@,,,",
"666000999fffuuu+++eee222eeeuuutttaaaaaaaaaaaa000000ffffffaaaeeeeeeeeeqqq:::<<<   ###111...@@@,,,",
"666000ffffffuuuqqqeeeeeeuuufffaaaaaaaaajjjjjjkkkkkkffffffaaaeeeeeeeeeqqqeeeyyyeee111111<<<@@@,,,",
"666000ffffffuuuqqqeeeeeeuuufffaaaaaaaaajjjjjjkkkkkkffffffaaaeeeeeeeeeqqqeeeyyyeee111111<<<@@@,,,",
"666000ffffffuuuqqqeeeeeeuuufffaaaaaaaaajjjjjjkkkkkkffffffaaaeeeeeeeeeqqqeeeyyyeee111111<<<@@@,,,",
"666000ffffffaaatttuuuuuuaaafffaaaaaa666jjj777jjjjjj;;;aaa666aaaaaaaaaaaa222qqqqqq:::qqq222&&&555",
"666000ffffffaaatttuuuuuuaaafffaaaaaa666jjj777jjjjjj;;;aaa666aaaaaaaaaaaa222qqqqqq:::qqq222&&&555",
"666000ffffffaaatttuuuuuuaaafffaaaaaa666jjj777jjjjjj;;;aaa666aaaaaaaaaaaa222qqqqqq:::qqq222&&&555",
"666000ffffffaaatttuuuuuuaaafffaaaaaaaaajjjggg000000tttaaaaaaaaaaaaaaaaaa222222222***qqqqqq---666",
"666000ffffffaaatttuuuuuuaaafffaaaaaaaaajjjggg000000tttaaaaaaaaaaaaaaaaaa222222222***qqqqqq---666",
"666000ffffffaaatttuuuuuuaaafffaaaaaaaaajjjggg000000tttaaaaaaaaaaaaaaaaaa222222222***qqqqqq---666",
",,,%%%ttttttaaaaaaaaaaaaaaaaaauuuuuuuuuhhhgggggggggtttaaaaaaaaaaaaaaaaaaaaahhhuuuttttttqqq===666",
",,,%%%ttttttaaaaaaaaaaaaaaaaaauuuuuuuuuhhhgggggggggtttaaaaaaaaaaaaaaaaaaaaahhhuuuttttttqqq===666",
",,,%%%ttttttaaaaaaaaaaaaaaaaaauuuuuuuuuhhhgggggggggtttaaaaaaaaaaaaaaaaaaaaahhhuuuttttttqqq===666",
">>>>>>+++qqquuuuuuaaaaaaaaaaaauuuuuuuuuuuuttttttttttttaaaaaaaaaaaaaaaaaaaaahhhuuuttteeeOOO,,,555",
">>>>>>+++qqquuuuuuaaaaaaaaaaaauuuuuuuuuuuuttttttttttttaaaaaaaaaaaaaaaaaaaaahhhuuuttteeeOOO,,,555",
">>>>>>+++qqquuuuuuaaaaaaaaaaaauuuuuuuuuuuuttttttttttttaaaaaaaaaaaaaaaaaaaaahhhuuuttteeeOOO,,,555",
">>>eeeeeeeeeaaaaaaaaaaaaaaaaaauuuuuuuuu555eee222222222,,,aaaaaaaaaaaaaaatttaaaeeewwwuuueeeaaa000",
">>>eeeeeeeeeaaaaaaaaaaaaaaaaaauuuuuuuuu555eee222222222,,,aaaaaaaaaaaaaaatttaaaeeewwwuuueeeaaa000",
">>>eeeeeeeeeaaaaaaaaaaaaaaaaaauuuuuuuuu555eee222222222,,,aaaaaaaaaaaaaaatttaaaeeewwwuuueeeaaa000",
">>>---qqq<<<qqqeeeeeeaaaeee>>>qqq111eeeeeeqqqqqqeeeeeeeeeuuueeeeee555uuueeeeee111<<<eeeeee666000",
">>>---qqq<<<qqqeeeeeeaaaeee>>>qqq111eeeeeeqqqqqqeeeeeeeeeuuueeeeee555uuueeeeee111<<<eeeeee666000",
">>>---qqq<<<qqqeeeeeeaaaeee>>>qqq111eeeeeeqqqqqqeeeeeeeeeuuueeeeee555uuueeeeee111<<<eeeeee666000",
"555,,,,,,222qqqeeeeeeaaaeeeeeeeee222tttttt222222qqqqqqeeeuuueeeeeeuuuuuueee222222222ttt666666666",
"555,,,,,,222qqqeeeeeeaaaeeeeeeeee222tttttt222222qqqqqqeeeuuueeeeeeuuuuuueee222222222ttt666666666",
"555,,,,,,222qqqeeeeeeaaaeeeeeeeee222tttttt222222qqqqqqeeeuuueeeeeeuuuuuueee222222222ttt666666666",
"666555666>>>eeettteeeaaaeeeeeeeee222,,,ttt222222qqqqqqeee555eeeeeeuuuuuueee222222222555000000000",
"666555666>>>eeettteeeaaaeeeeeeeee222,,,ttt222222qqqqqqeee555eeeeeeuuuuuueee222222222555000000000",
"666555666>>>eeettteeeaaaeeeeeeeee222,,,ttt222222qqqqqqeee555eeeeeeuuuuuueee222222222555000000000",
"666555555---+++eeeeee666>>>eee>>>&&&,,,,,,+++tttuuu===555555>>>>>>uuu555555eeeeee@@@>>>555555555",
"666555555---+++eeeeee666>>>eee>>>&&&,,,,,,+++tttuuu===555555>>>>>>uuu555555eeeeee@@@>>>555555555",
"666555555---+++eeeeee666>>>eee>>>&&&,,,,,,+++tttuuu===555555>>>>>>uuu555555eeeeee@@@>>>555555555"
};
