/* XPM */
static char *d74a11c49c964504e176921175754923xkgKazE307hn2a6c[] = {
/* columns rows colors chars-per-pixel */
"40 40 3 1 ",
"  c #516F0D",
". c #75A014",
"X c #A8E61D",
/* pixels */
"........................................",
".XXXXXXXXXXXXXXXXXXXXXXXXXXXXXXXXXXXXXX.",
".XXXXXXXXXXXXXXXXXX..XXXXXXXXXXXXXXXXXX.",
".XXXXXX.XXXXXXXXXXXXXXXXXXXXXXXX.XXXXXX.",
".XXX.XXXXXXXXXXXXXXXXXXXXXXXXXXXXXX.XXX.",
".XXX.XX...XX.XXX.XXXXXX.XXX.XX...XX.XXX.",
".XXXXX  XX.XXXXXXXXXXXXXXXXXX.XX  XXXXX.",
".XXX.X.XX.X.XX.XXXXXXXXXX.XX.X.XX.X.XXX.",
".XXXXX.XXXX........  ........XXXX.XXXXX.",
".XXXXX.XXXXXXXXXX......XXXXXXXXXX.XXXXX.",
".XXX.X.XXXXX.X...X....X...X.XXXXX.X.XXX.",
".XXX...XXXXX.X.X..XXXX..X.X.XXXXX...XXX.",
".XXXX..XXXXXXX..XXXXXXXX..XXXXXXX..XXXX.",
".XXXX.XXXXXXXX.XXXXXXXXXX.XXXXXXXX.XXXX.",
".XXXX..X.XXX X..X.XXXX.X..X XXX.X..XXXX.",
".XXXXX.X.XXX..X.  XXXX  .X..XXX.X.XXXXX.",
".XXXXX.XXXXXX.X..      ..X.XXXXXX.XXXXX.",
".XXXXX.XXX..X..XXXXXXXXXX..X..XXX.XXXXX.",
".XXXX..XX..X.XXXXX....XXXXX.X..XX..XXXX.",
".X.XX.XXXXX.XX.XXXXXXXXXX.XX.XXXXX.XX.X.",
".XXX..XXXXX.X.XXXXXXXXXXXX.X.XXXXX..XXX.",
".XXXX.....XX.XXXXXX..XXXXXX.XX.....XXXX.",
".XXXXX.XXXXXX...XXXXXXXX...XXXXXX.XXXXX.",
".XXXXX.XXXXXX....      ....XXXXXX.XXXXX.",
".XXX.X.XXXXXX.X.. XXXX ..X.XXXXXX.X.XXX.",
".XXXX. XXXXXXX..X.XXXX.X..XXXXXXX .XXXX.",
".XXXX..XXXXXXX.XXXXXXXXXX.XXXXXXX..XXXX.",
".XX.X..X.XX..X.XXXXXXXXXX.X..XX.X..X.XX.",
".XX.XX.XXXXXXX.XX.XXXX.XX.XXXXXXX.XX.XX.",
".XXXX..XXXXX.X....X..X....X.XXXXX..XXXX.",
".XXXX..XXXXXXXXXX......XXXXXXXXXX..XXXX.",
".XXXX..X.XX..................XX.X..XXXX.",
".XX.X..X....XXXXXXXXXXXXXXXX....X..X.XX.",
".XXXXX..XX.XXX..XXX..XXX..XXX.XX..XXXXX.",
".XXXXXX...XXXXXXXXXXXXXXXXXXXX...XXXXXX.",
".XXXXXXX.XXX.XXXXXXXXXXXXXX.XXX.XXXXXXX.",
".XXXX.XXXXXX..XX.XX..XX.XX..XXXXXX.XXXX.",
".XXXXXXXX..XXXXXXXXXXXXXXXXXX..XXXXXXXX.",
".XXXXXXXXXXXXXXXXXXXXXXXXXXXXXXXXXXXXXX.",
"........................................"
};
