/* XPM */
static char *xpm_[] = {
/* columns rows colors chars-per-pixel */
"64 64 177 2 ",
"   c #435A12",
".  c #4A6514",
"X  c #516E16",
"o  c #557514",
"O  c #5A7A16",
"+  c #5B7C19",
"@  c #5F8219",
"#  c #61861A",
"$  c #658B1A",
"%  c #688F1C",
"&  c #6C951C",
"*  c #6F981E",
"=  c #729D1F",
"-  c #75A21F",
";  c #79A71F",
":  c #7CAD1E",
">  c #7FB11E",
",  c #678923",
"<  c #698B23",
"1  c #6B9023",
"2  c #729C21",
"3  c #77A420",
"4  c #78A520",
"5  c #7CAB21",
"6  c #7FB022",
"7  c #80B615",
"8  c #82B916",
"9  c #81B41D",
"0  c #86BC1C",
"q  c #88BE1E",
"w  c #81AF26",
"e  c #82B324",
"r  c #86B924",
"t  c #89BE26",
"y  c #85B329",
"u  c #8ABB2B",
"i  c #87C017",
"p  c #88C117",
"a  c #8BC41C",
"s  c #8EC919",
"d  c #91CD1B",
"f  c #96D41A",
"g  c #98D71C",
"h  c #9ADB1C",
"j  c #9FE31B",
"k  c #A0E31D",
"l  c #8DC326",
"z  c #8EC329",
"x  c #91C727",
"c  c #92CA26",
"v  c #91C72A",
"b  c #94CC2A",
"n  c #98CF2E",
"m  c #96D223",
"M  c #99D426",
"N  c #9DDC23",
"B  c #97D02C",
"V  c #9AD42C",
"C  c #9EDA29",
"Z  c #8FC031",
"A  c #92C433",
"S  c #95C931",
"D  c #99CF31",
"F  c #9DD433",
"G  c #9ED933",
"H  c #9ED338",
"J  c #A0DF24",
"K  c #A2DE2A",
"L  c #A2DB35",
"P  c #A0D638",
"I  c #A7DD3E",
"U  c #A6DD3D",
"Y  c #A4DB3B",
"T  c #A3E522",
"R  c #A2E421",
"E  c #A3E425",
"W  c #A2E423",
"Q  c #A4E32A",
"!  c #A6E52A",
"~  c #A6E52B",
"^  c #A7E62B",
"/  c #A7E72B",
"(  c #A5E42B",
")  c #A6E52C",
"_  c #A7E52E",
"`  c #A7E62E",
"'  c #A6E52B",
"]  c #A8E72D",
"[  c #A8E62F",
"{  c #A8E82B",
"}  c #A7E135",
"|  c #AAE734",
" . c #A9E633",
".. c #ACE834",
"X. c #ABE738",
"o. c #ACE739",
"O. c #ADE73B",
"+. c #ACE73A",
"@. c #ACE739",
"#. c #ADE839",
"$. c #ADE83A",
"%. c #AEE83C",
"&. c #A4D741",
"*. c #A7DD40",
"=. c #A9DF42",
"-. c #A8DE41",
";. c #A8DD42",
":. c #ACDF4B",
">. c #ACE342",
",. c #ABE045",
"<. c #ACE244",
"1. c #ADE344",
"2. c #AFE841",
"3. c #AFE840",
"4. c #ADE248",
"5. c #ADE14A",
"6. c #B0E745",
"7. c #B0E743",
"8. c #B2E946",
"9. c #B2E947",
"0. c #B3EA47",
"q. c #B2EA47",
"w. c #B2E946",
"e. c #B3E74D",
"r. c #B2E948",
"t. c #B3EA48",
"y. c #B4EB48",
"u. c #B4EA49",
"i. c #B4EA4C",
"p. c #B5EB4D",
"a. c #B5EA4E",
"s. c #B5EA4F",
"d. c #B6EB4F",
"f. c #B4EA4B",
"g. c #AFE151",
"h. c #B3E553",
"j. c #B6EA50",
"k. c #B7EB51",
"l. c #B7EB52",
"z. c #B7EB53",
"x. c #B7EB52",
"c. c #B8EC53",
"v. c #B8EB55",
"b. c #B9EB57",
"n. c #B9EC56",
"m. c #B8EB55",
"M. c #B6E75A",
"N. c #B8E75F",
"B. c #B7E858",
"V. c #BAEC58",
"C. c #BBEC5C",
"Z. c #B2DF61",
"A. c #B3E064",
"S. c #BEED63",
"D. c #B7E269",
"F. c #BBE56F",
"G. c #BDEA68",
"H. c #BEF064",
"J. c #BDE673",
"K. c #C0EE67",
"L. c #C2EE6B",
"P. c #C0F067",
"I. c #C2F16C",
"U. c #C4EF71",
"Y. c #C2EA7A",
"T. c #C5F173",
"R. c #C7F078",
"E. c #CAF17E",
"W. c #C7EC82",
"Q. c #C8ED84",
"!. c #CCEE8A",
"~. c #CCF283",
"^. c #CFF28B",
"/. c #D0F38D",
"(. c #D3F393",
"). c #D6F49B",
"_. c #D8F59E",
/* pixels */
"t t t 5 3 4 4 3 = = = * * * * 2 5 r w ; ; 4 e l t t t l z z c b b b m N j j E ( ~ ~ ~ ~ ~ ~ M z z e ; ; 3 4 5 e e e w e e e e e ",
"t l t 5 4 4 4 3 - = = * * * * = 5 e e ; - 4 e t t t t l l l v b c c b N j j E ) ~ ~ ~ ~ ~ ( M z z r 3 - 3 3 5 w : w 9 w : e 9 w ",
"t l t 5 - 4 4 3 = - = = * * * 2 5 r e ; 4 4 e v l l l z v b n B B B B N j j E ) ~ ~ ~ ~ ~ ~ V z z t 5 5 5 5 e e r e e u e e e e ",
"e e e 5 3 4 4 3 = 2 = = * * & = 5 e e 5 5 w S I =.U U =.=.=.=.5.,.,.,.( j j E ) ~ ~ ~ ~ ~ ~ Q C C V M m M M P Y Y Y Y &.H t r r ",
"e e 5 5 4 4 4 3 = = = * * * * 2 5 r e e e e H y.u.i.w.p.p.z.c.c.b.b.x./ j j E ` ~ ~ ~ ~ ~ ~ ~ ^ { / ~ ~ { ^ $.9.y.y.y.y.U l t t ",
"e e e 5 4 4 4 4 = = = * 2 & & = 5 e e e e e H w.w.w.i.i.i.i.x.m.v.v.x./ j R E / ~ ~ ~ ~ ~ ~ ~ ~ / / ~ ~ ~ / O.i.9.9.9.9.U l u t ",
"e e 5 4 4 4 4 3 - 2 = = * * & 2 5 e e e 5 e H w.w.i.w.i.i.i.m.m.v.b.i. .j j E / ~ ~ ~ ~ ~ ~ ~ ~ / ~ ~ ~ ~ ~ O.w.9.9.e.w.*.l l t ",
"e e e 5 4 4 3 3 - - - = = = = 3 y r e r e r H w.w.w.w.i.x.i.l.m.v.b.x. .j j E ( ~ ~ ~ ~ ~ ~ ~ ~ _ ( ~ ~ ~ ~ O.w.9.9.u.u.Y v l l ",
"w 9 w w 4 4 4 4 w : : 9 9 9 9 q z b v b v S Y w.w.w.1.i.i.x.x.v.v.b.x./ j k R ~ ~ ~ ~ ~ ~ ~ ~ ~ ~ ~ ~ ~ ( _ %.w.9.9.9.9.>.H D D ",
"w w 9 4 4 4 ; 4 : 9 9 0 0 q q q c S S S n S Y i.w.w.i.i.i.i.x.v.v.b.i. .j k E ~ ~ ~ ~ ~ ~ ~ ~ ~ ~ ~ ~ ~ ( / O.w.9.9.9.u.2.P H H ",
"9 e w : 4 4 ; ; 9 9 9 q q q q a n n n n S D U w.i.w.i.i.x.i.x.v.v.m.x._ k k E ~ ~ ~ ~ ~ ~ ~ ~ ~ ~ ~ ~ ~ ~ ~ O.w.9.9.9.9.>.P H P ",
"e w w 4 ; 4 - : 9 q q d h g f N L } L } } } 2.w.w.w.w.i.x.i.x.v.v.v.x._ k k E ~ ~ ~ ~ ~ ~ ~ ~ ~ ~ ~ ~ ~ ~ ~ O.6.9.9.9.9.6.O.,.2.",
"e e e ; ; 4 2 ; q a x h k k k T | $.$.@.$.O.2.w.w.w.w.i.j.i.v.v.v.b.i._ j k E ( ~ ~ ~ ~ ~ ~ ~ ~ ~ ~ ~ ~ ~ ~ O.i.9.9.9.9.e.w.u.w.",
"e : e 5 ; ; ; w q a a h k k k T | +.+.+.| O.2.w.i.w.i.i.i.j.x.v.v.b.x._ j k E ( ~ ~ ~ ~ ~ ~ ~ ~ ~ ~ ~ ~ ~ / O.w.9.9.9.9.w.w.i.w.",
"e e 5 ; = - = ; q a a h k k k T | +.+.+.+.O.%.i.w.w.w.i.j.i.v.b.m.m.l./ j k E ( ~ ~ ~ ~ ~ ~ ~ ~ ~ ~ ~ ~ ~ ~ O.9.9.9.w.w.w.w.w.w.",
"e r e y y y y u x b m J T E T ! | O.O.%.%.%.2.e.i.w.i.i.i.e.i.j.e.h.e._ k R E _ ~ ~ ~ ~ ~ ~ ~ ~ ~ ~ ~ ~ ~ ] %.i.i.u.i.i.i.i.i.u.",
"x z b &.:.5.:.5.<.<.6.2.2.%.%.%.6.9.6.i.l.i.l.l.l.m.x.e.,.,.Y G P P L Q E ! ^ Q ^ Q ^ ^ ^ Q ^ Q ~ ^ ~ ~ Q Q 9.C.C.C.C.C.C.N.C.C.",
"m b B 5.C.V.V.V.l.i.x.i.9.e.e.u.9.9.u.l.m.m.m.m.m.m.x.<.=.} G V M n K K ! ! ! ! ! ! ! Q ! ! ! ! E ~ E ~ ! Q u.K.K.K.N.K.K.K.K.K.",
"c v b ,.c.z.v.z.i.i.i.i.6.9.9.9.9.9.9.l.b.b.m.m.m.b.m.5.,.,.Y G P F L L [ [ .. .[ [  .[ [ [  . . . . . ._  .j.K.K.K.K.K.K.K.K.S.",
"r r z *.p.i.i.i.i.i.6.i.u.w.9.9.9.9.u.C.L.K.S.S.C.S.C.C.M.b.M.h.h.h.h.V.C.C.C.C.C.C.C.C.C.C.C.C.C.C.C.V.C.C.K.L.L.L.L.L.L.L.L.L.",
"e 6 y Y y.w.y.w.w.w.w.w.w.w.w.i.w.w.u.K.U.U.L.G.S.S.S.S.K.S.P.S.K.K.K.L.U.U.U.U.T.T.U.U.U.U.U.U.U.U.T.T.T.T.T.U.U.U.U.U.U.U.U.U.",
"e e e Y q.w.w.w.w.w.w.w.i.w.w.w.w.w.u.G.U.U.K.K.S.S.S.S.S.S.S.S.K.C.K.L.U.U.U.U.T.U.U.U.U.U.U.U.U.U.U.U.U.U.U.L.U.U.U.U.U.U.U.U.",
"r r r S D F F H Y Y U +.%.%.%.2.%.%.7.m.S.S.C.V.C.C.V.S.C.C.C.S.K.C.K.L.U.U.U.U.U.U.U.U.U.U.U.U.U.U.U.L.U.U.L.K.K.L.L.K.L.L.K.K.",
"l u t l u t t l n V F } @.+.@.@.O.O.O.u.m.m.m.m.m.m.m.V.C.C.S.S.S.K.K.L.U.U.U.U.U.U.U.U.T.L.U.U.U.U.U.U.U.U.L.K.S.S.S.S.S.N.K.K.",
"t l t t r l r l S B F } @.@.@.@.O.X.O.u.v.v.v.v.v.v.v.C.C.C.S.S.S.S.K.L.U.U.U.L.U.U.U.U.U.U.U.U.U.U.U.U.U.U.K.K.S.S.S.S.S.S.S.S.",
"t t t t l r l z B F F } @.+.@.@.X.X.%.i.m.v.v.v.v.v.v.V.C.C.S.S.S.S.K.L.U.U.U.U.U.U.L.T.U.U.U.U.U.U.U.U.U.L.L.K.K.S.S.K.S.S.S.C.",
"t l l t l l l z B F F } $.+.+.+.O.O.%.i.m.v.x.x.v.v.v.V.C.V.C.S.S.S.S.L.U.L.U.U.U.U.U.U.U.U.U.U.L.U.U.U.U.U.K.C.C.N.K.K.S.K.K.S.",
"l l z l l l l v B G G } %.2.%.%.O.%.7.6.i.i.u.i.i.i.i.x.l.x.m.V.m.b.b.K.L.L.L.U.U.U.U.U.U.U.U.U.U.U.U.U.U.U.N.e.e.N.L.L.L.U.U.U.",
"l l l l c l l v F F G +.2.2.2.2.%.7.2.w.w.w.i.w.w.w.w.i.i.i.x.m.m.m.m.S.S.S.L.L.U.U.U.U.U.U.U.U.U.U.U.U.U.U.M.:.,.B.U.U.U.R.R.R.",
"z l l l l l l c F G G +.2.2.2.2.7.%.2.w.i.w.w.w.w.w.w.i.i.x.x.m.m.l.m.C.S.S.L.U.U.U.U.U.U.U.U.T.U.U.U.U.U.U.M.:.,.B.U.U.U.R.R.R.",
"c v c v b c c c F G Y >.2.2.w.w.w.w.7.7.%.%.%.2.2.%.2.w.w.w.i.i.i.i.i.m.V.V.L.U.L.T.U.U.U.U.U.L.U.U.U.U.U.L.g.P Y h.R.E.E.~.~.~.",
"b b c B b b b B H G Y 1.i.i.i.2.w.w.w.%.#.@.$.$.+.+.+.%.2.2.w.w.9.9.e.l.m.m.G.U.U.U.U.U.U.U.U.U.U.U.U.U.T.U.:.K D g.E.E.E././.(.",
"b b b b c b b n P Y Y <.u.u.9.9.w.w.i.%.| +.+.+.+.+.+.2.2.%.w.w.9.9.e.i.m.m.K.U.U.U.U.U.U.U.U.U.U.L.T.U.U.U.:.V V g.E.E.~./././.",
"b b b b M c n n L L U 6.y.y.y.y.i.i.6.%.@.+.+.+.+.+.+.%.2.2.w.w.9.9.u.l.m.m.K.U.U.U.U.U.U.U.U.U.U.U.U.U.U.U.:.V V g.E.~.~./././.",
"b b c v v v x x D H P Y >.=.&.>.2.2.2.+.} X.X.| | +.| %.2.%.w.w.w.w.w.i.m.m.S.L.U.U.U.U.U.U.U.U.U.U.U.U.U.U.e.V F h.Y.E.~.^././.",
"c m c e 4 5 4 4 2 = 2 < < < < 2 b K N b s l C  . ./  .| | +.O.%.%.%.7.w.u.i.S.U.U.U.U.U.L.T.U.U.U.U.U.U.U.L.S.h.h.G.E.~.~.^././.",
"c c l 5 & * * & + O o .       o 0 h f i > 8 f / ~ ~ ~ / ..` X.$.#.#.$.7.6.i.C.U.U.U.U.U.U.U.U.U.U.U.U.U.U.U.L.K.P.T.E.E.~./././.",
"c B v 4 * * * % # + + X . .   O p h f p 8 8 M E ~ ~ /  . . . .| X.X.$.7.9.u.C.U.U.U.L.U.U.U.U.T.T.L.U.L.U.U.K.S.C.I.E.E.~.^././.",
"B V v 4 % % % & = = = ; 9 w 5 r M _ K d i s M ~ / Q Q C C V n c b v b U 7.%.m.L.L.K.K.L.L.K.L.S.L.L.K.L.L.K.K.S.P.I.E.E.~.^././.",
"F F B 3 # $ # % 9 9 r K ^ ^ ^ ] +.O. .m p s N Q _  .Q M x x u e e w r F $.O.x.S.S.S.S.S.S.S.S.S.S.S.S.S.S.S.S.S.K.L.E.E.~.^././.",
"V F S - @ $ @ & w r r K Q ^ ! ^ | %.| m s s N ( Q ^ Q n x c t e w : r F $.O.i.S.S.S.S.S.S.S.S.S.S.S.S.S.S.S.S.S.K.L.E.E.~./././.",
"V G B 3 % % % * y u t L O.X.X.O.%.7.$.M s d N ~ ] Q ] K C M c x x x c L X.O.x.S.S.S.S.S.S.S.S.S.S.S.S.S.S.S.S.S.K.L.E.~.~./././.",
"V V B 5 & & & - u A S &.9.9.9.9.i.w.2.C f g N / ^ ^ Q ^ ( ( ( ( ~ ~ ^ #.O.O.x.S.S.S.S.S.S.S.S.S.S.S.K.S.S.S.S.S.S.U.E.E.~.^././.",
"F G B 5 & & & = u u A =.9.9.9.9.6.i.7.C f g N _ Q ^ ^ ^ ^ ~ ^ ^ ~ ~ ~ ..| O.x.S.S.S.S.S.S.S.S.S.S.S.C.S.S.S.S.K.S.L.E.E.~.^././.",
"V V B 5 & & & - u u A &.w.w.w.w.w.i.7.C f h N ~ ^ ^ Q Q ^ ^ ^ Q ~ ~ ( | O.+.x.S.S.S.S.S.S.S.S.S.S.S.S.S.S.S.C.C.K.I.E.E.~./././.",
"G V B 5 & & & - u A A :.w.i.w.i.w.i.2.K f f J ~ Q ^ ^ ^ Q Q ^ Q ~ ~ _ | | O.x.S.S.S.S.S.S.S.S.S.S.S.C.S.S.S.K.K.K.L.E.E.~./././.",
"z v l = $ & $ * y u u Y 7.%.%.%.O.O.| N h g E / [ [ [ [  .[ _ _ ] ]  .%.2.7.m.S.S.C.h.h.h.M.M.b.C.C.K.S.S.S.S.S.K.L.R.R.E.E.E.E.",
"u 6 > & $ $ @ & w u t L $.$.O.|  . . .N h h E  . . . .[  . . . . .]  .2.i.6.m.S.S.v.:.,.5.,.h.h.M.B.S.S.S.S.S.S.S.K.U.I.T.R.R.R.",
"6 6 6 2 @ # , % 6 6 l H X.X.X.X. . ._ J h h E  . . . . . . . . . ./ X.2.2.i.b.S.S.B.5.4.5.<.e.M.M.B.G.K.S.S.S.S.S.K.L.U.U.T.R.R.",
"6 5 4 1 @ @ @ % 6 u l G X. . . .( ( E J k h (  . .|  . .| |  .| X.X.+.2.j.j.V.S.S.h.=.Y Y Y :.h.e.B.K.C.S.S.S.S.S.K.L.L.L.U.L.U.",
"& = 1 # + @ @ # 5 6 6 V / / ) Q R k k k k k ^ O.X.X.O.O.X.X.O.X.| +.%.i.v.v.C.S.S.5.F V F V Y 5.:.h.C.K.S.S.C.K.S.S.S.S.S.S.K.G.",
"& & & @ + + + # 5 6 u V / Q / Q R k k k k k _ X.O.O.X.X.O.X.X.X.+.+.%.s.v.v.S.S.H.5.F V V F Y :.:.B.C.K.S.S.K.K.S.S.S.S.S.K.C.K.",
"& * & @ @ o o # 5 6 r M / / ) Q k k k k k k _ O.X.X.o.o.o.o.O.O.| | %.i.v.v.C.S.S.5.F V n V Y :.<.h.C.K.C.K.S.C.K.C.C.K.S.S.S.C.",
"* * * # @ @ @ $ 5 6 r M / / / / R k k k k k ( O.X.O.o.o.o.o.O.%.+.+.+.i.v.v.C.S.S.g.F F K P I :.<.M.K.K.S.K.G.S.K.K.K.K.S.S.K.K.",
"> : 6 r 6 u u z B D F } | |  .` E E E E E E  .| X.X.O.o.o.o.o.o.+.+.>.s.v.v.S.G.G.S.B.g.h.g.N.K.G.U.R.Y.E.T.R.E.T.T.T.T.T.U.U.U.",
"l t l G 2.3.X.X.+.+.X.X.X.X.X.X.] ~ ~ ~ ( _ | | O.X.X.X.o.o.o.o.| +.%.y.v.v.S.T.T.I.T.T.U.U.E.E.E.~./.(./././././.!.E.E.Q.E.E.E.",
"t t z L $.$.#.#.+.+.@.@.@.@.@.X./ / _ ( ( /  .O.@.@.@.@.X.X.X.X.@.@.@.s.v.b.S.T.T.T.L.T.U.U.E.E.~.~./././././././.^.E.E.E.E.Q.E.",
"e e r F $.O.| O.X.+.@.X.@.@.@.| ~ R E E E E ] O.@.@.@.2.q.2.q.s.s.y.s.H.H.H.R.~.Q.Q.~.~.~.~.~.!.~.~./././././././.^.E.E.E.E.E.E.",
"; - 5 F $.$.| O.+.X.+.X.@.@.%.| E k k k k k _ X.@.X.%.w.p.p.V.H.H.C.H.T.E.E.^.).).).).).).).(.(.(.(./././././././.^.E.E.E.E.E.E.",
"- - 5 V $.$.O.O.X.+.X.%.@.X.@.| R j k k k k _ O.@.X.@.i.p.p.C.H.H.H.H.R.E.~.(.).).)._._._.).).(.(.(./././././././.~.E.E.E.E.~.E.",
"- - ; B #. . .| | |  .X.| X.X. .R k k k j j  .%.%.%.%.i.z.v.C.H.H.H.H.R.E.E.^.).).(.!.(.!.!.!.!./././././././././.~.E.E.E.E.E.E.",
"; - 5 M ] ] ~ ] _ ( ( _ ( / / E R k k k k j  .6.w.w.i.c.C.b.H.T.T.T.T.R.E.~.(.)._.Q.Z.Z.D.Z.Y.Y.Y.Q././././././././.E.E.~.E.~.E.",
"3 3 4 M ~ ~ ~ ~ ( ~ / _ ( / ( E R h j j k R | i.w.w.i.v.H.C.H.T.T.T.T.E.E.E.^.).).W.Z.Z.Z.Z.D.Y.Y.W./././././././.~.~.E.E.E.E.E.",
"3 3 4 M ~ ~ ~ ~ ~ ~ ( / / / / ~ R j R R j j | w.w.w.i.v.C.C.H.T.T.I.T.R.E.~.(.)._.W.D.Z.D.Z.F.Y.Y.E././././././././.E.E.E.~.E.E."
};
