/* XPM */
static char *xpm_[] = {
/* columns rows colors chars-per-pixel */
"64 64 247 2 ",
"   c #3A4D0E",
".  c #597A16",
"X  c #4D6D0F",
"o  c #586231",
"O  c #4D2D5E",
"+  c #787A59",
"@  c #6B6C50",
"#  c #7B6E6E",
"$  c #63565E",
"%  c #83727D",
"&  c #5D8312",
"*  c #648A1A",
"=  c #6A9417",
"-  c #729D1E",
";  c #65930D",
":  c #75A21E",
">  c #78AB16",
",  c #7CAF19",
"<  c #769531",
"1  c #78A521",
"2  c #7CAB22",
"3  c #78A324",
"4  c #7EB021",
"5  c #78854B",
"6  c #7F8163",
"7  c #84BB19",
"8  c #82B323",
"9  c #86BA24",
"0  c #89BE26",
"q  c #88B92A",
"w  c #8DBA35",
"e  c #83AA33",
"r  c #8CC619",
"t  c #91CE1C",
"y  c #97D61A",
"u  c #9FE11D",
"i  c #A0E31D",
"p  c #A0E617",
"a  c #8CC325",
"s  c #8FC32B",
"d  c #92CC25",
"f  c #94CC2A",
"g  c #91C62B",
"h  c #9BD42D",
"j  c #9AD626",
"k  c #97CA35",
"l  c #9DD533",
"z  c #9FD835",
"x  c #9ED23B",
"c  c #A1DE2C",
"v  c #A2DC34",
"b  c #A3DA3B",
"n  c #A2D63B",
"m  c #A3E425",
"M  c #A6E52B",
"N  c #A8E62F",
"B  c #A7EA28",
"V  c #A9E633",
"C  c #ACE739",
"Z  c #AEE93B",
"A  c #A9E535",
"S  c #B1ED3F",
"D  c #9CE122",
"F  c #828A5B",
"G  c #889656",
"H  c #839948",
"J  c #93A954",
"K  c #90936C",
"L  c #9BA669",
"P  c #9CA272",
"I  c #A1AD6C",
"U  c #A5AC78",
"Y  c #A7B574",
"T  c #A7DA47",
"R  c #ADDA54",
"E  c #AAD153",
"W  c #ADE346",
"Q  c #B2EA44",
"!  c #B3EA4A",
"~  c #B0E54A",
"^  c #B9EC56",
"/  c #BAEB5C",
"(  c #B5E755",
")  c #BDF15A",
"_  c #B2E84B",
"`  c #B2D06B",
"'  c #BEED63",
"]  c #BEEB6A",
"[  c #BFF261",
"{  c #9CC643",
"}  c #C2EE6C",
"|  c #C0EE67",
" . c #C3F36B",
".. c #C4EF72",
"X. c #C9EF7C",
"o. c #C9F17C",
"O. c #C6F174",
"+. c #5A1796",
"@. c #6C16B8",
"#. c #6916B1",
"$. c #6628A6",
"%. c #7428BB",
"&. c #7635B9",
"*. c #6E31B5",
"=. c #5D2190",
"-. c #0378AE",
";. c #2B70A7",
":. c #785392",
">. c #7649AD",
",. c #4775BC",
"<. c #7719C9",
"1. c #7D1AD3",
"2. c #7B14D6",
"3. c #7B26C9",
"4. c #7A36C8",
"5. c #7F22D1",
"6. c #695DC8",
"7. c #764CCC",
"8. c #4D7CC8",
"9. c #5B78CC",
"0. c #6C68D1",
"q. c #7E47E3",
"w. c #3971D0",
"e. c #813DB6",
"r. c #8E6E97",
"t. c #8951B0",
"y. c #9468AB",
"u. c #986EAC",
"i. c #9268A5",
"p. c #821BDC",
"a. c #801FD6",
"s. c #8233CA",
"d. c #833ACC",
"f. c #8428D7",
"g. c #8A3AD4",
"h. c #8838D6",
"j. c #8D39D9",
"k. c #851CE0",
"l. c #8C2BE4",
"z. c #8824E3",
"x. c #8E33E3",
"c. c #9235E6",
"v. c #943BE7",
"b. c #993DF1",
"n. c #8645CA",
"m. c #8644D0",
"M. c #8B47D5",
"N. c #924ED9",
"B. c #984CD9",
"V. c #9555DC",
"C. c #9854D7",
"Z. c #8D52C3",
"A. c #9A63D2",
"S. c #9943E9",
"D. c #9845E7",
"F. c #894FE3",
"G. c #9E61E1",
"H. c #A569E5",
"J. c #AB75E5",
"K. c #B07FE8",
"L. c #A15EE3",
"P. c #148DB5",
"I. c #289AB7",
"U. c #2CA9B8",
"Y. c #30A8BA",
"T. c #4583BC",
"R. c #0287C6",
"E. c #149ACA",
"W. c #0595D8",
"Q. c #0993CE",
"!. c #2A9CC8",
"~. c #17A8D3",
"^. c #26A8C7",
"/. c #2BB3C6",
"(. c #33B8C8",
"). c #28B7D7",
"_. c #37BAD6",
"`. c #2EA7D1",
"'. c #039AE6",
"]. c #0AA4E8",
"[. c #16A8E5",
"{. c #06A9FA",
"}. c #15ADF8",
"|. c #1AB7F8",
" X c #15B5EC",
".X c #21ACE6",
"XX c #27B6E8",
"oX c #39B9E7",
"OX c #28B8FA",
"+X c #36BCF9",
"@X c #26ADF2",
"#X c #4C8BC8",
"$X c #5484CC",
"%X c #568AD3",
"&X c #518ECF",
"*X c #4EAFD6",
"=X c #45BBEE",
"-X c #6491DA",
";X c #1CC4DA",
":X c #3AC5D8",
">X c #32C2D1",
",X c #37CAE7",
"<X c #3BD4E6",
"1X c #39C6F4",
"2X c #2AC9E8",
"3X c #1CCAE7",
"4X c #47C7D9",
"5X c #53CBDB",
"6X c #67C8DD",
"7X c #49C7E8",
"8X c #55C7E7",
"9X c #44D6E9",
"0X c #4AD6E9",
"qX c #54D9EA",
"wX c #58D6E9",
"eX c #48C4F9",
"rX c #59CBF9",
"tX c #58D2F4",
"yX c #66CCEB",
"uX c #66DAEB",
"iX c #77D8E8",
"pX c #66CDFA",
"aX c #69D4F4",
"sX c #77D6F7",
"dX c #76CAF3",
"fX c #77E1F0",
"gX c #A9A68A",
"hX c #AEB387",
"jX c #B1B291",
"kX c #B8B2A4",
"lX c #A08D99",
"zX c #BACA88",
"xX c #CCF283",
"cX c #D1F28F",
"vX c #B581E8",
"bX c #86A4E3",
"nX c #88DCE9",
"mX c #88DAF5",
"MX c #95DCF3",
"NX c #98E1E9",
"BX c #98E3F4",
"VX c #8AE4F2",
"CX c #A7E5F7",
"ZX c #ACE7EF",
"AX c #B8DFF3",
"SX c #D2F2F8",
"DX c #E7F7FA",
/* pixels */
"0 2 1 : = = 3 e A.L.L.u.L f h m M M M j 9 1 1 8 4 8 8 - . X . = = .   X = 1 8 9 8 8 - 7 t u m Z Z f 0 0 0 h f d f d f f f j f f ",
"9 2 1 : - - 3 e C.S.v.B.y.u.P i M M M j j f l n n s 9 2 > = = ; ; & . * = - 8 n l j d j c u m C V C n n C Z n 0 0 0 0 0 0 0 0 0 ",
"8 2 1 - - - 3 e C.v.c.v.b.b.u.p B B M B M B V ~ Q l 0 0 7 7 > ; ; ; * * = = q _ Z V B M i p c C Z Q ! ! S ! C g 0 8 8 9 0 0 0 0 ",
"8 2 : 2 2 8 e P D.c.l.v.v.S.u.L I I I I I L E ~ ~ b f a r 7 > * ; ; ; = 3 8 g ( Q C V c c p m Z Z S ! R Y U I J k t 0 0 0 0 0 0 ",
"8 : 1 7 9 t J u.v.l.z.c.v.D.C.u.u.u.u.u.y.y.gX! Q W b l a 7 > ; & ; * - q f n / ! Q Z C m i m C Z Z ! ` gXu.u.u.k j y d 0 8 q 0 ",
"8 2 1 7 t p I H.x.l.z.c.v.D.v.c.S.S.S.b.l.k.y.Q Q Q Q v t r > * ; ; ; 8 f V Q [ / ! ~ C M i m V C S ! Y u.b.S.C.n m i j d 8 9 0 ",
"9 q w k h B Y H.x.z.k.l.x.x.c.c.S.D.S.v.c.z.Z.U U hXU U K G F + + + + F P U U jX| ~ ! C M p x U U U U lXA.S.S.C.n i i y d 0 0 9 ",
"g W ^ ! ! Q Y D.c.f.p.p.a.<.f.v.S.S.S.b.c.z.l.c.c.S.S.S.D.D.S.S.v.b.S.D.v.S.D.L.` R R T n c U S.S.S.S.S.S.S.S.L.E l f k v N j 8 ",
"q n ! ! ! S hXS.l.p.p.a.1.a.<.<.x.v.D.D.D.D.D.D.D.D.D.S.S.S.D.D.S.D.D.D.D.D.D.D.C.C.C.C.C.C.B.D.S.c.l.z.l.c.v.D.B.B.B.u.Y C c q ",
"9 0 l v C S R U j.l.f.p.a.<.<.#.p.h.g.g.g.g.g.s.d.d.g.6.0.#X8.w.-X-X-X9.M.j.g.g.j.g.j.j.g.g.j.D.l.z.k.p.a.s.a.a.c.v.S.y.J 0 q 9 ",
"0 0 0 f v C Z T B.x.l.f.a.<.@.+.p.f.s.s.s.s.s.&.4.%.&.>.T.U.I.R.<X:X(.#X6.s.d.d.s.s.s.s.s.s.g.v.k.k.p.p.a.@.@.@.c.D.D.i.% = 8 8 ",
"g 0 0 f n Z Z T u.u.y.y.i.i.e.#.f.s.d.4.7.6.6.6.6.0.6.$X*X>X(.~.9X4X>X*X$X0.0.J.6.6.6.7.4.d.g.g.a.a.p.s.e.y.t.#.f.v.S.i.% 8 8 8 ",
"d g d h b Q Q ~ I I I I I I r.#.s.s.s.7.9.&X&X#X*X&X*X*X7X4X4X<XwX5X5X5X*X*X-XbX&X#X#X9.7.4.s.d.a.a.a.e.u.hXu.#.a.c.S.i.H 8 8 8 ",
"d f f l b ! ! Q Z C C Z Z Q I #.s.d.s.6.#X>X(.(.0X0X9XqX0XqXqXuXuXuXuXqX0X9XqXiX>X(./.#X6.s.s.4.a.a.a.t.hXO.U a.a.c.S.i.H 7 8 8 ",
"g q q q w w k A c V V C Z S P @.s.7.0.$X*X5X4X4XoX,X9X0XqXqXqXtX,XqXwXqX0X9XqXuXY./._.*X9.6.6.%.a.t.i.r.zXO.Y t.a.s.v.Z.% % H 8 ",
"f 8 = * . X = y 7 j M N V c P p.s.%X4X5XuXiXuXwX].2X9X0X0X0XqX9X].7XuXqXqX0X9X<XP.).<X:X(.U.,.%.a.jXO.o.o.X.X.] e.a.z.j.v.l.r.7 ",
"c 3 * 3 0 c c v r c c c a 7 F c.c.%X:X5X5XuXuXuXwX0X9X<X<X2X<X0XqXqXqXqXwXwXqX0XwXuXuXwX4X(.,.a.p.K n R | X.X.} ( t.2.@.+.O $ w ",
"c 1 = 8 x Z Z Z y c m c c j I v.c.-X>X).`..X,XuXfX,X X X|. X|.1XOXOX|. XXX.X2X<XwX(.!.!.Y.Y.8.a.k.P ! / O.X.X.O. .Y gXK F @ H k ",
"h 8 * e n ! ! Q u c M M m B I b.c.%X_.^.W.W..XuXVXOX'.{.{.{.{.}.{.{.{.{.'.W.].<XqX!.-.P.I.U.,.a.k.gX| } X.X.X.} O.O. .( k 8 7 l ",
"0 3 * 8 k Z S v y c N N N M I S.c.%X4X(.)..X,XuXpXoX.X.X|.|.|.2X{.|.|..XXX[..X).9X`.P.E.U.U.,.<.k.gX| } O.X.X.O.O...O.( k 8 9 g ",
"e = . 3 f C N M u c C V V N Y S.c.-X(.4X7X7XwXuX+XeX7X4X9X1X<X1X3X2X<X7X7X5X_.E.,X:X(.(.Y.U.,.a.k.gX' | O.X.X.} ....X.R k 8 8 0 ",
"= * . - 0 M m i i N C C Z V U S.c.%X>X4XuXiXfXaX{.7XiXiXuXuXqX<X2X9XqXuXiXiX*XR.3X<X9X:XY.U.,.@.k.gX' } X.X.X.O.......R k : 8 , ",
"- 8 8 8 h V M i i V Z V Z V U v.c.%X>X4X5XuXqX7X=XaXnXuXtX1X1X2X X2X1X0XuXiX6X`. X,X9X:X*XY.,.@.p.gX| ..X.xXX.} } } ..( T k s q ",
"9 l C C C Z V M B V Z Z Z S Y b.l.$XU.(.:X<XXX[.BXVXfXrX1X}.}.}.].}.{.2XtXsXiXnX X;X,X:X4X5X%X@.a.P ..X.X.cXX.| ' } ..} ] ' ( h ",
"- h C C Z Z N i i N C Q ^ ) jXS.c.$X(.^.~.W.`.iXBXeX{.eXsXCXCXNXnXNXCXdXoX].OXiX6X!.-.P.U./.,.a.z.kXo.xXo.xX..^ ^ ' ' | ' | T 8 ",
": h N N N N M i i C Q ! )  .jXS.c.&X/.^.Q.R.`.dX+X8X8XsXVXBXsXeXoXyXmXsXdXyX8XXX8XI.-.-.P.U.,.a.l.jX . . . .] / C Q ~ Q ~ ! k = ",
"- d M M M M M i i C ~ ( [  .kXS.c.%X(.~.E.R.`.yX{.8XnXnXnXfXrX}.W.=XpXsXMXZXyX].6XI.-.-.I.I.,.a.x.jX[ [ ' ' ' / N V C C Z Z s . ",
"7 c V V N M M m y b ! ^ |  .kXS.c.&X(./.~.'.oXiXOXaXZXMXsXpXpXrXoX=X=XpXiXZXpX{.6XI.-.P.I.U.,.a.x.jX[ ' [ / ^ R M N A V A Z k * ",
"0 v V V V C V c 9 n ( / } o.kXS.v.%X/._.XX}.rXNXeXmXSXMXpXeXpXCXmXeXOXeXsXNXiX}.iX`.R.E.^.(.$Xp.x.jX[ ' ( / ( n c M N V A Z f - ",
"v v C C C C C v 8 T ^ | O.o.kXS.c.%X(._.+X+XpXZXpXCXSXCXpX+XsXDXDX=X{.+XdXZXsXOXnX_.'.~._.0X%Xk.x.jX[ / ^ ^ T d p m M N A Z l 1 ",
"f b Q Q Q Q ! Q w T / | O.xXkXS.c.$X/.).XX@X=XnXeXmXCXmXrXOXsXDXmXrX+XrXmXCXpX[.uX^.R.P.^.(.$Xk.c.jX] ] ' / ( R A N M N A Z f = ",
"8 E | | | ' ' | | ' | } X.xXkXS.c.$XU.^.E.W.[.:X|.eXrXrX=XOXsXSX[.dXAXMXmXMX=XE.*XP.-.-.I.U.,.1.x.kXo.o.O.} xXcX} Z M V A Q g . ",
"2 T ' ' | ' ' ] ' ' ] / / ) hXS.x.$XU.^.Q.Q.~.;XOXsXZXBXmXpXMXSXAXAXSXsXoXW.oXiXqX~.R.Q.^.(.8.<.p.gXO.O.....xXcX .Q M N V S s . ",
"g ( } } | | R k / ' ' / ^ ^ hXS.x.#XU.I.P.P.Q.3X1XmXAXCXBXMXsXrXsXrX=X=X=X_.6XnXXXXXoX4X4X4X$Xa.k.gX^ | ..xXxXcXT A Z Z Q ! T 8 ",
"l ( .. .| ' T 8 ( | ' / ^ ^ hXv.b.$XU.^.P.R.Q.3X1XmXAXCXCXCXsX|.rX}.'..X4X6XiXNX].1XqX5X6X5X-X<.k.P Q ) ..cXcXxXf b ~ ! ! ^ T d ",
"g ( ..} | | R k / ] ] ( ~ C U b.x.$XU.^.Q.W.W.;X+XyX6XnXmXCXsXeXpXoX@XeX8XyX6X6X.X<X0X0X4X*X-Xa.k.P C ( ] X.X.X.T W ! ^ ^ ^ T a ",
"0 R O. .| ' / R ' ' ' R T h P D.c.%X/.).[.'.[.;XOX`.`.*XiXNXmXdXiXyXyXyXuXuX6X`.,X,X<X:X:X*X9.k.l.P l T ~ | } ' ] ( ! ^ ^ ^ T 4 ",
"2 R O...| ' ] ' ' ' | R x d K D.c.%X/.). X{. X).|.W.R.`.6XNXNXNXNXNXNXBXVXVX7XQ.:X<X<X:X_.(.%Xk.c.K d l T ^ ^ / cX} ^ ^ ^ / T : ",
"0 T ' / ' ' ' | / / ^ ~ b c I S.x.$X/.^.].'.[.;X+X@XQ.`.*XyXwXtXsXyXyX8X8X7X=X`.<X9X9X:X>X(.8.k.c.P l v C ~ Q ! } ^ ! _ W T k 2 ",
"l z x T ( / / | ^ ! ~ Q Z Z U v.l.$XY.E.P.R.E.2XwX=X+X@X}.].}.}.+X|.{.'.Q.R.^.uX9X9X0X4X(./.9.p.l.U C A V M V C Z b v h g 0 0 9 ",
"l z z T b b W [ ^ ! ! Q Q S Y v.l.8.U.^.].'.W.P.Q.oX0XiXVXCXVXaXCXsXqX0X7X<X<X9XuXI.-.-.I.U.;.+.a.L Q Q Q Z Z Q Z 2 . - 3 8 8 8 ",
"h z b x b c W ] ) w 3 G lXu.A.x.l.$XY./.).2X[.R.'.[.[.XXoX=X7XfXsXsXpXtX0X9XwXsX<X/.E.I.^.U.,.+.#.e.i.% @ . = 9 j * X X * - - q ",
"h x z z z z W ] ^ < . @ t.v.v.z.z.8.Y.(.:X<X X'.'.'.W.'.'.'.@XfXpXpXpXtX0X9XuXBX;X;X;X;X/.U.,.#.#.a.a.O O     = t *   X . * - 0 ",
"l z z T W W ( O./ G @ :.t.j.f.f.l.8.U./.>X>X).[.@X X[.[.].}.@X7XpXpXpXpXqX0X8XyX;X).;X(.(.U.T.@.#.a.a.=.O O o 7 y = . . * * - 0 ",
"z z z T R / ' ] [ lXt.t.s.f.a.@.l.,.I.Y.U.Y.(.2XtX7X,X2X@X@X@X@XaXpXpXpX0X9X:X!.;XU.Y.(.(.(.$X5.a.@.a.#.$.=.$ 7 y 7 > - = * - q ",
"l z x ~ ' ] ] ] [ u.D.j.a.@.@.#.l.,.U.I.U.I.U.2XBXuXqX7X1XOX[.W.wXaXpXrXtX9X_.-.3XU.I.Y.Y./.%Xc.a.a.a.a.a.a.r.y y r r 7 - * - 0 ",
"h x b ( ] ] o.] hXy.j.f.s.@.%.@.f.6.#XI.T.Y./.>XiXwX0X0XrXrX+X'.uXrXeXeX9X9X:XE.;X/.Y.Y.#X-X0.h.a.a.a.a.p.p.e.J j y t 7 : * 1 s ",
"l z z ~ [ O.o.zXB.f.a.a.%.s.e.e.d.j.D.A.&XY.!.Y.!.*X7XaXMXAXdX}.aX=X@XOX+X7X8X*XY.Y.(.$X0.S.D.d.e.e.e.a.f.l.l.j.{ c i a 7 - 2 f ",
"l z b _ ] O.kXD.5.%.$.%.3.s.:.. >.v.S.M.4.7.7.4.*.7.F.G.F.B.F.F.F.F.q.q.F.F.M.7.4.7.4.m.M.D.j.&.o :.f.s.h.h.j.x.g.L m d 7 1 8 l ",
"d 4 3 J lXlXy.3.#.$ o $ >.4.>.t.m.h.h.h.h.M.M.M.N.A.J.G.H.H.H.H.G.G.H.G.J.H.G.C.M.M.M.d.4.&.d.Z.% e.s.t.$ $ :.v.c.y.r.lXH 1 8 h ",
"0 3 - + i.b.f.+.+.o X @ :.4.d.g.M.4.4.4.M.V.V.V.G.K.vXK.K.K.vXvXvXvXvXvXvXvXK.J.V.V.V.d.&.$.&.A.M.m.n.:.o X $ D.c.c.c.t.F : 8 l ",
"0 2 3 5 # t.t.:.+.$ ; @ # r.t.d.4.*.$.4.d.M.N.V.G.G.J.H.H.J.J.J.J.J.J.H.J.H.J.J.V.7.n.4.*.$.&.N.C.M.n.t.@ & @ B.t.t.:.# 5 , 0 h ",
"4 4 2 < 5 @ 5 G =.5 r e 5 H r.7.4.$.=.+.*.s.m.V.G.G.G.G.G.G.G.G.G.G.G.G.G.G.G.V.V.7.*.*.*.$.*.M.C.N.D.i.+ ; % C.6 @ @ @ < 9 0 h ",
"4 4 4 - * . : l =.G B j d , F d.4.+.O +.$.*.4.V.V.F.V.V.V.V.V.V.F.V.V.V.V.V.V.V.V.&.$.$.$.$.*.n.N.B.S.y.H 7 G C.3 & X * 2 a a f ",
"4 s g q 2 - q z # J B D y r G g.h.$.=.$.*.&.d.V.V.N.N.N.N.N.N.N.N.N.V.N.N.N.N.N.C.d.*.&.*.*.&.M.C.D.S.lXG r H r.w 3 - 2 w x k f ",
"4 x A A W C Q Q y N Z B D y J D.B.n.>.&.n.m.n.d.m.m.m.m.m.m.7.m.m.m.m.m.m.m.n.m.n.m.n.n.n.Z.Z.C.D.B.B.r.J t t t A Z V Q ^ ' ( b ",
"8 8 8 0 h M c j Q ! ( Q A m I B.H e e % r.%.4.4.4.4.4.4.4.4.3.4.4.4.4.4.4.4.4.4.4.4.3.:.+ < q J B.K q 0 h m m D A Z Z A l l v b ",
"9 9 8 0 a f y u V S Q Z C V R hXk c h w J L L 5 G G G G G G G H + + 5 5 F G F + @ @ $ < e d d v U { h c v V V V Q A v l h l h z ",
"d a 0 0 0 0 d i M V C C C C ! / Z C C Z C S j > r y y y t r t r ; > > , r t r > ; . X ; r y m C ! S Z Z C V A Z W v h h h j h l ",
"j g a a g g d j N Z Z Z C C ! / S C C C C Z c 7 r j h j y t y t r 4 r r r d a , , > - 8 a j M A Q C V M V V V V b b l z l z l z ",
"h d g g g h g a v Z Q Z Z C ! / Z C C C C C c t 7 v b v c y y j d j j j j c h r f g s f l c N Z Z M m m m m m m z x z z z x z b ",
"h f d j h v g 7 C Q _ Q Z C Q [ Z A C C Z C V u a b ! Z N i p p B N B V V C A f A Z C Z Z A Z Z Z m i i i D i i d x b z x z z b ",
"h f f d h h s 8 0 b Q Z Z C Q ~ n v C v v v h r 0 l b v g 7 d B C h d f l A l f f v l v C Q Z v v M m m m B D a a h l l l z x x ",
"h h f f f f 0 3 . g S C C C v f 8 v C c 0 8 1 - 0 0 q , = . 3 Q ^ w : 4 a d f g 8 8 8 f T ^ T f d v Z Z C Z g * 2 a f f d f f f ",
"h f f d h h s 8 0 b Q Z Z C Q ~ n v C v v v h r 0 l b v g 7 d B C h d f l A l f f v l v C Q Z v v M m m m B D a a h l l l z x x ",
"h h f f f f 0 3 . g S C C C v f 8 v C c 0 8 1 - 0 0 q , = . 3 Q ^ w : 4 a d f g 8 8 8 f T ^ T f d v Z Z C Z g * 2 a f f d f f f ",
"h f f d h h s 8 0 b Q Z Z C Q ~ n v C v v v h r 0 l b v g 7 d B C h d f l A l f f v l v C Q Z v v M m m m B D a a h l l l z x x ",
"h h f f f f 0 3 . g S C C C v f 8 v C c 0 8 1 - 0 0 q , = . 3 Q ^ w : 4 a d f g 8 8 8 f T ^ T f d v Z Z C Z g * 2 a f f d f f f ",
"h f f d h h s 8 0 b Q Z Z C Q ~ n v C v v v h r 0 l b v g 7 d B C h d f l A l f f v l v C Q Z v v M m m m B D a a h l l l z x x ",
"h h f f f f 0 3 . g S C C C v f 8 v C c 0 8 1 - 0 0 q , = . 3 Q ^ w : 4 a d f g 8 8 8 f T ^ T f d v Z Z C Z g * 2 a f f d f f f ",
"h f f d h h s 8 0 b Q Z Z C Q ~ n v C v v v h r 0 l b v g 7 d B C h d f l A l f f v l v C Q Z v v M m m m B D a a h l l l z x x ",
"h h f f f f 0 3 . g S C C C v f 8 v C c 0 8 1 - 0 0 q , = . 3 Q ^ w : 4 a d f g 8 8 8 f T ^ T f d v Z Z C Z g * 2 a f f d f f f ",
"h f f d h h s 8 0 b Q Z Z C Q ~ n v C v v v h r 0 l b v g 7 d B C h d f l A l f f v l v C Q Z v v M m m m B D a a h l l l z x x ",
"h h f f f f 0 3 . g S C C C v f 8 v C c 0 8 1 - 0 0 q , = . 3 Q ^ w : 4 a d f g 8 8 8 f T ^ T f d v Z Z C Z g * 2 a f f d f f f ",
"h f f d h h s 8 0 b Q Z Z C Q ~ n v C v v v h r 0 l b v g 7 d B C h d f l A l f f v l v C Q Z v v M m m m B D a a h l l l z x x ",
"h h f f f f 0 3 . g S C C C v f 8 v C c 0 8 1 - 0 0 q , = . 3 Q ^ w : 4 a d f g 8 8 8 f T ^ T f d v Z Z C Z g * 2 a f f d f f f ",
"h f f d h h s 8 0 b Q Z Z C Q ~ n v C v v v h r 0 l b v g 7 d B C h d f l A l f f v l v C Q Z v v M m m m B D a a h l l l z x x ",
"h h f f f f 0 3 . g S C C C v f 8 v C c 0 8 1 - 0 0 q , = . 3 Q ^ w : 4 a d f g 8 8 8 f T ^ T f d v Z Z C Z g * 2 a f f d f f f ",
"h f f d h h s 8 0 b Q Z Z C Q ~ n v C v v v h r 0 l b v g 7 d B C h d f l A l f f v l v C Q Z v v M m m m B D a a h l l l z x x ",
"h h f f f f 0 3 . g S C C C v f 8 v C c 0 8 1 - 0 0 q , = . 3 Q ^ w : 4 a d f g 8 8 8 f T ^ T f d v Z Z C Z g * 2 a f f d f f f ",
"h f f d h h s 8 0 b Q Z Z C Q ~ n v C v v v h r 0 l b v g 7 d B C h d f l A l f f v l v C Q Z v v M m m m B D a a h l l l z x x ",
"h h f f f f 0 3 . g S C C C v f 8 v C c 0 8 1 - 0 0 q , = . 3 Q ^ w : 4 a d f g 8 8 8 f T ^ T f d v Z Z C Z g * 2 a f f d f f f ",
"h f f d h h s 8 0 b Q Z Z C Q ~ n v C v v v h r 0 l b v g 7 d B C h d f l A l f f v l v C Q Z v v M m m m B D a a h l l l z x x ",
"h h f f f f 0 3 . g S C C C v f 8 v C c 0 8 1 - 0 0 q , = . 3 Q ^ w : 4 a d f g 8 8 8 f T ^ T f d v Z Z C Z g * 2 a f f d f f f "
};
