/* XPM */
static char *_42e6cc90f434a4bb7ad67c820479b5dzcRBhCtUjuLE4hlK[] = {
/* columns rows colors chars-per-pixel */
"40 40 12 1 ",
"  c black",
". c #4C2B1C",
"X c #6A0021",
"o c #6D3E29",
"O c #177B35",
"+ c #990030",
"@ c #9C5A3C",
"# c #22B14C",
"$ c #B28709",
"% c #A8E61D",
"& c #FFC20E",
"* c white",
/* pixels */
"%%%%%%%%%%%%%%%%%%%%%%%%%%%%%%%%%%%%%%%%",
"%%%%%%%%%%%%%%%%%%%%%%%%%%%%%%%%%%%%%%%%",
"%%%%%%%%%%%%%%%%%%%%%%%%%%%%%%%%%%%%%%%%",
"%%%%%%%%%%%%%%%%%%%%%%%%%%%%%%%%%%%%%%%%",
"%%%%%%%%%%%%%%%%@@@@@@@@%%%%%%%%%%%%%%%%",
"%%%%%%%%%%%%%%%@@@@@@@@@@%%%%%%%%%%%%%%%",
"%%%%%%%%%%%%%%@@@@oooo@@@@%%%%%%%%%%%%%%",
"%%%%%%%%%%%%%@@@oo&&&&oo@@@%%%%%%%%%%%%%",
"%%%%%%%%%%%%%@@o&* && *&o@@%%%%%%%%%%%%%",
"%%%%%%%%%%%%%@@o&&&&&&&&o@@%%%%%%%%%%%%%",
"%%%%%%%%%%%%%@@o&&&  &&&o@@%%%%%%%%%%%%%",
"%%%%%%%%%%%%%%%%%$&&&&$%%%%%%%%%%%%%%%%%",
"%%%%%%%%%%%%###O###&&###O###%%%%%%%%%%%%",
"%%%%%%%%%%%%###O########O###%%%%%%%%%%%%",
"%%%%%%%%%%%%&O#O########O#O&%%%%%%%%%%%%",
"%%%%%%%%%%%%&$#O########O#$&%%%%%%%%%%%%",
"%%%%%%%%%%%%&&#O########O#&&%%%%%%%%%%%%",
"%%%%%%%%%%%%&&#O########O#&&%%%%%%%%%%%%",
"%%%%%%%%%%%%&&#XXXXXXXXXX#&&%%%%%%%%%%%%",
"%%%%%%%%%%%%&&XX++++++++XX&&%%%%%%%%%%%%",
"%%%%%%%%%%%%&&X++++++++++X&&%%%%%%%%%%%%",
"%%%%%%%%%%%%&&X++++++++++X&&%%%%%%%%%%%%",
"%%%%%%%%%%%%%%X++++++++++X%%%%%%%%%%%%%%",
"%%%%%%%%%%%%%%X++++++++++X%%%%%%%%%%%%%%",
"%%%%%%%%%%%%%%X+++X  X+++X%%%%%%%%%%%%%%",
"%%%%%%%%%%%%%%X+++X  X+++X%%%%%%%%%%%%%%",
"%%%%%%%%%%%%%+++++X  X+++++%%%%%%%%%%%%%",
"%%%%%%%%%%%%%++XXXX  XXXX++%%%%%%%%%%%%%",
"%%%%%%%%%%%%%++Xooo  oooX++%%%%%%%%%%%%%",
"%%%%%%%%%%%%%%ooooo%%ooooo%%%%%%%%%%%%%%",
"%%%%%%%%%%%%%%.....%%.....%%%%%%%%%%%%%%",
"%%%%%%%%%%%%%%%%%%%%%%%%%%%%%%%%%%%%%%%%",
"%%%%%%%%%%%%%%%%%%%%%%%%%%%%%%%%%%%%%%%%",
"%%%%%%%%%%%%%%%%%%%%%%%%%%%%%%%%%%%%%%%%",
"%%%%%%%%%%%%%%%%%%%%%%%%%%%%%%%%%%%%%%%%",
"%%%%%%%%%%%%%%%%%%%%%%%%%%%%%%%%%%%%%%%%",
"%%%%%%%%%%%%%%%%%%%%%%%%%%%%%%%%%%%%%%%%",
"%%%%%%%%%%%%%%%%%%%%%%%%%%%%%%%%%%%%%%%%",
"%%%%%%%%%%%%%%%%%%%%%%%%%%%%%%%%%%%%%%%%",
"%%%%%%%%%%%%%%%%%%%%%%%%%%%%%%%%%%%%%%%%"
};
