/* XPM */
static char *c7bf76a845f44daac5d50dd53982efdfmO2zaLrnMmg57zZz[] = {
/* columns rows colors chars-per-pixel */
"40 40 10 1 ",
"  c black",
". c #6A0021",
"X c #6D3E29",
"o c #177B35",
"O c #990030",
"+ c #9C5A3C",
"@ c #22B14C",
"# c #A8E61D",
"$ c #FFC20E",
"% c white",
/* pixels */
"########################################",
"########################################",
"########################################",
"########################################",
"########################################",
"########################################",
"########################################",
"#################+++++X#################",
"#################++++++X################",
"#################$$++++X################",
"################# %$+++X################",
"################$$$$+++X################",
"#################$$$+++X################",
"#################$$$XXXX################",
"##################$$$$##################",
"#################@@@@@@#################",
"#################@@@@@@#################",
"#################@@@@@@#################",
"#################@@$$o@#################",
"#################@@$$o@#################",
"#################@@$$o@#################",
"#################@@$$o@#################",
"#################@@$$o@#################",
"#################@@$$o@#################",
"#################OO$$.O#################",
"#################OO$$.O#################",
"#################OO$$.O#################",
"#################OOOOOO#################",
"#################OOOOOO#################",
"#################OOOOOO#################",
"#################OO OOO#################",
"#################OO OOO#################",
"#################OO OO.#################",
"#################.. ...#################",
"################+XX++++#################",
"################++X+++X#################",
"################++++XXX#################",
"########################################",
"########################################",
"########################################"
};
