/* XPM */
static char *_e47744a2e5c431af415a541bc0251dcEeYYHyHiGEG85HfI[] = {
/* columns rows colors chars-per-pixel */
"40 40 10 1 ",
"  c black",
". c #6A0021",
"X c #6D3E29",
"o c #177B35",
"O c #990030",
"+ c #9C5A3C",
"@ c #22B14C",
"# c #A8E61D",
"$ c #FFC20E",
"% c white",
/* pixels */
"########################################",
"########################################",
"########################################",
"########################################",
"########################################",
"########################################",
"########################################",
"#################X+++++#################",
"################X++++++#################",
"################X++++$$#################",
"################X+++$% #################",
"################X+++$$$$################",
"################X+++$$$#################",
"################XXXX$$$#################",
"##################$$$$##################",
"#################@@@@@@#################",
"#################@@@@@@#################",
"#################@@@@@@#################",
"#################@o$$@@#################",
"#################@o$$@@#################",
"#################@o$$@@#################",
"#################@o$$@@#################",
"#################@o$$@@#################",
"#################@o$$@@#################",
"#################O.$$OO#################",
"#################O.$$OO#################",
"#################O.$$OO#################",
"#################OOOOOO#################",
"#################OOOOOO#################",
"#################OOOOOO#################",
"#################OOO OO#################",
"#################OOO OO#################",
"#################.OO OO#################",
"#################... ..#################",
"#################++++XX+################",
"#################X+++X++################",
"#################XXX++++################",
"########################################",
"########################################",
"########################################"
};
