/* XPM */
static char *_bed0d22ad4f4970d31afee8ed60d1a9g3BddVmgxYeNEJ1c[] = {
/* columns rows colors chars-per-pixel */
"40 40 16 1 ",
"  c black",
". c #4A0017",
"X c #4C2B1C",
"o c #6A0021",
"O c #6D3E29",
"+ c #105625",
"@ c #177B35",
"# c #7C5E06",
"$ c #516F0D",
"% c #990030",
"& c #9C5A3C",
"* c #75A014",
"= c #22B14C",
"- c #B28709",
"; c #A8E61D",
": c #FFC20E",
/* pixels */
";;;;;;;;;;;;;;;;;;;;;;;;;;;;;;;;;;;;;;;;",
";;;;;;;;;;;;;&&&&&&&&&&&&&&;;;;;;;;;;;;;",
";;;;;;;;;;;;&&&&&&&&&&&&&&&&;;;;;;;;;;;;",
";;;;;;;;;;;;&&&OOOOXXOOOO&&&;;;;;;;;;;;;",
";;;;;;;;;;;&&OOOOOXXXXOOOOO&&;;;;;;;;;;;",
";;;;;;;;;;;&OOOOOXXXXXXOOOOO&;;;;;;;;;;;",
";;;;;;;;;;;&OOOXXXXXXXXXXOOO&;;;;;;;;;;;",
";;;;;;;;;;;&OOOXXXXXXXXXXOOO&;;;;;;;;;;;",
";;;;;;;;;;;;&OOXXXXXXXXXXOO&;;;;;;;;;;;;",
";;;;;;;;;;;;;;;;;-::::-;;;;;;;;;;;;;;;;;",
";;;;;;;;====@=@@@@::::@@@@=@====;;;;;;;;",
";;;;;;;;====@=@@@@++++@@@@=@====;;;;;;;;",
";;;;;;;;:-==@==@@@++++@@@==@==-:;;;;;;;;",
";;;;;;;;:-#=@==@@@@++@@@@==@=#-:;;;;;;;;",
";;;;;;;;:-#=@==@@@++++@@@==@=#-:;;;;;;;;",
";;;;;;;;:-#=@=@@@@++++@@@@=@=#-:;;;;;;;;",
";;;;;;;;:-#=@=@@@@++++@@@@=@=#-:;;;;;;;;",
";;;;;;;;:-#=@=@+@++++++@+@=@=#-:;;;;;;;;",
";;;;;;;;:-#=@=@@@++++++@@@=@=#-:;;;;;;;;",
";;;;;;;;:--=@=@@++++++++@@=@=--:;;;;;;;;",
";;;;;;;;;;;=@=@@@@++++@@@@=@=;;;;;;;;;;;",
";;;;;;;;;;;%%ooooo....ooooo%%;;;;;;;;;;;",
";;;;;;;;;;;%%ooo........ooo%%;;;;;;;;;;;",
";;;;;;;;;;;%%ooo........ooo%%;;;;;;;;;;;",
";;;;;;;;;;;%%oooo......oooo%%;;;;;;;;;;;",
";;;;;;;;;;;%%oooo......oooo%%;;;;;;;;;;;",
";;;;;;;;;;ooooooo......ooooooo;;;;;;;;;;",
";;;;;;;;;;ooooooo..  ..ooooooo;;;;;;;;;;",
";;;;;;;;;;ooooooo..  ..ooooooo;;;;;;;;;;",
";;;;;;;;;;ooooooo..  ..ooooooo;;;;;;;;;;",
";;;;;;;;;;ooooooo..  ..ooooooo;;;;;;;;;;",
";;;;;;;;;;ooooooo..  ..ooooooo;;;;;;;;;;",
";;;;;;;;;;&oooooo.X  X.oooooo&;;;;;;;;;;",
";;;;;;;;;;&OOOOOOOO  OOOOOOOO&;;;;;;;;;;",
";;;;;;;;;;&&OOOOOOO$$OOOOOOO&&;;;;;;;;;;",
";;;;;;;;;;*&&OOOOOO$$OOOOOO&&*;;;;;;;;;;",
";;;;;;;;;;*********$$*********;;;;;;;;;;",
";;;;;;;;;;;;;;;**********;;;;;;;;;;;;;;;",
";;;;;;;;;;;;;;;;;;;;;;;;;;;;;;;;;;;;;;;;",
";;;;;;;;;;;;;;;;;;;;;;;;;;;;;;;;;;;;;;;;"
};
