/* XPM */
static char *e4c29f4fc5bd4f90aeb8500f0965cd57x02qJ8p7SUJ2ebHh[] = {
/* columns rows colors chars-per-pixel */
"40 40 21 1 ",
"  c None",
". c black",
"X c #080806",
"o c #4C2B1C",
"O c #6D3E29",
"+ c #105625",
"@ c #177B35",
"# c #516F0D",
"$ c #5E732E",
"% c gray30",
"& c #B25800",
"* c #9C5A3C",
"= c #FF7E00",
"- c #75A014",
"; c #A8E61D",
": c #AB9F6D",
"> c #A09A82",
", c #C4BC99",
"< c #F5E49C",
"1 c #D6D0B7",
"2 c #F8F7F2",
/* pixels */
"                                        ",
"                                        ",
"                                        ",
"                                        ",
"                                        ",
"                                        ",
"                                        ",
"          ....................          ",
"          .******************.          ",
"          .*OOOooooooooooOOO*.          ",
"          .*OO............OO*.          ",
"          .*O.<<%%%<<%%%<<.O*.          ",
"          .*O.<<<..<<..<<<.O*.          ",
"          .*O.<<<2.<<.2<<<.O*.          ",
"          .*O.<<<<<<<<<<<<.O*.          ",
"          .**O.<<<<XX<<<<.O**.          ",
"          ..*OO..,<<<<,..OO*..          ",
"           ..**O.>1111>.O**..           ",
"           ....O%>>>>>>%O....           ",
"         ..::..............::..         ",
"        ..:<<.++@@++++@@++.<<:..        ",
"        .:<<<.+@@@@++@@@@+.<<<:.        ",
"        .:<<..+@@@@@@@@@@+..<<:.        ",
"        .::. .@@@@@--@@@@@. .::.        ",
"         ... .@#-;;;;;;-#@. ...         ",
"             .-;;;$$$$;;;-.             ",
"             .&&&&....&&&&.             ",
"             .===&.  .&===.             ",
"             .===&.  .&===.             ",
"             .<<<<.  .<<<<.             ",
"             .<<<<.  .<<<<.             ",
"              ....    ....              ",
"                                        ",
"                                        ",
"                                        ",
"                                        ",
"                                        ",
"                                        ",
"                                        ",
"                                        "
};
