/* XPM */
static char *_7a780e3d8bd4bccdf1329f898b6bbe0PZK93EpSvQWbUJrE[] = {
/* columns rows colors chars-per-pixel */
"96 79 165 2 ",
"   c None",
".  c #010101",
"X  c #060D00",
"o  c #0D0C0B",
"O  c #1D0001",
"+  c #150909",
"@  c #0C1C01",
"#  c #131211",
"$  c #191819",
"%  c #240404",
"&  c #2B0000",
"*  c #2D0E0D",
"=  c #260F0D",
"-  c #320303",
";  c #3E0404",
":  c #300806",
">  c #3E0D06",
",  c #340C0B",
"<  c #3B0E0C",
"1  c #2B1A0B",
"2  c #29110F",
"3  c #35110E",
"4  c #3C110D",
"5  c #3C1A09",
"6  c #3D1607",
"7  c #2D0D11",
"8  c #270E10",
"9  c #310E12",
"0  c #3B0D11",
"q  c #201D1D",
"w  c #2A1313",
"e  c #341114",
"r  c #3A1211",
"t  c #3B1817",
"y  c #193A02",
"u  c #163201",
"i  c #132B01",
"p  c #3A2502",
"a  c #30360C",
"s  c #2B291D",
"d  c #2F1F26",
"f  c #391521",
"g  c #231937",
"h  c #2F2423",
"j  c #282828",
"k  c #202020",
"l  c #312A29",
"z  c #322225",
"x  c #373433",
"c  c #540605",
"v  c #40100D",
"b  c #40190B",
"n  c #410C15",
"m  c #461912",
"M  c #421114",
"N  c #57151B",
"B  c #492F02",
"V  c #583803",
"C  c #543502",
"Z  c #472510",
"A  c #50211B",
"S  c #4A3010",
"D  c #441927",
"F  c #711327",
"G  c #4A2523",
"H  c #462221",
"J  c #593935",
"K  c #403636",
"L  c #63393C",
"P  c #265803",
"I  c #235002",
"U  c #35431C",
"Y  c #2D6703",
"T  c #337604",
"R  c #367D04",
"E  c #3C6A13",
"W  c #385120",
"Q  c #674303",
"!  c #774D04",
"~  c #6A5804",
"^  c #7A6805",
"/  c #481A41",
"(  c #452978",
")  c #474340",
"_  c #5C4747",
"`  c #5C5D5C",
"'  c #634847",
"]  c #665A5B",
"[  c #8C1234",
"{  c #835504",
"}  c #966105",
"|  c #9A6806",
" . c #8C6E06",
".. c #A16806",
"X. c #AC7607",
"o. c #B27407",
"O. c #C17E08",
"+. c #3A8505",
"@. c #409405",
"#. c #429A05",
"$. c #4BA706",
"%. c #4CB307",
"&. c #4FB907",
"*. c #50BC07",
"=. c #50B208",
"-. c #52C108",
";. c #5CD90A",
":. c #64EE0B",
">. c #60905C",
",. c #D38A09",
"<. c #DF920A",
"1. c #E1940B",
"2. c #F4A315",
"3. c #A6817E",
"4. c #581C84",
"5. c #482485",
"6. c #47238A",
"7. c #4B268F",
"8. c #592386",
"9. c #5C2B84",
"0. c #562484",
"q. c #612A86",
"w. c #622A93",
"e. c #633087",
"r. c #5A1CA2",
"t. c #667883",
"y. c #6A56B1",
"u. c #7165B1",
"i. c #7037C1",
"p. c #6C1EFF",
"a. c #7125FF",
"s. c #762DFF",
"d. c #7B35FF",
"f. c #7E39FF",
"g. c #8334BE",
"h. c #8D4FBD",
"j. c #8850B4",
"k. c #915BB8",
"l. c #9769BB",
"z. c #803CFF",
"x. c #8243ED",
"c. c #925CEF",
"v. c #8544FE",
"b. c #8A4BFF",
"n. c #8E53FD",
"m. c #945AFF",
"M. c #9A69EF",
"N. c #9763EF",
"B. c #A478EF",
"V. c #A26DF8",
"C. c #A478F1",
"Z. c #9CC480",
"A. c #C0DBAF",
"S. c #C9EDB1",
"D. c #C7E6B1",
"F. c #CCF4B1",
"G. c #AB84F0",
"H. c #BD93F5",
"J. c #C1A6D7",
"K. c #C49EF2",
"L. c #C7A6F7",
"P. c #CAB2F5",
"I. c #DFEDD7",
"U. c #FAEBEB",
"Y. c white",
/* pixels */
"                                                                                                                                                                                                ",
"                                                                                                                                                                                                ",
"                                                                                                                                                                                                ",
"                                                                                                                                                                                                ",
"                                                                                                                                                                                                ",
"                                                                                                                                                                                                ",
"                                                                                                                                                                                                ",
"                                                                    h h O O O O O O O O O O O O O O O O O h h ) ) )                                                                             ",
"                                                                    h h O O O O O O O O O O O O O O O O O h h ) ) )                                                                             ",
"                                                                    h h O O O O O O O O O O O O O O O O O h h ) ) )                                                                             ",
"                                                              ` ` ` < < v v v v v v v v v v v v v v v v v < < < < <                                                                             ",
"                                                              ` ` ` < < 4 4 v v v v v v v v v v v v v v v < < < < <                                                                             ",
"                                                              < < < r r 4 4 4 4 4 4 v v v v v v v v v v v v v v v v < <                                                                         ",
"                                                              < < < r r 4 4 4 4 4 4 4 v v v v v v v v v v v v v v v < <                                                                         ",
"                                                    J J J G G r r r t t 5 6 < 4 4 4 4 v v v v v > > v v v v v v v v 0 0 L L                                                                     ",
"                                                    J J J G G r r r t t 5 5 < 4 4 4 4 v v v v v > > v v v v v v v v 0 0 L L                                                                     ",
"                                                    J J J G G r r r t t 5 5 4 4 4 4 4 v v v v v > > v v v v v v v v 0 0 L L                                                                     ",
"                                                    4 4 4 4 4 r r r / / 6 6 4 4 4 4 4 v v v v v < < v v v 4 < 4 v v v r M M ] ] ]                                                               ",
"                                                    4 4 4 4 4 r r r / / 6 6 4 4 4 4 4 v v v v v < < v v v 4 4 v v v r r M M ] ] ]                                                               ",
"                                                t t 3 3 3 < < < < < s.s.; ; 5 5 5 5 5 5 5 5 5 5 n n v v v 6 6 5 5 5 5 5 n n - - -                                                               ",
"                                                t t 3 3 3 < < < < < s.s.; ; 5 5 5 5 5 5 5 5 5 5 n n v v v 6 b 5 5 5 5 5 n n - - -                                                               ",
"                                                t t 3 3 3 < < < < < s.s.; ; 5 5 5 5 5 5 5 5 5 5 n n v v v 6 b 5 5 5 5 5 n n - - -                                                               ",
"                                                & & 4 4 4 8.8.s.s.s.s.s.s.s.; ; ; 4.4.s.s.s.p.p.5 5 5 5 5 5 5 5 5 5 5 5 5 5 - - -                                                               ",
"                                                & & 4 4 4 8.8.s.s.s.s.s.s.s.; ; ; 4.4.s.s.s.p.p.5 5 5 5 5 5 5 5 5 5 5 5 5 5 - - -                                                               ",
"                                                : : m m m q.q.z.f.z.p.p.s.s.s.s.s.d.d.z.z.z.z.z.s.s.s.s.s.s.s.s.s.s.s.s.5 5 0 0 0 9 9 9 9 9                                                     ",
"                                                : : m m m q.q.z.z.z.p.p.s.s.s.s.s.d.d.z.z.z.z.z.s.s.s.s.s.s.s.s.s.s.s.s.5 5 0 0 0 9 9 9 9 9                                                     ",
"                                            ] ] , , b b b q.q.z.z.z.K.K.( ( d.d.d.z.z.v.v.v.v.v.( ( L.L.L.V.V.d.d.d.d.d.r.r.7 7 7 7 7 9 9 9                                                     ",
"                                            ] ] , , b b b q.q.z.z.z.K.K.( ( d.d.d.z.z.v.v.v.v.v.( ( L.L.L.V.V.d.d.d.d.d.r.r.7 7 7 7 7 9 9 9                                                     ",
"                                            ] ] , , b b b q.q.z.z.z.K.K.( ( d.d.d.z.z.v.v.v.v.v.( ( L.L.L.V.V.d.d.d.d.d.r.r.7 7 7 7 7 9 9 9                                                     ",
"                                            % % 4 4 5 5 5 9.9.z.z.z.U.U.j j z.z.z.v.v.b.b.b.b.b.j j U.U.U.H.H.z.z.z.z.z.p.p.8 8 8 7 7 e e e                                                     ",
"                                            % % 4 4 5 5 5 9.9.z.z.z.U.U.j j z.z.z.v.v.b.b.b.b.b.j j U.U.U.H.H.z.z.z.z.z.p.p.8 8 8 7 7 e e e                                                     ",
"                                            % % 4 4 D D D w.w.z.z.z.Y.Y.$ $ z.z.z.v.v.v.v.v.n.n.o o Y.Y.Y.L.L.b.b.b.b.b.s.s.< < < r r e e e                                                     ",
"                                            % % 4 4 D D D w.w.z.z.z.Y.Y.$ $ z.z.z.v.v.v.v.v.n.n.o o Y.Y.Y.L.L.b.b.b.b.b.s.s.< < < r r e e e                                                     ",
"                                            % % 4 4 D D D w.w.z.z.z.Y.Y.$ $ z.z.z.v.v.v.v.v.n.n.o o Y.Y.Y.L.L.b.b.b.b.b.s.s.< < < r r e e e                                                     ",
"                                            % % r r Z Z Z e.e.z.z.z.z.z.z.z.a.a.a.s.s.d.d.d.d.d.f.f.m.m.m.n.n.b.b.b.s.s.< < 4 4 4 r r e e e                                                     ",
"                                            % % r r Z Z Z e.e.z.z.z.z.z.z.z.a.a.a.s.s.d.d.d.d.d.f.f.m.m.m.n.n.b.b.b.s.s.< < 4 4 4 r r e e e                                                     ",
"                                            % % 3 3 3 3 3 4.4.s.s.s.b.b.b.b.# # # # # $ $ $ k k b.b.b.b.b.b.b.b.b.b.3 3 r r 4 4 4 3 3 * * *                                                     ",
"                                            % % 3 3 3 3 3 4.4.s.s.s.b.b.b.b.# # # # # $ $ $ k k b.b.b.b.b.b.b.b.b.b.3 3 r r 4 4 4 3 3 * * *                                                     ",
"                                                : : 3 3 3 8.8.d.d.d.v.v.v.v.5.5.5.6.6.6.6.6.7.7.z.z.v.v.v.i.i.9.9.9.4 4 5 5 , , , ' '                                                           ",
"                                                : : 3 3 3 8.8.d.d.d.v.v.v.v.5.5.5.6.6.6.6.6.7.7.z.z.v.v.v.i.i.9.9.9.4 4 5 5 , , , ' '                                                           ",
"                                                : : 3 3 3 8.8.d.d.d.v.v.v.v.5.5.5.6.6.6.6.6.7.7.z.z.v.v.v.i.i.9.9.9.4 4 5 5 , , , ' '                                                           ",
"                                                & & 3 3 3 8.8.z.z.z.z.z.f.f.z.z.z.d.d.s.s.s.s.s.s.s.z.z.f.0.0.* * * 4 4 5 5 % % %                                                               ",
"                                                & & 3 3 3 8.8.z.z.z.z.z.f.f.z.z.z.d.d.s.s.s.s.s.s.s.z.z.z.0.0.* * * 4 4 5 5 % % %                                                               ",
"                                                    3 3 3 3 3 3 3 3 5 5 a.a.d.d.d.f.f.z.z.z.z.z.z.z.1 1 1 3 3 3 3 3 5 5 , , , , ,                                                               ",
"                                                    3 3 3 3 3 3 3 3 5 5 a.a.d.d.d.f.d.z.z.z.z.z.z.z.1 1 1 3 3 3 3 4 5 5 , , , , ,                                                               ",
"                                                    3 3 3 3 3 3 3 3 5 5 a.a.d.d.d.f.d.z.z.z.z.z.z.z.1 1 1 3 3 3 3 4 5 5 , , , , ,                                                               ",
"                                                              + + + f f f f + + + 5.5.z.f.z.s.s.s.s.> > > t t h h h , , , ,                                                                     ",
"                                                              + + + f f f f + + + 5.5.z.z.z.s.s.s.s.> > > t t h h h , , , ,                                                                     ",
"                                                                    7 7 z z %.%.%.t.t.z.z.z.f.f.s.s.$.$.$.E E d d d z z                                                                         ",
"                                                                    7 7 z z %.%.%.t.t.z.z.z.f.f.s.s.$.$.$.E E h d h d d                                                                         ",
"                                                    F.F.F.S.S.S.S.S.a a W W *.*.*.>.>.u.u.u.u.u.y.y.#.#.#.E E U U U s s D.D.A.A.A.I.I.                                                          ",
"                                                    F.F.F.S.S.S.S.S.a a W W *.*.*.>.>.u.u.u.u.u.y.y.#.#.#.E E U U U s s D.D.A.A.A.I.I.                                                          ",
"                                                    F.F.F.S.S.S.S.S.a a W W *.*.*.>.>.u.u.u.u.u.y.y.#.#.#.E E U U U s s D.D.A.A.A.I.I.                                                          ",
"                                                    ;.;.;.;.;.-.-.-.@.@.%.%.%.%.%.&.&.-.-.-.-.-.=.=.Y Y Y R R @.@.@.y y %.%.@.@.@.Z.Z.                                                          ",
"                                                    ;.;.;.;.;.-.-.-.@.@.%.%.%.%.%.&.&.-.-.-.-.-.=.=.Y Y Y R R @.@.@.y y %.%.@.@.@.Z.Z.                                                          ",
"                                                    :.:.:.%.%.T T T Y Y -.-.%.%.%.T T y y y -.-.@.@.P P P u u X X X @ @ -.-.+.+.+.Z.Z.                                                          ",
"                                                    :.:.:.%.%.T T T Y Y -.-.%.%.%.T T y y y -.-.@.@.P P P u u X X X @ @ -.-.+.+.+.Z.Z.                                                          ",
"                                                    :.:.:.%.%.T T T Y Y -.-.%.%.%.T T y y y -.-.@.@.P P P u u X X X @ @ -.-.+.+.+.Z.Z.                                                          ",
"                                                    N N N F F [ [ [ i i . . @.@.@.+.+.T T T +.+.y y y y y I I Y Y Y g g c c c c c 3.3.                                                          ",
"                                                    N N N F F [ [ [ i i . . @.@.@.+.+.T T T +.+.y y y y y I I Y Y Y g g c c c c c 3.3.                                                          ",
"                                                    l.l.l.h.h.g.g.g.X.X.V V ^ ^ ^ ^ ^ ~ ~ ~  . .X.X.| | |  . .~ ~ ~ S S k.k.j.j.j.J.J.                                                          ",
"                                                    l.l.l.h.h.g.g.g.X.X.V V ^ ^ ^ ^ ^ ~ ~ ~  . .X.X.| | |  . .~ ~ ~ S S k.k.j.j.j.J.J.                                                          ",
"                                                    G.G.G.N.N.x.x.x.1.1.{ { } } } { { ! ! ! X.X.,.,.O.O.O.....{ { { C C C.C.M.M.M.P.P.                                                          ",
"                                                    G.G.G.N.N.x.x.x.1.1.{ { } } } { { ! ! ! X.X.,.,.O.O.O.....{ { { C C C.C.M.M.M.P.P.                                                          ",
"                                                    G.G.G.N.N.x.x.x.1.1.{ { } } } { { ! ! ! X.X.,.,.O.O.O.....{ { { C C C.C.M.M.M.P.P.                                                          ",
"                                                    B.B.B.M.M.c.c.c.2.2.,.,.o.o.o.} } { { { { { } } O.O.O.} } Q Q Q p p C.C.c.c.c.P.P.                                                          ",
"                                                    B.B.B.M.M.c.c.c.2.2.,.,.o.o.o.} } { { { { { } } O.O.O.} } Q Q Q p p C.C.c.c.c.P.P.                                                          ",
"                                                                    <.<.B B p p p 1 1 $ $ $ o o . . V V V } } <.<.<.Q Q                                                                         ",
"                                                                    <.<.B B p p p 1 1 $ $ $ o o . . V V V } } <.<.<.Q Q                                                                         ",
"                                                                    <.<.B B p p p 1 1 $ $ $ o o . . V V V } } <.<.<.Q Q                                                                         ",
"                                                                    ; ; > > v v v w w $ $ $     < < < < < , , , , , : :                                                                         ",
"                                                                    ; ; > > v v v w w $ $ $     < < < < < , , , , , : :                                                                         ",
"                                                                    G G , , 4 < 4 2 2 # # #     m m < < < t t H H H w w                                                                         ",
"                                                                    G G , , 4 4 4 2 2 # # #     m m < < < t t H H H w w                                                                         ",
"                                                                    _ _ , , 4 4 4 = = o o o     A A < < 4 H G J J J q q                                                                         ",
"                                                                    _ _ , , 4 4 4 = = o o o     A A < < 4 G G J J J q q                                                                         ",
"                                                                    _ _ , , 4 4 4 = = o o o     A A < < < H H J J J q $                                                                         ",
"                                                                    x x l l l l l q q # # #     K K . . . . . o o o $ $                                                                         ",
"                                                                    x x l l l l l q q # # #     K K . . . . . o o o $ $                                                                         "
};
