/* XPM */
static char *cf2791574a484458996e8956f8af38de1pNktfuWU3a5DIkn[] = {
/* columns rows colors chars-per-pixel */
"64 64 197 2 ",
"   c None",
".  c #030302",
"X  c #070E00",
"o  c #0D0D0C",
"O  c #1C0001",
"+  c #1D0909",
"@  c #160A09",
"#  c #0C1C01",
"$  c #191919",
"%  c #181415",
"&  c #230403",
"*  c #2A0404",
"=  c #230C0B",
"-  c #2B0C0B",
";  c #320302",
":  c #340C0B",
">  c #3B0E0C",
",  c #390805",
"<  c #2C180C",
"1  c #35110E",
"2  c #3D120D",
"3  c #3D1A09",
"4  c #3D1507",
"5  c #2D0D10",
"6  c #270E10",
"7  c #310E12",
"8  c #3B0D11",
"9  c #2B1411",
"0  c #241B1A",
"q  c #341214",
"w  c #3B1212",
"e  c #391816",
"r  c #193A02",
"t  c #163201",
"y  c #132B01",
"u  c #3C2702",
"i  c #30360C",
"p  c #2E301D",
"a  c #1C1824",
"s  c #2A1E29",
"d  c #3A1527",
"f  c #231937",
"g  c #2C2625",
"h  c #312628",
"j  c #393433",
"k  c #2A223A",
"l  c #540604",
"z  c #40100D",
"x  c #41190B",
"c  c #411605",
"v  c #410C14",
"b  c #421D1E",
"n  c #441513",
"m  c #57151B",
"M  c #583904",
"N  c #492317",
"B  c #502B0B",
"V  c #622706",
"C  c #623F03",
"Z  c #470C2F",
"A  c #441927",
"S  c #421729",
"D  c #441632",
"F  c #492725",
"G  c #542C2B",
"H  c #413F3C",
"J  c #583834",
"K  c #4C322F",
"L  c #63393C",
"P  c #711327",
"I  c #1C4002",
"U  c #214C03",
"Y  c #275904",
"T  c #35421C",
"R  c #2D6703",
"E  c #2F6D03",
"W  c #337604",
"Q  c #367C04",
"!  c #3C6B13",
"~  c #385120",
"^  c #674406",
"/  c #754C05",
"(  c #6A5705",
")  c #785404",
"_  c #786604",
"`  c #2B1B48",
"'  c #2E2245",
"]  c #481A41",
"[  c #472B7A",
"{  c #532572",
"}  c #5C5D5C",
"|  c #554645",
" . c #66595A",
".. c #634847",
"X. c #8C1234",
"o. c #8C5B05",
"O. c #835504",
"+. c #8A6405",
"@. c #966205",
"#. c #9B6506",
"$. c #976A06",
"%. c #927706",
"&. c #A66C06",
"*. c #A77707",
"=. c #B47507",
"-. c #B37A07",
";. c #C17E08",
":. c #3A8505",
">. c #3D8D05",
",. c #3F9305",
"<. c #408D09",
"1. c #409405",
"2. c #449807",
"3. c #4BAA08",
"4. c #4CB307",
"5. c #4FB907",
"6. c #51BD08",
"7. c #50B907",
"8. c #52C108",
"9. c #5CDA0A",
"0. c #64EE0B",
"q. c #60905C",
"w. c #CA8609",
"e. c #DF920A",
"r. c #D48B09",
"t. c #E7990F",
"y. c #F4A315",
"u. c #A6817E",
"i. c #571B83",
"p. c #492687",
"a. c #592385",
"s. c #5A2685",
"d. c #55269A",
"f. c #5B3899",
"g. c #612A86",
"h. c #622A93",
"j. c #613E9F",
"k. c #633087",
"l. c #5A1DA2",
"z. c #6637BC",
"x. c #6C7298",
"c. c #667883",
"v. c #7153A6",
"b. c #6E5EB1",
"n. c #6953AA",
"m. c #7165B1",
"M. c #694D99",
"N. c #6B32CA",
"B. c #723AC3",
"V. c #692CDB",
"C. c #6D27D7",
"Z. c #6E35D7",
"A. c #7036DD",
"S. c #672ECA",
"D. c #6C1EFF",
"F. c #7738E8",
"G. c #762DFF",
"H. c #742BFB",
"J. c #7B35FF",
"K. c #7E3AFF",
"L. c #7C3AF5",
"P. c #7C46DD",
"I. c #8334BE",
"U. c #8850B4",
"Y. c #8F55BB",
"T. c #936EB5",
"R. c #823DDB",
"E. c #803CFF",
"W. c #935EDA",
"Q. c #9D6EDD",
"!. c #A47ADC",
"~. c #8243EC",
"^. c #925CEF",
"/. c #8444FE",
"(. c #8A4AFF",
"). c #8748FC",
"_. c #8E53FD",
"`. c #9359FF",
"'. c #9967EF",
"]. c #A579EF",
"[. c #A26DF8",
"{. c #A478F1",
"}. c #9BC480",
"|. c #C0DBAF",
" X c #C9ECB1",
".X c #C7E6B1",
"XX c #CCF4B1",
"oX c #AB84F0",
"OX c #BD93F4",
"+X c #C1A6D7",
"@X c #C49EF2",
"#X c #C6A6F8",
"$X c #C9B0F0",
"%X c #DFEDD7",
"&X c white",
"*X c #F4E8F5",
"=X c #E9D3EE",
/* pixels */
"                                                                                                                                ",
"                                                                                                                                ",
"                                                                                                                                ",
"                                                                                                                                ",
"                                                                                                                                ",
"                                                                                                                                ",
"                                                                                                                                ",
"                                                                                                                                ",
"                                                                                                                                ",
"                                                  g O O O O O O O O O O = 0 H j                                                 ",
"                                                  g O O O O O O O O O O = h | H                                                 ",
"                                              } } > 2 z z z z z z z z z > > > :                                                 ",
"                                              F F w 2 2 2 2 z z z z z z z > > > =                                               ",
"                                              > > w 2 2 2 2 z z z z z z z z z 2 >                                               ",
"                                        J J F w w w 3 2 2 2 z z z z , z z z z z 8 L                                             ",
"                                        G G b w w A 4 2 2 2 z z z z > z z z z 2 8 G                                             ",
"                                        2 2 2 w w ] 4 2 2 2 2 z z z > z z 2 2 2 w n  . .                                        ",
"                                      e 1 1 > : : G., 3 3 3 3 3 3 w v z z 4 3 3 3 v ; ;                                         ",
"                                      e 1 2 w S D G.Z 4 3 b b A D n v z z 4 3 3 3 z ; ;                                         ",
"                                      * 2 2 a.G.G.G.G.Z , i.C.G.D.i.3 3 3 3 3 3 3 3 ; ;                                         ",
"                                      ; n n g.E.E.D.G.G.G.J.K.E.E.J.G.G.G.G.G.G.G.3 8 8 7 7 7                                   ",
"                                     .: x x g.E.E.@X[ F.J.E./././.z.[ #XOX[.J.J.J.l.5 5 5 7 7                                   ",
"                                     .: x x g.E.E.@X[ F.J.E./././.z.[ #XOX[.J.J.J.l.5 5 5 7 7                                   ",
"                                    & 2 3 3 s.E.E.*Xg F.E./.(.(.(.f.g *X=XOXE.K.E.D.6 6 5 q q                                   ",
"                                    & 2 A A h.E.K.&X$ Z.E./././._.p.% &X*X#X(.(.(.G.> > q q q                                   ",
"                                    & 2 A A h.E.E.&X$ F.E./././._.p.o &X*X#X(.(.(.G.> > q q q                                   ",
"                                    & w N N k.E.E.E.E.H.H.G.J.J.J.K.E.`.`._.(./.G.: 2 2 w q q                                   ",
"                                    & 1 2 2 a.G.G.(.(.` $ f a f k f.(.(.(.(.(.P.d w 2 2 1 5 -                                   ",
"                                    O : 1 1 a.G.G.(.(.` f f f f ' f.).(.).~.P.B.1 2 > > b + =                                   ",
"                                      ; 1 1 a.J.J././.d.p.p.p.p.p.S.E./.F.B.s.{ 2 3 : : ..                                      ",
"                                      * 1 1 s.K.K.E.E.A.A.V.V.V.V.H.J.E.F.d.d d 2 3 * *                                         ",
"                                      & 1 1 s.F.F.L.K.E.K.J.G.G.G.G.G.F.N.{ - - 2 3 * *                                         ",
"                                        1 1 1 1 1 3 H.J.J.K.K.E.E.K.L.< < 1 > 2 3 : : :                                         ",
"                                        = + = - - e l.d.d.S.L.E.J.J.J.1 1 1 q q 1 : + +                                         ",
"                                              + + d d @ @ p.Z.E.G.G.H., 1 e g g : :                                             ",
"                                                  5 h 3.4.c.P.E.K.J.G.3.2.! s g h                                               ",
"                                        XXXX X X Xi ~ 4.6.q.x.m.m.b.n.2.<.! T T p .X|.|.%X                                      ",
"                                        XXXX X X Xi ~ 3.6.q.x.m.m.b.n.2.<.! T T p .X|.|.%X                                      ",
"                                        9.9.9.8.8.1.4.4.4.5.6.8.8.7.4.R E Q 1.>.r 4.1.1.}.                                      ",
"                                        0.0.4.W W R 8.4.4.W U r 6.3.,.Y U t X X # 8.:.:.}.                                      ",
"                                        0.0.4.W W R 8.4.4.W U r 6.3.,.Y U t X X # 8.:.:.}.                                      ",
"                                        m m P X.X.y . :.1.:.Q W :.Y r r I U R Y f l l l u.                                      ",
"                                        T.T.Y.I.I.*.M _ _ _ ( ( %.*.-.$.$.+.( ( B Y.U.U.+X                                      ",
"                                        !.!.W.R.R.r./ +.+.) ) / *.-.w.-.*.@.) ) B Q.W.W.$X                                      ",
"                                        oXoX'.~.~.e.O.@.@.O.) / &.;.r.;.=.&.O./ M {.'.'.$X                                      ",
"                                        ].].'.^.^.y.w.=.=.#.o.O.o.o.#.;.=.@.^ C u {.^.^.$X                                      ",
"                                        v.M.n.j.f.t.#.o.o./ ^ ^ M ^ M #.#.@.o.o.B v.f.j.T.                                      ",
"                                                  e.B u u < $ $ o . . M ^ #.e.w.^                                               ",
"                                                  V c 4 4 9 0 $   @ - x x B V V c                                               ",
"                                                  , , > > 9 0 $   + > > : : : : :                                               ",
"                                                  F : > 2 9 % %   = n > w e F A 9                                               ",
"                                                  ..: 2 2 = @ o   9 N > w F J K 0                                               ",
"                                                  ..: 2 2 = @ o   9 N > w N J K 0                                               ",
"                                                  j h h h 0 % o   0 j . . . o o $                                               ",
"                                                                                                                                ",
"                                                                                                                                ",
"                                                                                                                                ",
"                                                                                                                                ",
"                                                                                                                                ",
"                                                                                                                                ",
"                                                                                                                                ",
"                                                                                                                                ",
"                                                                                                                                ",
"                                                                                                                                "
};
