/* XPM */
static char *_5f8258dc43b4902c97401fa847f5a8b0ijkfhwk8QPIz6pe[] = {
/* columns rows colors chars-per-pixel */
"40 40 86 1 ",
"  c #4C2B1C",
". c #6D3E29",
"X c #115625",
"o c #115B26",
"O c #12632A",
"+ c #14692D",
"@ c #187432",
"# c #177B35",
"$ c #1A7D35",
"% c #516F0D",
"& c #6D4229",
"* c #73412B",
"= c #7B462E",
"- c #724A29",
"; c #7E482F",
": c #755527",
"> c #A51319",
", c #ED1C24",
"< c #824A30",
"1 c #8F5236",
"2 c #915336",
"3 c #965639",
"4 c #985739",
"5 c #9B593B",
"6 c #1B8236",
"7 c #1F8837",
"8 c #198439",
"9 c #1A8D3C",
"0 c #1B913E",
"q c #218534",
"w c #248934",
"e c #2A8C32",
"r c #208938",
"t c #329131",
"y c #76A114",
"u c #79A614",
"i c #7DAB15",
"p c #7FB016",
"a c #1B9540",
"s c #1C9A42",
"d c #1FA546",
"f c #1FA748",
"g c #1FAB49",
"h c #21A748",
"j c #21AC4A",
"k c #22B14C",
"l c #80AF16",
"z c #82B216",
"x c #8ABD17",
"c c #8BBF18",
"v c #8DC318",
"b c #95CC19",
"n c #9BCC1C",
"m c #96D21B",
"M c #9BD41A",
"N c #95D81F",
"B c #9ED91B",
"V c #9FDB1B",
"C c #99D91F",
"Z c #9BDC1F",
"A c #9DDD1F",
"S c #9EDC1E",
"D c #A1D31D",
"F c #A0DB1B",
"G c #A2DC1B",
"H c #A2DD1B",
"J c #A4DF1B",
"K c #A0DB1C",
"L c #A2DE1C",
"P c #A4DF1C",
"I c #9EE01E",
"U c #A3E01B",
"Y c #A5E11B",
"T c #A6E41B",
"R c #A2E21D",
"E c #A4E01C",
"W c #A7E51C",
"Q c #A8E51C",
"! c #88CE22",
"~ c #9EC620",
"^ c #8FD420",
"/ c #90D320",
"( c #91D420",
") c #95D820",
"_ c #9ADC20",
"` c #A1CC20",
/* pixels */
"yyyyyyuiiiiuyyyy%%%%%%%%yyuiiiilzlliuyyy",
"yKHHELLBMMBBLWQQQQQQQQQQWEBMMMMMMMMMMFRy",
"uBcEQQEELQQEzWQQQQQ##QQQWEEbHWEHHLEEPcLy",
"iMUEQQEbLQQEEWQ##88kk88#$CAELWWPFRWQJYHy",
"lMEWWQYHFEQRRW##kjkjjkjk$q^)AWRFBEWTWEBu",
"zMHREQQEcAZNq#kkj9jjjj9jkjwt!)CbLEWJYLMi",
"zMHMEWRACNw6$jj889jjjj98$kj6qe^/NCRRMHMi",
"zMHPERAR$$$jjjjjjjj,>jjjjkkkj$$$R(CRYHMl",
"zMEQWRR#kkkjjjjjjjj,,jjjkkkjjkkk$RCREHMz",
"iMWQERW#jkjOjjjk#99jj99jkkjjojkj$AAEWYBi",
"iKQQEQ##jkj9ajjjjjjkjjjjgjj09#kj##QLEELi",
"uLQERW#jjjjjjhjjgjjjjjhfjjfjjjjjj#RRREEu",
"yWQW##88jjjjjasffO0jjasffssjjjjj88#$WWWy",
"yQQQ#jjjj#jj,,fffajjjfsddf,,jj#jjjj#QQQy",
"yQQ##8jf0ajj>,90adhjjfdss+,>jga0fj8##QQy",
"yQQ#$jjasdjjk#jjffjjjjfffjjkgjdsajj$#QQy",
"yQQ#jj#jhff9jkkj0aafj099jjjj9ffhj#j#$EEy",
"yWQW8kjjjj09jkkjjjhhjjjjkkkj90jjjjk6ALLu",
"yLERArkjjjjjjkkjjj@$$kkkkkkjjjjjjkw_ZAMi",
"uMxLR_78j8jjk##k#$X&.X##k##kjj8j86_ZAvml",
"ibvBWR_8j#o#.5..#555555#..5.#o#j6RRRLbbz",
"imHHWWAI$##Q.55555555555555.Q$qwZARERMbz",
"iMWWWERRRQQQQ.. .555555. ..QQRA_ZAREYHMz",
"iMEWWUbEEWQQQQQ..444444..QQQWWRRLMEYYHMz",
"iMYTYYYYWWQQQEQ.*334433*.QEQQQYTYYYYYHMp",
"uFPYYYYTYWWEYPEQ*=;33;=*QEEEYYYYYYYYYHBi",
"yPEQYYWTYbYUYbEW=4<22<4=WEMHHUMYYTTYQHFu",
"yEEYYYYYYUHHHYYQ;421124;QEJHHHHYYYYYYLHu",
"yQWTEYYYUHHHHJPE=42<<24=EPHHHHUYYYYYEYLy",
"yQQWTQYUUHHHHLKP*53;;35*PDKHHHHYYJQUYEHy",
"yQQWYUUHUHHMJHD&55544555:nDHBHHUUUUYTRHy",
"yWWWYYUUUUHUYPP.55544555-~DHHUHUHUUYYHBu",
"yLYYUUHHUUYEEEQ.5*4544*5&`DPYYUHHHHHHHMi",
"uMHbHHHHHYWWWQ.5*=4544=*5-DPQYYHHHHHcBMi",
"iMBBBHHBbYWQQQ.5444444445.PEQWYbFHHHBMMz",
"zMMBBHHHUWQWQQ.5444444445.QWQQEHHHHBBMbz",
"lbMMBBHbYWQQQ.544434434445.QQWWUbHHFMMbi",
"ubiMMMFHEWQQ 55544344344555 QQWRBBMMMibu",
"yibbbMMBEQQ .55.*4.  .4*.55. QWLBMmbbbuy",
"yyuiliiuyyy  .5.5.    .5.5.  yyuiiiiiuyy"
};
