/* XPM */
static char *_1e8d0fcb75a4f0fb786573be7248d68kuJTehtvWoliQ4yY[] = {
/* columns rows colors chars-per-pixel */
"96 96 8 1 ",
"  c black",
". c #44240D",
"X c #613415",
"o c #294819",
"O c #366E18",
"+ c #3C731F",
"@ c #406130",
"# c #A8F580",
/* pixels */
"############oooOOOOOOOOOOOOOOOOOOOOOOOOOOOOOOOOOOOOOOOOOOOOOOOOOOOOOOOOOOOOOOOOOOooo############",
"############oooOOOOOOOOOOOOOOOOOOOOOOOOOOOOOOOOOOOOOOOOOOOOOOOOOOOOOOOOOOOOOOOOOOooo############",
"############oooOOOOOOOOOOOOOOOOOOOOOOOOOOOOOOOOOOOOOOOOOOOOOOOOOOOOOOOOOOOOOOOOOOooo############",
"#########ooo@@@oooooooooooooooooooooooooooooooooooooooooooooooooooooooooooooooooooooooo#########",
"#########ooo@@@oooooooooooooooooooooooooooooooooooooooooooooooooooooooooooooooooooooooo#########",
"#########ooo@@@oooooooooooooooooooooooooooooooooooooooooooooooooooooooooooooooooooooooo#########",
"#########oooooooooooooooooooooooooooooooooooooooooooooooooooooooooooooooooooooooooooooo#########",
"#########oooooooooooooooooooooooooooooooooooooooooooooooooooooooooooooooooooooooooooooo#########",
"#########oooooooooooooooooooooooooooooooooooooooooooooooooooooooooooooooooooooooooooooo#########",
"######oooooooooooooooooo+++++++++oooooooooooooooooooooooooooooooooooo+++++++++oooooooooooo######",
"######oooooooooooooooooo+++++++++oooooooooooooooooooooooooooooooooooo+++++++++oooooooooooo######",
"######oooooooooooooooooo+++++++++oooooooooooooooooooooooooooooooooooo+++++++++oooooooooooo######",
"######oooooooooooooooooo+++++++++oooooooooooooooooooooooooooooooooooo+++++++++oooooooooooo######",
"######oooooooooooooooooo+++++++++oooooooooooooooooooooooooooooooooooo+++++++++oooooooooooo######",
"######oooooooooooooooooo+++++++++oooooooooooooooooooooooooooooooooooo+++++++++oooooooooooo######",
"###ooo@@@ooooooooooooooo+++ooo+++oooooooooooooooooooooooooooooooooooo+++ooo+++ooooooooooooooo###",
"###ooo@@@ooooooooooooooo+++ooo+++oooooooooooooooooooooooooooooooooooo+++ooo+++ooooooooooooooo###",
"###ooo@@@ooooooooooooooo+++ooo+++oooooooooooooooooooooooooooooooooooo+++ooo+++ooooooooooooooo###",
"oooOOO@@@oooooooooooooooooooooooooooooooooooooooooooooooooooooooooooooooooooooooooooooooooooo###",
"oooOOO@@@oooooooooooooooooooooooooooooooooooooooooooooooooooooooooooooooooooooooooooooooooooo###",
"oooOOO@@@oooooooooooooooooooooooooooooooooooooooooooooooooooooooooooooooooooooooooooooooooooo###",
"+++OOO@@@@@@oooooooooooooooooooooooooooooooooooooooooooooooooooooooooooooooooooooooooooooooooooo",
"+++OOO@@@@@@oooooooooooooooooooooooooooooooooooooooooooooooooooooooooooooooooooooooooooooooooooo",
"+++OOO@@@@@@oooooooooooooooooooooooooooooooooooooooooooooooooooooooooooooooooooooooooooooooooooo",
"+++OOOOOO@@@oooooooooooooooooooooooooooooo+++++++++++++++++++++ooooooooooooooooooooooooooooooOOO",
"+++OOOOOO@@@oooooooooooooooooooooooooooooo+++++++++++++++++++++ooooooooooooooooooooooooooooooOOO",
"+++OOOOOO@@@oooooooooooooooooooooooooooooo+++++++++++++++++++++ooooooooooooooooooooooooooooooOOO",
"ooo+++OOO@@@@@@oooooooooooooooooooooooooooooooooooooooooooooooooooooooooooooooooooooooo+++OOOOOO",
"ooo+++OOO@@@@@@oooooooooooooooooooooooooooooooooooooooooooooooooooooooooooooooooooooooo+++OOOOOO",
"ooo+++OOO@@@@@@oooooooooooooooooooooooooooooooooooooooooooooooooooooooooooooooooooooooo+++OOOOOO",
"ooo+++OOO+++@@@ooooooooooooooooooooooooooooooooooooooooooooooooooooooooooooooooooooo+++OOOOOOooo",
"ooo+++OOO+++@@@ooooooooooooooooooooooooooooooooooooooooooooooooooooooooooooooooooooo+++OOOOOOooo",
"ooo+++OOO+++@@@ooooooooooooooooooooooooooooooooooooooooooooooooooooooooooooooooooooo+++OOOOOOooo",
"ooo+++OOO+++@@@@@@@@@ooooooooooooooooooooooooooooooooooooooooooooooooooooooooooooooo+++OOO+++ooo",
"ooo+++OOO+++@@@@@@@@@ooooooooooooooooooooooooooooooooooooooooooooooooooooooooooooooo+++OOO+++ooo",
"ooo+++OOO+++@@@@@@@@@ooooooooooooooooooooooooooooooooooooooooooooooooooooooooooooooo+++OOO+++ooo",
"ooo+++OOO+++++++++@@@@@@@@@@@@ooooooooooooooooooooooooooooooooooooooooooooooooooo++++++OOO+++ooo",
"ooo+++OOO+++++++++@@@@@@@@@@@@ooooooooooooooooooooooooooooooooooooooooooooooooooo++++++OOO+++ooo",
"ooo+++OOO+++++++++@@@@@@@@@@@@ooooooooooooooooooooooooooooooooooooooooooooooooooo++++++OOO+++ooo",
"###oooOOOOOOOOOOOOOOOOOOOOO@@@@@@@@@@@@@@@@@@oooooooooooooooooo@@@@@@@@@oooooooooOOOOOOOOO+++ooo",
"###oooOOOOOOOOOOOOOOOOOOOOO@@@@@@@@@@@@@@@@@@oooooooooooooooooo@@@@@@@@@oooooooooOOOOOOOOO+++ooo",
"###oooOOOOOOOOOOOOOOOOOOOOO@@@@@@@@@@@@@@@@@@oooooooooooooooooo@@@@@@@@@oooooooooOOOOOOOOO+++ooo",
"###oooooo+++++++++OOOOOOOOOOOOOOOOOOOOO@@@@@@@@@@@@@@@@@@@@@@@@@@@OOOOOOOOOOOOOOOOOO++++++ooo###",
"###oooooo+++++++++OOOOOOOOOOOOOOOOOOOOO@@@@@@@@@@@@@@@@@@@@@@@@@@@OOOOOOOOOOOOOOOOOO++++++ooo###",
"###oooooo+++++++++OOOOOOOOOOOOOOOOOOOOO@@@@@@@@@@@@@@@@@@@@@@@@@@@OOOOOOOOOOOOOOOOOO++++++ooo###",
"######oooooooooooo++++++OOOOOOOOOOOOOOOOOOOOOOOOOOOOOOOOOOOOOOOOOOOOOOOOOOO+++++++++oooooo######",
"######oooooooooooo++++++OOOOOOOOOOOOOOOOOOOOOOOOOOOOOOOOOOOOOOOOOOOOOOOOOOO+++++++++oooooo######",
"######oooooooooooo++++++OOOOOOOOOOOOOOOOOOOOOOOOOOOOOOOOOOOOOOOOOOOOOOOOOOO+++++++++oooooo######",
"###############ooo++++++++++++OOO   XXX.....................XXXXXX   OOO+++++++++ooo############",
"###############ooo++++++++++++OOO   XXX.....................XXXXXX   OOO+++++++++ooo############",
"###############ooo++++++++++++OOO   XXX.....................XXXXXX   OOO+++++++++ooo############",
"#####################++++++   XXXXXXXXX...XXX...XXXXXX......XXXXXXXXX   ++++++##################",
"#####################++++++   XXXXXXXXX...XXX...XXXXXX......XXXXXXXXX   ++++++##################",
"#####################++++++   XXXXXXXXX...XXX...XXXXXX......XXXXXXXXX   ++++++##################",
"########################   ...XXXXXX...XXXXXX...XXXXXXXXX...XXXXXX...   ########################",
"########################   ...XXXXXX...XXXXXX...XXXXXXXXX...XXXXXX...   ########################",
"########################   ...XXXXXX...XXXXXX...XXXXXXXXX...XXXXXX...   ########################",
"#####################   .........XXX...XXXXXXXXXXXXXXXXXX...XXX.........   #####################",
"#####################   .........XXX...XXXXXXXXXXXXXXXXXX...XXX.........   #####################",
"#####################   .........XXX...XXXXXXXXXXXXXXXXXX...XXX.........   #####################",
"##################      XXXXXXXXXXXXXXXXXXXXX...XXXXXXXXXXXXXXXXXXXXXXXX      ##################",
"##################      XXXXXXXXXXXXXXXXXXXXX...XXXXXXXXXXXXXXXXXXXXXXXX      ##################",
"##################      XXXXXXXXXXXXXXXXXXXXX...XXXXXXXXXXXXXXXXXXXXXXXX      ##################",
"###############      XXXXXXXXXXXXXXXXXXXXXXXXXXXXXXXXXXXXXXXXXXXXXXXXXXXXXX      ###############",
"###############      XXXXXXXXXXXXXXXXXXXXXXXXXXXXXXXXXXXXXXXXXXXXXXXXXXXXXX      ###############",
"###############      XXXXXXXXXXXXXXXXXXXXXXXXXXXXXXXXXXXXXXXXXXXXXXXXXXXXXX      ###############",
"###############   ...XXXXXXXXX...XXXXXXXXXXXXXXXXXXXXXXXXXXXXXX...XXXXXXXXX...   ###############",
"###############   ...XXXXXXXXX...XXXXXXXXXXXXXXXXXXXXXXXXXXXXXX...XXXXXXXXX...   ###############",
"###############   ...XXXXXXXXX...XXXXXXXXXXXXXXXXXXXXXXXXXXXXXX...XXXXXXXXX...   ###############",
"############      XXX...XXXXXXXXXXXXXXXXXXXXXXXXXXXXXXXXXXXXXXXXXXXXXXXX...XXX      ############",
"############      XXX...XXXXXXXXXXXXXXXXXXXXXXXXXXXXXXXXXXXXXXXXXXXXXXXX...XXX      ############",
"############      XXX...XXXXXXXXXXXXXXXXXXXXXXXXXXXXXXXXXXXXXXXXXXXXXXXX...XXX      ############",
"############   XXXXXXXXXXXXXXXXXXXXXXXXXXXXXXXXXXXXXXXXXXXXXXXXXXXXXXXXXXXXXXXXXX   ############",
"############   XXXXXXXXXXXXXXXXXXXXXXXXXXXXXXXXXXXXXXXXXXXXXXXXXXXXXXXXXXXXXXXXXX   ############",
"############   XXXXXXXXXXXXXXXXXXXXXXXXXXXXXXXXXXXXXXXXXXXXXXXXXXXXXXXXXXXXXXXXXX   ############",
"#########      XXXXXXXXXXXXXXXXXXXXXXXXXXX............XXXXXXXXXXXXXXXXXXXXXXXXXXX      #########",
"#########      XXXXXXXXXXXXXXXXXXXXXXXXXXX............XXXXXXXXXXXXXXXXXXXXXXXXXXX      #########",
"#########      XXXXXXXXXXXXXXXXXXXXXXXXXXX............XXXXXXXXXXXXXXXXXXXXXXXXXXX      #########",
"######      XXXXXXXXXXXXXXXXXXXXXXXXXXX...XXXXXXXXXXXX...XXXXXXXXXXXXXXXXXXXXXXXXXXX      ######",
"######      XXXXXXXXXXXXXXXXXXXXXXXXXXX...XXXXXXXXXXXX...XXXXXXXXXXXXXXXXXXXXXXXXXXX      ######",
"######      XXXXXXXXXXXXXXXXXXXXXXXXXXX...XXXXXXXXXXXX...XXXXXXXXXXXXXXXXXXXXXXXXXXX      ######",
"######   XXXXXX...XXXXXXXXXXXXXXXXXXXXXXXXXXXXXXXXXXXXXXXXXXXXXXXXXXXXXX......XXXXXXXXX   ######",
"######   XXXXXX...XXXXXXXXXXXXXXXXXXXXXXXXXXXXXXXXXXXXXXXXXXXXXXXXXXXXXX......XXXXXXXXX   ######",
"######   XXXXXX...XXXXXXXXXXXXXXXXXXXXXXXXXXXXXXXXXXXXXXXXXXXXXXXXXXXXXX......XXXXXXXXX   ######",
"######   XXXXXX......XXXXXXXXXXXXXXXXXXXXXXXXXXXXXXXXXXXXXXXXXXXXXXXXXXXXXX......XXXXXX   ######",
"######   XXXXXX......XXXXXXXXXXXXXXXXXXXXXXXXXXXXXXXXXXXXXXXXXXXXXXXXXXXXXX......XXXXXX   ######",
"######   XXXXXX......XXXXXXXXXXXXXXXXXXXXXXXXXXXXXXXXXXXXXXXXXXXXXXXXXXXXXX......XXXXXX   ######",
"###      XXX......XXXXXXXXX...XXXXXX...XXXXXXXXX...XXXXXXXXXXXXXXX...XXXXXXXXX......   ...   ###",
"###      XXX......XXXXXXXXX...XXXXXX...XXXXXXXXX...XXXXXXXXXXXXXXX...XXXXXXXXX......   ...   ###",
"###      XXX......XXXXXXXXX...XXXXXX...XXXXXXXXX...XXXXXXXXXXXXXXX...XXXXXXXXX......   ...   ###",
"###      XXX...XXXXXXXXX......XXXXXX...XXXXXXXXX...XXXXXXXXXXXXXXX......XXXXXXXXX...   ...   ###",
"###      XXX...XXXXXXXXX......XXXXXX...XXXXXXXXX...XXXXXXXXXXXXXXX......XXXXXXXXX...   ...   ###",
"###      XXX...XXXXXXXXX......XXXXXX...XXXXXXXXX...XXXXXXXXXXXXXXX......XXXXXXXXX...   ...   ###",
"   ...   XXX...XXXXXXXXX...XXX.........XXXXXXXXX...XXX...XXX...XXXXXX...XXXXXXXXX...   ......   ",
"   ...   XXX...XXXXXXXXX...XXX.........XXXXXXXXX...XXX...XXX...XXXXXX...XXXXXXXXX...   ......   ",
"   ...   XXX...XXXXXXXXX...XXX.........XXXXXXXXX...XXX...XXX...XXXXXX...XXXXXXXXX...   ......   "
};
