/* XPM */
static char *xpm_[] = {
/* columns rows colors chars-per-pixel */
"64 64 219 2 ",
"   c #020202",
".  c #0B0101",
"X  c #010A01",
"o  c #02020A",
"O  c #030A0A",
"+  c #0B040B",
"@  c #120000",
"#  c #180200",
"$  c #031000",
"%  c #050013",
"&  c #3D1D0A",
"*  c #3B1F11",
"=  c #3A2704",
"-  c #3D240D",
";  c #3D290C",
":  c #382706",
">  c #3B2512",
",  c #3A241A",
"<  c #263E1E",
"1  c #273F25",
"2  c #441E0B",
"3  c #481F0C",
"4  c #451C05",
"5  c #441E10",
"6  c #451E1E",
"7  c #4B1D1F",
"8  c #54191B",
"9  c #432103",
"0  c #4A2800",
"q  c #44220D",
"w  c #4A230D",
"e  c #45290C",
"r  c #4D2001",
"t  c #51240D",
"y  c #5A350E",
"u  c #452412",
"i  c #4A2512",
"p  c #462913",
"a  c #4B2915",
"s  c #46261A",
"d  c #4B2219",
"f  c #49291A",
"g  c #512613",
"h  c #5B2E15",
"j  c #552E1B",
"k  c #5D2E1A",
"l  c #5C3216",
"z  c #56311C",
"x  c #5D321B",
"c  c #5C391C",
"v  c #543115",
"b  c #682D0B",
"n  c #62300D",
"m  c #612D15",
"M  c #692C17",
"N  c #622E1A",
"B  c #6B2D1D",
"V  c #643316",
"C  c #62331C",
"Z  c #6A331D",
"A  c #623A1B",
"S  c #693718",
"D  c #72361E",
"F  c #422922",
"G  c #5F2D23",
"H  c #5B2E28",
"J  c #563423",
"K  c #5C3422",
"L  c #5C3922",
"P  c #5D3A2B",
"I  c #593B30",
"U  c #662C21",
"Y  c #6B2D23",
"T  c #633521",
"R  c #6A3322",
"E  c #643923",
"W  c #6C3A20",
"Q  c #64392A",
"!  c #1E480F",
"~  c #1D4D15",
"^  c #1F4D1C",
"/  c #1E5011",
"(  c #2B430F",
")  c #254B0E",
"_  c #284A0D",
"`  c #22500F",
"'  c #234616",
"]  c #244B16",
"[  c #2A4C16",
"{  c #24461C",
"}  c #2A461D",
"|  c #264B1C",
" . c #294A1F",
".. c #33451E",
"X. c #314C1F",
"o. c #255214",
"O. c #25521A",
"+. c #2B521C",
"@. c #295314",
"#. c #31541A",
"$. c #2F6E1D",
"%. c #346E1D",
"&. c #34731E",
"*. c #3B711B",
"=. c #367718",
"-. c #1D4B21",
";. c #1F4120",
":. c #244522",
">. c #2A4523",
",. c #254C21",
"<. c #2B4B21",
"1. c #284728",
"2. c #2C4B2A",
"3. c #244B2C",
"4. c #314523",
"5. c #314C24",
"6. c #324629",
"7. c #334A29",
"8. c #265124",
"9. c #2C5122",
"0. c #28502D",
"q. c #315126",
"w. c #375C2C",
"e. c #3C5C2B",
"r. c #3D5E33",
"t. c #3F5D39",
"y. c #2F6F22",
"u. c #356D23",
"i. c #3A6E24",
"p. c #3A652E",
"a. c #346D2A",
"s. c #3B6E2B",
"d. c #376728",
"f. c #357224",
"g. c #3A7325",
"h. c #367A24",
"j. c #3B7924",
"k. c #36732A",
"l. c #3C732A",
"z. c #3D792C",
"x. c #3D6433",
"c. c #3D6B33",
"v. c #3E653A",
"b. c #386C35",
"n. c #357635",
"m. c #3D7332",
"M. c #3D7933",
"N. c #3C7238",
"B. c #41701F",
"V. c #405E38",
"C. c #435E31",
"Z. c #416E26",
"A. c #406C2D",
"S. c #406726",
"D. c #427526",
"F. c #427A25",
"G. c #487920",
"H. c #42752C",
"J. c #41792C",
"K. c #4A742A",
"L. c #416236",
"P. c #426D34",
"I. c #426339",
"U. c #46693B",
"Y. c #427432",
"T. c #447933",
"R. c #497C31",
"E. c #3D6145",
"W. c #4B8032",
"Q. c #9CFD7D",
"!. c #9BF476",
"~. c #A4FA75",
"^. c #A3F57D",
"/. c #A3FB7A",
"(. c #AAFB7B",
"). c #AEF57F",
"_. c #B2F479",
"`. c #9DFD82",
"'. c #9DFB8E",
"]. c #9EFE90",
"[. c #A8EF8A",
"{. c #B2EE8A",
"}. c #A7F787",
"|. c #A6F584",
" X c #ABF585",
".X c #A5FC84",
"XX c #ABFC84",
"oX c #A2F68A",
"OX c #A6F58C",
"+X c #ADF689",
"@X c #ACF68C",
"#X c #A7FA88",
"$X c #A5FD8B",
"%X c #A4FD8B",
"&X c #ABFA8A",
"*X c #ADF98D",
"=X c #AAFA8B",
"-X c #B2FB85",
";X c #B2F38D",
":X c #B1FF8A",
">X c #B2FB8B",
",X c #B8FE8E",
"<X c #B6F489",
"1X c #ACEF91",
"2X c #B6EE97",
"3X c #A4F592",
"4X c #ABF493",
"5X c #A4FC93",
"6X c #ABFB92",
"7X c #AEF399",
"8X c #ADFB9B",
"9X c #A5FA9A",
"0X c #B2F494",
"qX c #B9F696",
"wX c #B3FB94",
"eX c #B2F398",
"rX c #B9F499",
"tX c #B2FB9A",
"yX c #BCF8A0",
/* pixels */
"*X8X}./.8XXX.X.X| O.s.f.&.f.f.f.g.f.i.k.i.i.k.g.f.f.f.f.g.f.f.f.f.f.f.f.g.f.f.f.f.f.f.y.g.f.f.f.&.f.s.k.i.l.~ <..X}.XX8X/.#X8X*X",
"}.6X}.:X3XXX7X0X,.O.p.l.l.l.s.d.f.i.f.f.f.f.f.u.s.s.s.s.s.l.s.s.s.s.l.s.s.s.s.s.i.g.g.i.g.g.i.l.&.i.s.i.i.i.] 5.qX7XXX3X:X}.6X#X",
"$X=X6X|.6X X~ [ I.r.<.| ] ] | +. .} } | <.<.<.<.| | | | | [ | | | | | |  .[  .] | ,.,.| :.} { | | | <. .O.8.' 1.[ ~  X=X|.*X=X%X",
"$XXX+X&X&X:X,.>.C.L. .<.<. . .} <.<.| | | ,.| | X. .<. . . . .<.<.<. .X.<. . . .}  .<.5.<.<.<.<.<.} <.| | ,.{ <.<.:.:X&X&X@XXX%X",
"}.&X*X&X#X+X-.<.] 9.' <.<.<.} } }  . .{ | <.} 2. . . . . . .} <. . .} <. . . . . . .} <.:.}  .{ <.} |  . .<.<.<.<.-.+X#X&X*XXXoX",
"wX&X}.*X4XqX,.'  .<.{ | | <.<.<.}  .<.| <.7.< >. . .<. . . . . . . .<. . . .<. .1.<.:.2.:.} 9.| ,.| | <.:.1.1.<.' 8.qX4X&X}.&XwX",
"|.6X.X}.O.) { O.| } <. . . .| ,.J.z.z.g.z.l.o.+. . . . .<. . .<. . . . .<. . . .] ] ' +.[ +.H.k.H.J.g.k.+.X.} @.O.:.) O.}..X=X|.",
">XoX.X:X:...7.| 2.{ 5.{ [  . .>.l.l.z.l.T.P.] '  . . . . . . . . .<. . . . . . .<.<.{ <.' O.Y.Y.l.z.g.m.| } }  .| 7.4.{ wX.XoX>X",
"+X&X'.}.,. .} +.,.<.| <.}  . . .g.l.l.T.l.m.~ :. . .| <. .,.| <. .} <.|  . . .<.|  . .} | ] m.j.l.l.j.D.] <.{  .} <.6.{ XX%X`.4X",
"5XXX+XqX8.<.2.'  . .<. .,. .<. .H.l.l.Y.g.J.+.<. .:.<.}  .} <. .| <.:.<.,.}  . .,.{ X. .9.] m.g.Y.g.H.H.| 5.<. .9. .1.9.@X8XXX@X",
"XX>X| <.w.S.:.2.<. . . .<.}  . .H.H.o.o.l.T.'  . . .| <. . . . . . . . .<.<. . . . . .} <.| Y.T.] o.s.P.] }  .} ' <.<.| o.~ <X6X",
"+X2X3.:.U.S.,.} } ,. . .| <.|  .c.Y.O.] P.T.' 5. . . . . .<. . .<. . . .|  . . .<. . .}  .<.c.l.| 9.P.Y.<.<. . . .| | <. .<.>X#X",
"<.| k.F.x.e.<.:.} ,.<.} <. . . .9.|  .| | | } } <. . . . . .<. . . .<.} ,. . .<. . . . . .| 9.o. .| | +. . .[ | <.:.,.,.} { >X%X",
">.^ $.=.v.C.X.} <.<.| <.:. . . .' } <.<.' {  .5. . .<. .<.| } ,. . .| <. .<. . .<. . . .<.| ' ' }  .{ !  .2.} 2... .| <. .,.0X3X",
"K.R.b.a.v.p.L.x. . . .|  . .<. .{ <.} } q.<.{  .| <.| <. . .<.|  .| <.}  .| <. .<. .} | >.<.<.<. .<.<.,.,.{ ' } <. .<.{ +.:.@./ ",
"n.*.%.Z.x.x.E.p. . .<.| <. . . . . .[  .,.{  .{ <.} <.| <.} ,.<. .<.| <. . .>.| :. . .|  .<.} <.<.{ ,.,.} <.<.| | _ <.7._ 1.<.>.",
"j.l.&.f.f.g.x.x. . .<. .} <.} 2. . . .<.| >. . .} } | ! T.l.z.j.l.l.z.l.g.l.z.l.Y.Y.] ' <.{  . . . . . . . . .| <.{ | <.<.,.c.f.",
"H.Y.l.k.i.i.x.v.}  .| <.| <.{ |  . . . .<.|  . .<.<.9.| P.s.l.m.H.m.H.H.Y.Y.H.l.l.P.+. .<.}  .}  .<. . .>.|  .<.<.{ ] | ' O.g.&.",
"] 9.s.m.i.i.v.v.I.L.<. .| ,.<.9. . .<. .| <. . .,.} | { 9.| o.] | | O.| | ] | | ] 9.' { <.} <.|  .<. .<.| <.|  .} q.P.T.s.d.g.&.",
"' | H.Y.s.i.x.p.I.L. . .} } | } |  . . .<.| <. .<.<.<.<.<. .| <. . . . . . . .<.]  .} <.<. .<.|  .| <.| <.} <. .[ ] l.g.g.g.u.s.",
"9.9.H.l.u.&.m.l.I.L. .<.<. .<. . . .} ,.} <.| >.{ { |  .} <.<. . .<.<. . .<. .<.<.<. .<.<. . .| <.}  . .| <. .<.T.k.l.&.f.k.O.<.",
" .' g.g.f.&.m.H.I.r.<. . .<. . . . .<.<.<.|  . .9.|  . .}  .X.} | | | |  . .| |  .} { }  . .,. . .,. . . . . . .l.f.f.f.g.l.{ >.",
" .| J.H.l.f.l.g.L.I.L.I.x.r.<.{  .,.<.|  .<. . .,.} } }  . .<.|  .<.<.<.<. . . .<. .<. .| <. .|  . . .>. .| <. .z.z.k.i.g.s.| 7.",
">.} H.g.g.g.l.D.L.L.L.L.V.I.<.<. . .} <.| | <. .>.<.<.| <.| | {  . .<. . . . . . .|  . .| | |  . . .<.|  .<.} ,.g.H.i.i.J.k.o.| ",
"<.1 T.f.Y.i.h.l.D.J.g.Y.I.U.V.I.x.x.I.I.>.|  .[  . .] } ,.<.:.<. . .<.} <.} <.}  . .}  . . .}  .| } <.| 8.] T.g.z.l.u.u.g.Y.' 2.",
"O.o.l.*.%.a.g.N.l.l.g.l.p.I.p.p.x.p.x.t.<. . .{  . . .{ <.<. .<. . . . .| <.| <.|  .<.<. . . . .<. .<.} <.~ l.g.l.F.u.M.M.N.8.( ",
"&X+X8.| l.a.j.i.k.k.g.z.d.s.s.k.A.p.x.U.r.I.I.I.v.v.x.V.L.e.<.' <.| ,. .,.| ,.| { 9.w.I.I.L.L.I.|  . .} ,.| c.l.k.i.u.$.=.g.| 7.",
"$X X:.5.i.b.D.u.k.f.f.g.%.i.g.f.g.u.d.d.p.x.I.x.r.x.x.I.U.r.5.}  .<.<. .<.<.<.<.,.9.p.x.c.x.p.p.O.| +.| O.o.u.i.i.M.f.%.W.g.o.{ ",
"OXXX<.4.o.^ Z.z.f.g.l.l.g.g.g.k.z.k.k.a.k.s.l.i.s.s.p.x.x.I.r.x.L.L.L.I.L.I.I.L.V.L.x.x.s.s.k.f.s.s.s.d.s.d.g.g.g.m.=.J.1.1.;X&X",
":X+X~ <.{ ,.K.g.H.Y.H.s.z.y.u.u.y.u.f.%.g.g.&.f.g.k.s.d.p.p.p.c.x.x.P.L.x.L.P.p.x.x.x.d.d.g.f.f.k.f.g.g.l.k.f.&.T.N.J.g.2.|  X`.",
"OX6X6X1X+.} ] 8.~  . .o.l.z.l.T.f.f.g.f.g.u.f.f.%.f.i.s.s.s.s.s.s.i.a.k.s.s.s.s.s.s.s.k.l.f.i.%.f.g.g.g.J.z.l.g.]  .' o.0X X=X6X",
"}.=X/.5X<.6. . .,.<.>.| m.z.g.D.f.f.g.i.g.i.a.k.f.f.f.s.s.g.f.&.g.g.f.f.g.f.f.f.&.f.f.f.g.k.l.k.a.g.g.l.l.H.l.z.2.( 6.^ &XQ.6X X",
"=X=X#X@X=X=X@X%X.X&X(  .z.z.h.l.k.F.f.n.D.a.    R K q - 2 i q q u u 2 f - u u q V E z c     &.l.m.J.&.M.h.l.0.[ XX*X&X=X=X=X=X=X",
"=X=X=X=X=X=X=X=X4X8X2.:.z.i.J.J.K.G.m.n.*.a.X o N c e u u a q u 2 q q a & 2 u u n x C Q .   a.a.l.k.R.c.Y.H.;.} =X=X=X=X=X=X&X=X",
"=X=X=X=X=X=X=X=X6XQ.@X=X`.tXg.g.n.i.  . y A m B R K q w j G i > K T K L i i u u R G m m J Q   X g.H.g.z.@X.X6X$X=X=X=X=X=X=X=X=X",
"=X=X&X=X=X=X=X=XeX/.XX|..XtXl.J.M.n.    J h E C K z i w T T p q x C x x w i & > C T m Y C N . . F.H.H.g.>X/.%X`.&X=X=X=X%X=X=X=X",
"=X=X=X=X=X=X=X=X0XXX=XtX&X|.;X/.    i u N h H T q a z N T x q q C C C C x x a a T k V Q = e %   XX3X6XwX;X-XtXeX&X=X=X=X}.=X=X=X",
"=X=X=X=X=X=X=X=X/..X!.wX.X.XyX}.o   4 3 B S T l 2 i K C C x t i Z C C C x K q * G A c h = -   . 6X3X.XQ.&X/.#X=X=X=X=X=X*X=X=X=X",
"=X=X%X@X=X=X&X&X*XwX:X{.XX7X  o = p u > s > k C a 5 K N C C x k N k N C C E 3 u C A 2 d p 8 f 2   X rXwX%X&XwX&X%X@X@X=X=X=X=X=X",
"=X=X=X=X=X#X&X&X}.6XoXtX`.%XX . i 3 6 p 4 ; S H u 2 E C x c C T E C T C x K 3 u U l i w > d : e .   qX!.9X=X|.&X=X&X=X=X=X=X=X=X",
"=X&X=X=X=X=X=X=X*X3X'.%Xo       N C C C E C C C l C C T T k i q C x C C C C x C C V C E C C C C   .   o %X%X5X&X=X=X}.*X=X=X=X=X",
"=X=X=X=X=X=X=X=X_.-X*X;X      o C C C C k k C C C C C C x k a w C C C C C C C C C C k l C C C C o       4X;X>X_.=X=X%X=X=X=X=X=X",
"=X=X=X=X=X=X=X=X].eX    o   C M C x C A C C C C C C C C T C G z C C C C C C C C x C C C E C C C M x   o     eX'.=X=X=X=X=X=X=X=X",
"=X=X@X#X=X@X%X=X5X}.      O c K T k x C x C C h C C C C N T T T C C C x x C C C x C x x C x h C K c O       #X'.&X=X=X=X=X@X=X=X",
"=X=X=X}.=X=X=X=X X,X  . - > b S C C E x w r x C x C C C N C C C C x C x C C x C C x w 3 V C C C V b * e .   ,X+X=X=X=X=X=X=X=X=X",
"=X=X=X=X=X&X=X=X$X4XX o - , D C C C C h w t C C C C C C C N C C C C C C C C C C C h t t C A C C C W , > O   4X%X&X=X=X=X=X=X=X=X",
"=X=X=X=X&X%X=X=X  o + o V T 4 - C C x C C C C N C C C C C C C C C C x C C C C C C C C C x x x N ; 9 T C   +   o %X@X&X=X=X=X&X=X",
"=X=X=X=X=X@X&X=X    .   E H q u C C C x C C C C C C C x x C x N C C C C C x C C C C C C N C C C s q H R   .     =X&X=X=X=X&X@X%X",
"6X<X9X/.6X6X^.tX    C m x T x E C C C C C C C C l C C x E C N T U k C C l C C h C C C C C x C C C c x C B E . o 8X^.6X6X/.9X,X4X",
" X~.].XX@X&X>XQ.o   T C x C x C C C l C C C x C V C A x x C K x x T c z x C C Z C x C C C C C C k k C V C H . o /.-XXX4XXX'.~.XX",
"6X5XyX6X.X}.  % o   J C z N C C x C C C C C C C N N V c w q i q q i w w c C k C C C C C C C x C R T x C C J .   %   }..X>X8X6X5X",
"(.=X|.=X$X$XX o . . j R C T C m C A C C C x C C T N T k w q w q q w w i x T U N l C C x C C C C C C C C T j #   o X $X$X=X|.+X(.",
"XX9X=X7X    .   P K E C N x T C C C C x x C C C E h w w j x K x x z K h w w h E C C C C C x C C x C x h m C j I   .   . 7X6X9X.X",
"^.7X/.XXo %   O l M x h Z C x C C x C C C C C C J z w w x T C C T C T J w w z c C C C C C C C C c c L x S Z N C O   o o XX/.wX^.",
":X6XwX&XX   C k A B q w N c C C C C C x C C C C C C C c C C k C C C C C c C C C C C x C C C C C q u 2 3 x V C C C C   X }.wX6X>X",
"4XQ. X X  o B c l B > u R c l C C C C C C C C C C N C T x C C C C C C k C C C V x C C C C C C C u d u d L l T x c U o   +X XQ.4X",
"0X%XXX4X  . T Z C c u & u e k R l C N T T N E x T k Z h C x C C T N C x C T C C c C C N C C N C T k q u & u x C l Z   o =X=X=XXX",
"}.6X(.|.X o v L C x a & f i k N C E C x C k C C c k C C C x C N U k A C C x x x h C C T T N C C N k a a - a x x T N     XX*X].5X",
"XX<X  o   . T Z w q 2 3 J x T C x x 2 w C C C N i i C C C C C C u w x k C C C V T R C N w e x T C T x J 3 2 q w     , 5 .    X*X",
"'.7Xo o   o l k q - i g C C C x L K w w K E m Z & w x x A l C C s q x C C x C x m C C c i q J k C C N C a i u - o + 6 i     &XeX",
"/.&X      o A T u a z x C N C C 5 a 2 2 z K h Z q i c C C C x C u q C C C x T C x C T z i & a u x C C C x z a u     > : o   XX^.",
"&X1X+ o X   v l - w K C C C C C u q w i c E x K q u K C C x C C > 3 T C k k E C E k U j w q u 2 C A N Z C K u 2   % r q % + $X=X",
"  o 3 e o . D U u u C C C N C C u e J k 3 3 q i q 5 k N C C C C u u C C i i k N 2 u k T T c i q C C m C C C q u o o q F : - . . ",
". o u -     k K i 2 x C C C T C q 2 T K 3 i u u u i N T C x C x q 3 C x e u x Z u u T U T K 2 u T C C C C x 3 u   o 0 3 w p o O "
};
