/* XPM */
static char *_902e2b63ace45dd9e35fb3f84717f2b6Gqr1OlhAD4qEWbO[] = {
/* columns rows colors chars-per-pixel */
"96 78 141 2 ",
"   c black",
".  c #060D00",
"X  c gray3",
"o  c #0D0C0B",
"O  c #0F0E0C",
"+  c #100404",
"@  c #1D0001",
"#  c #100F0F",
"$  c #1E0909",
"%  c #0C1C01",
"&  c #101010",
"*  c #181818",
"=  c #1C1918",
"-  c #220303",
";  c #230604",
":  c #240705",
">  c #2A0000",
",  c #2C0000",
"<  c #2C0C0A",
"1  c #2D0F0F",
"2  c #330302",
"3  c #310506",
"4  c #3E0000",
"5  c #3E0505",
"6  c #310804",
"7  c #3D0807",
"8  c #3E0E06",
"9  c #32080A",
"0  c #340A09",
"q  c #320E0B",
"w  c #370F0E",
"e  c #380B0A",
"r  c #3B0E0B",
"t  c #3C0C0A",
"y  c #3A0E0F",
"u  c #3F0F0E",
"i  c #2D180A",
"p  c #32100B",
"a  c #36100F",
"s  c #38110B",
"d  c #3A130E",
"f  c #3C130E",
"g  c #3B140F",
"h  c #3D1A08",
"j  c #3A1E0D",
"k  c #270E10",
"l  c #290C10",
"z  c #300E12",
"x  c #380B12",
"c  c #201D1D",
"v  c #321013",
"b  c #341215",
"n  c #381312",
"m  c #3C1510",
"M  c #3E1616",
"N  c #3C171A",
"B  c #132B01",
"V  c #193A02",
"C  c #3A2601",
"Z  c #391521",
"A  c #301F27",
"S  c #231937",
"D  c #202020",
"F  c #2E2222",
"G  c #2F2523",
"H  c #282828",
"J  c #34222A",
"K  c #30262C",
"L  c #312B29",
"P  c #373433",
"I  c #520500",
"U  c #58070D",
"Y  c #40100C",
"T  c #400F12",
"R  c #420917",
"E  c #431215",
"W  c #471910",
"Q  c #57151B",
"!  c #492F02",
"~  c #583803",
"^  c #472510",
"/  c #50211B",
"(  c #441927",
")  c #403636",
"_  c #563733",
"`  c #265803",
"'  c #2D6703",
"]  c #347604",
"[  c #674203",
"{  c #764C03",
"}  c #764C04",
"|  c #474340",
" . c #5C4747",
".. c #5C5D5C",
"X. c #6E6E72",
"o. c #8C1234",
"O. c #855605",
"+. c #946005",
"@. c #B27407",
"#. c #C17E08",
"$. c #3A8505",
"%. c #409405",
"&. c #4CB207",
"*. c #50B208",
"=. c #52C108",
"-. c #5EDF0A",
";. c #64EE0B",
":. c #D08809",
">. c #DF920A",
",. c #F4A315",
"<. c #6C1EFF",
"1. c #7125FF",
"2. c #762DFF",
"3. c #7936FC",
"4. c #7B34FF",
"5. c #803CFF",
"6. c #8040ED",
"7. c #925CEF",
"8. c #8345FC",
"9. c #8A4BFF",
"0. c #8D54FC",
"q. c #945AFF",
"w. c #9B6AF0",
"e. c #A478EF",
"r. c #A478F1",
"t. c #AD86F1",
"y. c #E2E1DF",
"u. c #EDE2E1",
"i. c #E1E8E4",
"p. c #E9EFE4",
"a. c #F1E7E7",
"s. c #FAEBEB",
"d. c gray97",
"f. c gray98",
"g. c #FBFBFB",
"h. c #FAFCFB",
"j. c #FCFCFB",
"k. c #FBF9FC",
"l. c #FFFAFC",
"z. c #FAFEFD",
"x. c white",
/* pixels */
"x.x.x.x.x.x.x.x.x.x.x.x.x.x.x.x.x.x.x.x.x.x.x.x.x.x.x.x.x.x.x.x.x.x.x.x.x.x.x.x.x.x.x.x.x.x.x.x.x.x.x.x.x.x.x.x.x.x.x.x.x.x.x.x.x.x.x.x.x.x.x.x.x.x.x.x.x.x.x.x.x.x.x.x.x.x.x.x.x.x.x.x.x.x.x.x.",
"x.x.x.x.x.x.x.x.x.x.x.x.x.x.x.x.x.x.x.x.x.x.x.x.x.x.x.x.x.x.x.x.x.x.x.x.x.x.x.x.x.x.x.x.x.x.x.x.x.x.x.x.x.x.x.x.x.x.x.x.x.x.x.x.x.x.x.x.x.x.x.x.x.x.x.x.x.x.x.x.x.x.x.x.x.x.x.x.x.x.x.x.x.x.x.x.",
"x.x.x.x.x.x.x.x.x.x.x.x.x.x.x.x.x.x.x.x.x.x.x.x.x.x.x.x.x.x.x.x.x.x.x.x.x.x.x.x.x.x.x.x.x.x.x.x.x.x.x.x.x.x.x.x.x.x.x.x.x.x.x.x.x.x.x.x.x.x.x.x.x.x.x.x.x.x.x.x.x.x.x.x.x.x.x.x.x.x.x.x.x.x.x.x.",
"x.x.x.x.x.x.x.x.x.x.x.x.x.x.x.x.x.x.x.x.x.x.x.x.x.x.x.x.x.x.x.x.x.x.x.x.x.x.x.x.x.x.x.x.x.x.x.x.x.x.x.x.x.x.x.x.x.x.x.x.x.x.x.x.x.x.x.x.x.x.x.x.x.x.x.x.x.x.x.x.x.x.x.x.x.x.x.x.x.x.x.x.x.x.x.x.",
"x.x.x.x.x.x.x.x.x.x.x.x.x.x.x.x.x.x.x.x.x.x.x.x.x.x.x.x.x.x.x.x.x.x.x.x.x.x.x.x.x.x.x.x.x.x.x.x.x.x.x.x.x.x.x.x.x.x.x.x.x.x.x.x.x.x.x.x.x.x.x.x.x.x.x.x.x.x.x.x.x.x.x.x.x.x.x.x.x.x.x.x.x.x.x.x.",
"x.x.x.x.x.x.x.x.x.x.x.x.x.x.x.x.x.x.x.x.x.x.x.x.x.x.x.x.x.x.x.x.x.x.x.x.x.x.x.x.x.x.x.x.x.x.x.x.x.x.x.x.x.x.x.x.x.x.x.x.x.x.x.x.x.x.x.x.x.x.x.x.x.x.x.x.x.x.x.x.x.x.x.x.x.x.x.x.x.x.x.x.x.x.x.x.",
"x.x.x.x.x.x.x.x.x.x.x.x.x.x.x.x.x.x.x.x.x.x.x.x.x.x.x.x.x.x.x.x.x.G G G @ @ @ @ @ @ @ @ @ @ @ @ @ @ @ @ @ @ | | | x.x.x.x.x.x.x.x.x.x.x.x.x.x.x.x.x.x.x.x.x.x.x.x.x.x.x.x.x.x.x.x.x.x.x.x.x.x.x.",
"x.x.x.x.x.x.x.x.x.x.x.x.x.x.x.x.x.x.x.x.x.x.x.x.x.x.x.x.x.x.x.x.x.G G G @ @ @ @ @ @ @ @ @ @ @ @ @ @ @ @ @ @ | | | x.x.x.x.x.x.x.x.x.x.x.x.x.x.x.x.x.x.x.x.x.x.x.x.x.x.x.x.x.x.x.x.x.x.x.x.x.x.x.",
"x.x.x.x.x.x.x.x.x.x.x.x.x.x.x.x.x.x.x.x.x.x.x.x.x.x.x.x.x.x.x.x.x.G G G @ @ @ @ @ @ @ @ @ @ @ @ @ @ @ @ @ @ | | | f.x.x.x.x.x.x.x.x.x.x.x.x.x.x.x.x.x.x.x.x.x.x.x.x.x.x.x.x.x.x.x.x.x.x.x.x.x.x.",
"x.x.x.x.x.x.x.x.x.x.x.x.x.x.x.x.x.x.x.x.x.x.x.x.x.x.x.z.z.z.......r r r f f f Y Y Y Y Y Y Y Y Y Y Y Y Y Y Y t t t y.y.y.z.z.z.x.x.x.x.x.x.x.x.x.x.x.x.x.x.x.x.x.x.x.x.x.x.x.x.x.x.x.x.x.x.x.x.x.",
"x.x.x.x.x.x.x.x.x.x.x.x.x.x.x.x.x.x.x.x.x.x.x.x.x.x.x.z.z.z.......r r r f u Y Y Y Y Y Y Y Y Y Y Y Y Y Y Y Y t t t y.y.y.z.z.z.x.x.x.x.x.x.x.x.x.x.x.x.x.x.x.x.x.x.x.x.x.x.x.x.x.x.x.x.x.x.x.x.x.",
"x.x.x.x.x.x.x.x.x.x.x.x.x.x.x.x.x.x.x.x.x.x.x.x.x.x.x.z.z.z.......r r r f u u Y Y Y Y Y Y Y Y Y Y Y Y Y Y Y t t t y.y.y.z.z.z.x.x.x.x.x.x.x.x.x.x.x.x.x.x.x.x.x.x.x.x.x.x.x.x.x.x.x.x.x.x.x.x.x.",
"x.x.x.x.x.x.x.x.x.x.x.x.x.x.x.x.x.x.x.x.x.x.x.x.k.k.k.u.u.u.y y y n n n f f u Y f f Y Y Y Y Y Y Y Y Y Y Y Y Y Y Y r r r a.a.a.x.x.x.x.x.x.x.x.x.x.x.x.x.x.x.x.x.x.x.x.x.x.x.x.x.x.x.x.x.x.x.x.x.",
"x.x.x.x.x.x.x.x.x.x.x.x.x.x.x.x.x.x.x.x.x.x.x.x.k.k.k.u.u.u.y y y n n n f f u Y f f Y Y Y Y Y Y Y Y Y Y Y Y Y Y Y r r r a.a.a.x.x.x.x.x.x.x.x.x.x.x.x.x.x.x.x.x.x.x.x.x.x.x.x.x.x.x.x.x.x.x.x.x.",
"x.x.x.x.x.x.x.x.x.x.x.x.x.x.x.x.x.x.x.x.x.x.x.x.k.k.k.u.u.u.y y y n n n f f f Y f f Y Y Y Y Y Y Y Y Y Y Y Y Y Y Y r r r a.a.a.x.x.x.x.x.x.x.x.x.x.x.x.x.x.x.x.x.x.x.x.x.x.x.x.x.x.x.x.x.x.x.x.x.",
"x.x.x.x.x.x.x.x.x.x.x.x.x.x.x.x.x.x.x.x.x.x.x.x.p.p.p.g g g n n n M M M h h h f f f Y Y Y Y Y Y 8 8 8 Y Y Y Y Y Y T T T E E E X.X.X.x.x.x.x.x.x.x.x.x.x.x.x.x.x.x.x.x.x.x.x.x.x.x.x.x.x.x.x.x.x.",
"x.x.x.x.x.x.x.x.x.x.x.x.x.x.x.x.x.x.x.x.x.x.x.x.p.p.p.g g g n n n M M M h h h f f f Y Y Y Y Y Y 8 8 8 Y Y Y Y Y Y T T T E E E X.X.X.x.x.x.x.x.x.x.x.x.x.x.x.x.x.x.x.x.x.x.x.x.x.x.x.x.x.x.x.x.x.",
"x.x.x.x.x.x.x.x.x.x.x.x.x.x.x.x.x.x.x.x.x.x.x.x.p.p.p.g g g n n n M M M h h h f f f Y Y Y Y Y Y 8 8 8 Y Y Y Y Y Y T T T E E E X.X.X.x.x.x.x.x.x.x.x.x.x.x.x.x.x.x.x.x.x.x.x.x.x.x.x.x.x.x.x.x.x.",
"x.x.x.x.x.x.x.x.x.x.x.x.x.x.x.x.x.x.x.x.x.x.x.x.N N N s s s e e e 2.2.2.5 5 5 h h h h h h h h h R R R Y Y Y h h h h h h T T T 2 2 2 z.z.z.x.x.x.x.x.x.x.x.x.x.x.x.x.x.x.x.x.x.x.x.x.x.x.x.x.x.x.",
"x.x.x.x.x.x.x.x.x.x.x.x.x.x.x.x.x.x.x.x.x.x.x.x.N N N s s s e e e 2.2.2.5 5 5 h h h h h h h h h R R R Y Y Y h h h h h h T T T 2 2 2 z.z.z.x.x.x.x.x.x.x.x.x.x.x.x.x.x.x.x.x.x.x.x.x.x.x.x.x.x.x.",
"x.x.x.x.x.x.x.x.x.x.x.x.x.x.x.x.x.x.x.x.x.x.x.x.N N N s s s e e e 2.2.2.5 5 5 h h h h h h h h h R R R Y Y Y h h h h h h T T T 2 2 2 z.z.z.x.x.x.x.x.x.x.x.x.x.x.x.x.x.x.x.x.x.x.x.x.x.x.x.x.x.x.",
"x.x.x.x.x.x.x.x.x.x.x.x.x.x.x.x.x.x.x.x.x.l.l.l., , , f f f 2.2.2.2.2.2.2.2.2.5 5 5 2.2.2.<.<.<.h h h h h h h h h h h h h h h 2 2 2 z.z.z.x.x.x.x.x.x.x.x.x.x.x.x.x.x.x.x.x.x.x.x.x.x.x.x.x.x.x.",
"x.x.x.x.x.x.x.x.x.x.x.x.x.x.x.x.x.x.x.x.x.l.l.l., , , f f f 2.2.2.2.2.2.2.2.2.5 5 5 2.2.2.<.<.<.h h h h h h h h h h h h h h h 2 2 2 z.z.z.x.x.x.x.x.x.x.x.x.x.x.x.x.x.x.x.x.x.x.x.x.x.x.x.x.x.x.",
"x.x.x.x.x.x.x.x.x.x.x.x.x.x.x.x.x.x.x.x.x.l.l.l., , , f f f 2.2.2.2.2.2.2.2.2.5 5 5 2.2.2.<.<.<.h h h h h h h h h h h h h h h 2 2 2 z.z.z.x.x.x.x.x.x.x.x.x.x.x.x.x.x.x.x.x.x.x.x.x.x.x.x.x.x.x.",
"x.x.x.x.x.x.x.x.x.x.x.x.x.x.x.x.x.x.x.x.x.i.i.i.6 6 6 W W W 5.5.5.<.<.<.2.2.2.2.2.2.5.5.5.5.5.5.2.2.2.2.2.2.2.2.2.2.2.2.h h h x x x z z z f.f.f.x.x.x.x.x.x.x.x.x.x.x.x.x.x.x.x.x.x.x.x.x.x.x.x.",
"x.x.x.x.x.x.x.x.x.x.x.x.x.x.x.x.x.x.x.x.x.i.i.i.6 6 6 W W W 5.5.5.<.<.<.2.2.2.2.2.2.5.5.5.5.5.5.2.2.2.2.2.2.2.2.2.2.2.2.h h h x x x z z z f.f.f.x.x.x.x.x.x.x.x.x.x.x.x.x.x.x.x.x.x.x.x.x.x.x.x.",
"x.x.x.x.x.x.x.x.x.x.x.x.x.x.x.x.x.x.x.x.x.i.i.i.6 6 6 W W W 5.5.5.<.<.<.2.2.2.2.2.2.5.5.5.5.5.5.2.2.2.2.2.2.2.2.2.2.2.2.h h h x x x z z z f.f.f.x.x.x.x.x.x.x.x.x.x.x.x.x.x.x.x.x.x.x.x.x.x.x.x.",
"x.x.x.x.x.x.x.x.x.x.x.x.x.x.x.x.x.x.f.f.f.: : : d d d h h h 5.5.5.s.s.s.H H H 5.5.5.9.9.9.9.9.9.H H H s.s.s.5.5.5.5.5.5.<.<.<.k k k v v v f.f.f.x.x.x.x.x.x.x.x.x.x.x.x.x.x.x.x.x.x.x.x.x.x.x.x.",
"x.x.x.x.x.x.x.x.x.x.x.x.x.x.x.x.x.x.f.f.f.: : : d d d h h h 5.5.5.s.s.s.H H H 5.5.5.9.9.9.9.9.9.H H H s.s.s.5.5.5.5.5.5.<.<.<.k k k v v v f.f.f.x.x.x.x.x.x.x.x.x.x.x.x.x.x.x.x.x.x.x.x.x.x.x.x.",
"x.x.x.x.x.x.x.x.x.x.x.x.x.x.x.x.x.x.f.f.f.: : : d d d h h h 5.5.5.s.s.s.H H H 5.5.5.9.9.9.9.9.9.H H H s.s.s.5.5.5.5.5.5.<.<.<.k k k v v v f.f.f.x.x.x.x.x.x.x.x.x.x.x.x.x.x.x.x.x.x.x.x.x.x.x.x.",
"x.x.x.x.x.x.x.x.x.x.x.x.x.x.x.x.x.x.f.f.f.- - - d d d ( ( ( 5.5.5.d.d.d.* * * 5.5.5.8.8.8.0.0.0.X X X x.x.x.9.9.9.9.9.9.2.2.2.y y y b b b f.f.f.x.x.x.x.x.x.x.x.x.x.x.x.x.x.x.x.x.x.x.x.x.x.x.x.",
"x.x.x.x.x.x.x.x.x.x.x.x.x.x.x.x.x.x.f.f.f.- - - d d d ( ( ( 5.5.5.d.d.d.* * * 5.5.5.8.8.8.0.0.0.X X X x.x.x.9.9.9.9.9.9.2.2.2.y y y b b b f.f.f.x.x.x.x.x.x.x.x.x.x.x.x.x.x.x.x.x.x.x.x.x.x.x.x.",
"x.x.x.x.x.x.x.x.x.x.x.x.x.x.x.x.x.x.f.f.f.- - - d d d ( ( ( 5.5.5.d.d.d.* * * 5.5.5.8.8.8.0.0.0.X X X x.x.x.9.9.9.9.9.9.2.2.2.y y y b b b f.f.f.x.x.x.x.x.x.x.x.x.x.x.x.x.x.x.x.x.x.x.x.x.x.x.x.",
"x.x.x.x.x.x.x.x.x.x.x.x.x.x.x.x.x.x.f.f.f.- - - n n n ^ ^ ^ 5.5.5.5.5.5.5.5.5.1.1.1.4.4.4.4.4.4.4.4.5.q.q.q.9.9.9.2.2.2.w w w f f f b b b f.f.f.x.x.x.x.x.x.x.x.x.x.x.x.x.x.x.x.x.x.x.x.x.x.x.x.",
"x.x.x.x.x.x.x.x.x.x.x.x.x.x.x.x.x.x.f.f.f.- - - n n n ^ ^ ^ 5.5.5.5.5.5.5.5.5.1.1.1.4.4.4.4.4.4.5.5.5.q.q.q.9.9.9.2.2.2.w w w f f f b b b f.f.f.x.x.x.x.x.x.x.x.x.x.x.x.x.x.x.x.x.x.x.x.x.x.x.x.",
"x.x.x.x.x.x.x.x.x.x.x.x.x.x.x.x.x.x.f.f.f.- - - n n n ^ ^ ^ 5.5.5.5.5.5.5.5.5.1.1.1.4.4.4.4.4.4.5.5.5.q.q.q.9.9.9.2.2.2.w w w f f f b b b f.f.f.x.x.x.x.x.x.x.x.x.x.x.x.x.x.x.x.x.x.x.x.x.x.x.x.",
"x.x.x.x.x.x.x.x.x.x.x.x.x.x.x.x.x.x.x.x.x.; ; ; a a a a a a 2.2.2.9.9.9.9.9.9.& & & * * * D D D 9.9.9.9.9.9.9.9.9.p p p m m m d d d 1 1 1 f.f.f.x.x.x.x.x.x.x.x.x.x.x.x.x.x.x.x.x.x.x.x.x.x.x.x.",
"x.x.x.x.x.x.x.x.x.x.x.x.x.x.x.x.x.x.x.x.x.; ; ; a a a a a a 2.2.2.9.9.9.9.9.9.& & & * * * D D D 9.9.9.9.9.9.9.9.9.p p p m m m d d d 1 1 1 f.f.f.x.x.x.x.x.x.x.x.x.x.x.x.x.x.x.x.x.x.x.x.x.x.x.x.",
"x.x.x.x.x.x.x.x.x.x.x.x.x.x.x.x.x.x.x.x.x.; ; ; a a a a a a 2.2.2.9.9.9.9.9.9.& & & * * * D D D 9.9.9.9.9.9.9.9.9.p p p m m m d d d 1 1 1 f.f.f.x.x.x.x.x.x.x.x.x.x.x.x.x.x.x.x.x.x.x.x.x.x.x.x.",
"x.x.x.x.x.x.x.x.x.x.x.x.x.x.x.x.x.x.x.x.x.x.x.x.> > > a a a 5.5.5.5.5.5.5.5.5.5.5.5.2.2.2.2.2.2.2.2.2.5.5.5.< < < f f f j j j : : : x.x.x.z.l.l.x.x.x.x.x.x.x.x.x.x.x.x.x.x.x.x.x.x.x.x.x.x.x.x.",
"x.x.x.x.x.x.x.x.x.x.x.x.x.x.x.x.x.x.x.x.x.x.x.x.> > > w w w 4.5.5.5.5.5.5.5.5.5.5.5.2.2.2.2.2.2.2.2.2.5.5.5.< < < f f f j j j : : : x.x.x.x.l.l.x.x.x.x.x.x.x.x.x.x.x.x.x.x.x.x.x.x.x.x.x.x.x.x.",
"x.x.x.x.x.x.x.x.x.x.x.x.x.x.x.x.x.x.x.x.x.x.x.x.> > > w w w 5.5.5.5.5.5.5.5.5.5.5.5.2.2.2.2.2.2.2.2.2.5.5.5.< < < f f f j j j : : : x.x.x.x.x.x.x.x.x.x.x.x.x.x.x.x.x.x.x.x.x.x.x.x.x.x.x.x.x.x.",
"x.x.x.x.x.x.x.x.x.x.x.x.x.x.x.x.x.x.x.x.x.x.x.x.x.x.x.a w a a a a j j j 1.1.1.4.4.4.5.5.5.5.5.5.5.5.5.i i i d d d j j j q q q q q q x.x.x.x.x.x.x.x.x.x.x.x.x.x.x.x.x.x.x.x.x.x.x.x.x.x.x.x.x.x.",
"x.x.x.x.x.x.x.x.x.x.x.x.x.x.x.x.x.x.x.x.x.x.x.x.x.x.x.a w a a a a j j j 1.1.1.4.4.4.5.5.5.5.5.5.5.5.5.i i i d d d j j j q q q q q q x.x.x.x.x.x.x.x.x.x.x.x.x.x.x.x.x.x.x.x.x.x.x.x.x.x.x.x.x.x.",
"x.x.x.x.x.x.x.x.x.x.x.x.x.x.x.x.x.x.x.x.x.x.x.x.x.x.x.a a a a a a j j j 1.1.1.4.4.4.5.5.5.5.5.5.5.5.5.i i i d d d j j j q q q q q q x.x.x.x.x.x.x.x.x.x.x.x.x.x.x.x.x.x.x.x.x.x.x.x.x.x.x.x.x.x.",
"x.x.x.x.x.x.x.x.x.x.x.x.x.x.x.x.x.x.x.x.x.x.x.x.x.x.x.x.x.x.$ $ $ Z Z Z Z Z Z + + + 5.5.5.2.2.2.2.2.2.8 8 8 F F F q q q q q q x.x.x.x.x.x.x.x.x.x.x.x.x.x.x.x.x.x.x.x.x.x.x.x.x.x.x.x.x.x.x.x.x.",
"x.x.x.x.x.x.x.x.x.x.x.x.x.x.x.x.x.x.x.x.x.x.x.x.x.x.x.x.x.x.$ $ $ Z Z Z Z Z Z + + + 5.5.5.2.2.2.2.2.2.8 8 8 F F F q q q q q q x.x.x.x.x.x.x.x.x.x.x.x.x.x.x.x.x.x.x.x.x.x.x.x.x.x.x.x.x.x.x.x.x.",
"x.x.x.x.x.x.x.x.x.x.x.x.x.x.x.x.x.x.x.x.x.x.x.x.x.x.x.x.x.x.$ $ $ Z Z Z Z Z Z + + + 5.5.5.2.2.2.2.2.2.8 8 8 F F F q q q q q q x.x.x.x.x.x.x.x.x.x.x.x.x.x.x.x.x.x.x.x.x.x.x.x.x.x.x.x.x.x.x.x.x.",
"x.x.x.x.x.x.x.x.x.x.x.x.x.x.x.x.x.x.x.x.x.x.x.x.x.x.x.x.x.x.x.x.x.l l l K K K =.=.=.5.5.5.5.5.5.2.2.2.&.&.&.A A A J J J x.x.x.z.z.z.x.x.x.x.x.x.x.x.x.x.x.x.x.x.x.x.x.x.x.x.x.x.x.x.x.x.x.x.x.x.",
"x.x.x.x.x.x.x.x.x.x.x.x.x.x.x.x.x.x.x.x.x.x.x.x.x.x.x.x.x.x.x.x.x.l l l K K K =.=.=.5.5.5.5.5.5.2.2.2.&.&.&.A A A J J J x.x.x.z.z.z.x.x.x.x.x.x.x.x.x.x.x.x.x.x.x.x.x.x.x.x.x.x.x.x.x.x.x.x.x.x.",
"x.x.x.x.x.x.x.x.x.x.x.x.x.x.x.x.x.x.x.x.x.x.x.x.x.x.x.x.x.x.x.x.x.l l l K K K =.=.=.5.5.5.5.5.5.2.2.2.&.&.&.A A A J J J x.x.x.z.z.z.x.x.x.x.x.x.x.x.x.x.x.x.x.x.x.x.x.x.x.x.x.x.x.x.x.x.x.x.x.x.",
"x.x.x.x.x.x.x.x.x.x.x.x.x.x.x.x.x.x.x.x.x.x.x.x.f.f.f.-.-.-.=.=.=.%.%.%.&.&.&.&.&.&.=.=.=.=.=.=.*.*.*.' ' ' %.%.%.V V V &.&.&.%.%.%.x.x.x.x.x.x.x.x.x.x.x.x.x.x.x.x.x.x.x.x.x.x.x.x.x.x.x.x.x.x.",
"x.x.x.x.x.x.x.x.x.x.x.x.x.x.x.x.x.x.x.x.x.x.x.x.f.f.f.-.-.-.=.=.=.%.%.%.&.&.&.&.&.&.=.=.=.=.=.=.*.*.*.' ' ' %.%.%.V V V &.&.&.%.%.%.x.x.x.x.x.x.x.x.x.x.x.x.x.x.x.x.x.x.x.x.x.x.x.x.x.x.x.x.x.x.",
"x.x.x.x.x.x.x.x.x.x.x.x.x.x.x.x.x.x.x.x.x.x.x.x.f.f.f.-.-.-.=.=.=.%.%.%.&.&.&.&.&.&.=.=.=.=.=.=.*.*.*.' ' ' %.%.%.V V V &.&.&.%.%.%.x.x.x.x.x.x.x.x.x.x.x.x.x.x.x.x.x.x.x.x.x.x.x.x.x.x.x.x.x.x.",
"x.x.x.x.x.x.x.x.x.x.x.x.x.x.x.x.x.x.x.x.x.x.x.x.x.x.x.;.;.;.] ] ] ' ' ' =.=.=.&.&.&.V V V =.=.=.%.%.%.` ` ` . . . % % % =.=.=.$.$.$.z.z.z.x.x.x.x.x.x.x.x.x.x.x.x.x.x.x.x.x.x.x.x.x.x.x.x.x.x.x.",
"x.x.x.x.x.x.x.x.x.x.x.x.x.x.x.x.x.x.x.x.x.x.x.x.x.x.x.;.;.;.] ] ] ' ' ' =.=.=.&.&.&.V V V =.=.=.%.%.%.` ` ` . . . % % % =.=.=.$.$.$.z.z.z.x.x.x.x.x.x.x.x.x.x.x.x.x.x.x.x.x.x.x.x.x.x.x.x.x.x.x.",
"x.x.x.x.x.x.x.x.x.x.x.x.x.x.x.x.x.x.x.x.x.x.x.x.x.x.x.;.;.;.] ] ] ' ' ' =.=.=.&.&.&.V V V =.=.=.%.%.%.` ` ` . . . % % % =.=.=.$.$.$.z.z.z.x.x.x.x.x.x.x.x.x.x.x.x.x.x.x.x.x.x.x.x.x.x.x.x.x.x.x.",
"x.x.x.x.x.x.x.x.x.x.x.x.x.x.x.x.x.x.x.x.x.x.x.x.x.x.x.Q Q Q o.o.o.B B B       %.%.%.] ] ] $.$.$.V V V V V V ' ' ' S S S U U U I I I z.z.z.x.x.x.x.x.x.x.x.x.x.x.x.x.x.x.x.x.x.x.x.x.x.x.x.x.x.x.",
"x.x.x.x.x.x.x.x.x.x.x.x.x.x.x.x.x.x.x.x.x.x.x.x.x.x.x.Q Q Q o.o.o.B B B       %.%.%.] ] ] $.$.$.V V V V V V ' ' ' S S S U U U I I I z.z.z.x.x.x.x.x.x.x.x.x.x.x.x.x.x.x.x.x.x.x.x.x.x.x.x.x.x.x.",
"x.x.x.x.x.x.x.x.x.x.x.x.x.x.x.x.x.x.x.x.x.x.x.x.x.x.x.Q Q Q o.o.o.B B B       %.%.%.] ] ] $.$.$.V V V V V V ' ' ' S S S U U U I I I z.z.z.x.x.x.x.x.x.x.x.x.x.x.x.x.x.x.x.x.x.x.x.x.x.x.x.x.x.x.",
"x.x.x.x.x.x.x.x.x.x.x.x.x.x.x.x.x.x.x.x.x.x.x.x.x.x.x.t.t.t.6.6.6.>.>.>.{ { { +.+.+.} } } @.@.@.>.>.>.#.#.#.O.O.O.~ ~ ~ r.r.r.w.w.w.h.h.h.x.x.x.x.x.x.x.x.x.x.x.x.x.x.x.x.x.x.x.x.x.x.x.x.x.x.x.",
"x.x.x.x.x.x.x.x.x.x.x.x.x.x.x.x.x.x.x.x.x.x.x.x.x.x.x.t.t.t.6.6.6.>.>.>.{ { { +.+.+.} } } @.@.@.>.>.>.#.#.#.O.O.O.~ ~ ~ r.r.r.w.w.w.h.h.h.x.x.x.x.x.x.x.x.x.x.x.x.x.x.x.x.x.x.x.x.x.x.x.x.x.x.x.",
"x.x.x.x.x.x.x.x.x.x.x.x.x.x.x.x.x.x.x.x.x.x.x.x.l.l.x.t.t.t.6.6.6.>.>.>.{ { { +.+.+.} } } @.@.@.>.>.>.#.#.#.O.O.O.~ ~ ~ r.r.r.w.w.w.h.h.h.x.x.x.x.x.x.x.x.x.x.x.x.x.x.x.x.x.x.x.x.x.x.x.x.x.x.x.",
"x.x.x.x.x.x.x.x.x.x.x.x.x.x.x.x.x.x.x.x.x.x.x.x.x.x.x.e.e.e.7.7.7.,.,.,.:.:.:.@.@.@.O.O.O.O.O.O.+.+.+.#.#.#.[ [ [ C C C r.r.r.7.7.7.x.x.x.x.x.x.x.x.x.x.x.x.x.x.x.x.x.x.x.x.x.x.x.x.x.x.x.x.x.x.",
"x.x.x.x.x.x.x.x.x.x.x.x.x.x.x.x.x.x.x.x.x.x.x.x.x.x.x.e.e.e.7.7.7.,.,.,.:.:.:.@.@.@.O.O.O.O.O.O.+.+.+.#.#.#.[ [ [ C C C r.r.r.7.7.7.x.x.x.x.x.x.x.x.x.x.x.x.x.x.x.x.x.x.x.x.x.x.x.x.x.x.x.x.x.x.",
"x.x.x.x.x.x.x.x.x.x.x.x.x.x.x.x.x.x.x.x.x.x.x.x.x.x.x.e.e.e.7.7.7.,.,.,.:.:.:.@.@.@.O.O.O.O.O.O.+.+.+.#.#.#.[ [ [ C C C r.r.r.7.7.7.x.x.x.x.x.x.x.x.x.x.x.x.x.x.x.x.x.x.x.x.x.x.x.x.x.x.x.x.x.x.",
"x.x.x.x.x.x.x.x.x.x.x.x.x.x.x.x.x.x.x.x.x.x.x.x.x.x.x.x.x.x.x.x.x.>.>.>.! ! ! C C C * * * O O O       ~ ~ ~ >.>.>.[ [ [ x.x.x.x.x.x.x.x.x.x.x.x.x.x.x.x.x.x.x.x.x.x.x.x.x.x.x.x.x.x.x.x.x.x.x.x.",
"x.x.x.x.x.x.x.x.x.x.x.x.x.x.x.x.x.x.x.x.x.x.x.x.x.x.x.x.x.x.x.x.x.>.>.>.! ! ! C C C * * * O O O       ~ ~ ~ >.>.>.[ [ [ x.x.x.x.x.x.x.x.x.x.x.x.x.x.x.x.x.x.x.x.x.x.x.x.x.x.x.x.x.x.x.x.x.x.x.x.",
"x.x.x.x.x.x.x.x.x.x.x.x.x.x.x.x.x.x.x.x.x.x.x.x.x.x.x.x.x.x.x.x.x.>.>.>.! ! ! C C C * * * O O O       ~ ~ ~ >.>.>.[ [ [ x.x.x.x.x.x.x.x.x.x.x.x.x.x.x.x.x.x.x.x.x.x.x.x.x.x.x.x.x.x.x.x.x.x.x.x.",
"x.x.x.x.x.x.x.x.x.x.x.x.x.x.x.x.x.x.x.x.x.x.x.x.x.x.x.x.x.x.x.x.x.4 4 4 7 7 7 u u u = = = x.x.x.w w w y y y 9 9 9 3 3 3 x.x.x.x.x.x.x.x.x.x.x.x.x.x.x.x.x.x.x.x.x.x.x.x.x.x.x.x.x.x.x.x.x.x.x.x.",
"x.x.x.x.x.x.x.x.x.x.x.x.x.x.x.x.x.x.x.x.x.x.x.x.x.x.x.x.x.x.x.x.x.4 4 4 7 7 7 u u u = = = x.x.x.w w w y y y 9 9 9 3 3 3 x.x.x.x.x.x.x.x.x.x.x.x.x.x.x.x.x.x.x.x.x.x.x.x.x.x.x.x.x.x.x.x.x.x.x.x.",
"x.x.x.x.x.x.x.x.x.x.x.x.x.x.x.x.x.x.x.x.x.x.x.x.x.x.x.x.x.x.x.x.x.4 4 4 7 7 7 u u u = = = x.x.x.w w w y y y 9 9 9 3 3 3 x.x.x.x.x.x.x.x.x.x.x.x.x.x.x.x.x.x.x.x.x.x.x.x.x.x.x.x.x.x.x.x.x.x.x.x.",
"x.x.x.x.x.x.x.x.x.x.x.x.x.x.x.x.x.x.x.x.x.x.x.x.x.x.x.x.x.x.j.j.j. . . .0 0 0 f f f O O O x.x.x./ / / y y y _ _ _ c c c x.x.x.x.x.x.x.x.x.x.x.x.x.x.x.x.x.x.x.x.x.x.x.x.x.x.x.x.x.x.x.x.x.x.x.x.",
"x.x.x.x.x.x.x.x.x.x.x.x.x.x.x.x.x.x.x.x.x.x.x.x.x.x.x.x.x.x.j.j.j. . . .0 0 0 f f f O O O x.x.x./ / / y y y _ _ _ c c c x.x.x.x.x.x.x.x.x.x.x.x.x.x.x.x.x.x.x.x.x.x.x.x.x.x.x.x.x.x.x.x.x.x.x.x.",
"x.x.x.x.x.x.x.x.x.x.x.x.x.x.x.x.x.x.x.x.x.x.x.x.x.x.x.x.x.x.j.j.j. . . .0 0 0 f f f O O O x.x.x./ / / y y y _ _ _ c c c x.x.x.x.x.x.x.x.x.x.x.x.x.x.x.x.x.x.x.x.x.x.x.x.x.x.x.x.x.x.x.x.x.x.x.x.",
"x.x.x.x.x.x.x.x.x.x.x.x.x.x.x.x.x.x.x.x.x.x.x.x.x.x.x.x.x.x.x.x.x.P P P L L L L L L # # # f.f.f.) ) )       o o o * * * x.x.x.x.x.x.x.x.x.x.x.x.x.x.x.x.x.x.x.x.x.x.x.x.x.x.x.x.x.x.x.x.x.x.x.x.",
"x.x.x.x.x.x.x.x.x.x.x.x.x.x.x.x.x.x.x.x.x.x.x.x.x.x.x.x.x.x.x.x.x.P P P L L L L L L # # # f.f.f.) ) )       o o o * * * x.x.x.x.x.x.x.x.x.x.x.x.x.x.x.x.x.x.x.x.x.x.x.x.x.x.x.x.x.x.x.x.x.x.x.x.",
"x.x.x.x.x.x.x.x.x.x.x.x.x.x.x.x.x.x.x.x.x.x.x.x.x.x.x.x.x.x.x.x.x.P P P L L L L L L # # # f.f.f.) ) )       o o o * * * x.x.x.x.x.x.x.x.x.x.x.x.x.x.x.x.x.x.x.x.x.x.x.x.x.x.x.x.x.x.x.x.x.x.x.x."
};
