/* XPM */
static char *result[] = {
/* columns rows colors chars-per-pixel */
"170 42 5 1 ",
"  c #1B2121",
". c #E26648",
"X c #FEA969",
"o c #F2E9F0",
"O c #ACBD4F",
/* pixels */
"OOOOOOOOOOOOOOOOOOOOOOOOOOOOOOOOOOOOOOOOOOOOOOOOOOOOOOOOOOOOOOOOOOOOOOOOOOOOOOOOOOOOOOOOOOOOOOOOOOOOOOOOOOOOOOOOOOOOOOOOOOOOOOOOOOOOOOOOOOOOOOOOOOOOOOOOOOOOOOOOOOOOOOOOOO",
"OOOOOOOOOOOOOOOOOOOOOOOOOOOOOOOOOOOOOOOOOOOOOOOOOOOOOOOOOOOOOOOOOOOOOOOOOOOOOOOOOOOOOOOOOOOOOOOOOOOOOOOOOOOOOOOOOOOOOOOOOOOOOOOOOOOOOOOOOOOOOOOOOOOOOOOOOOOOOOOOOOOOOOOOOO",
"OOOOOOOOOOOOOOOOOOOOOOOOOOOOOOOOOOOOOOOOOOOOOOOOOOOOOOOOOOOOOOOOOOOOOOOOOOOOOOOOOOOOOOOOOOOOOOOOOOOOOOOOOOOOOOOOOOOOOOOOOOOOOOOOOOOOOOOOOOOOOOOOOOOOOOOOOOOOOOOOOOOOOOOOOO",
"OOOOOOOOOOOOOOOOOOOOOOOOOOOOOOOOOOOOOOOOOOOOOOOOOOOOOOOOOOOOOOOOOOOOOOOOOOOOOOOOOOOOOOOOOOOOOOOOOOOOOOOOOOOOOOOOOOOOOOOOOOOOOOOOOOOOOOOOOOOOOOOOOOOOOOOOOOOOOOOOOOOOOOOOOO",
"OOOOOOOOOOOOOOOOOOOOOOOOOOOOOOOOOOOOOOOOOOOOOOOOOOOOOOOOOOOOOOOOOOOOOOOOOOOOOOOOOOOOOOOOOOOOOOOOOOOOOOOOOOOOOOOOOOOOOOOOOOOOOOOOOOOOOOOOOOOOOOOOOOOOOOOOOOOOOOOOOOOOOOOOOO",
"OOOOOOOOOOOOOOOOOOOOOOOOOOOOOOOOOOOOOOOOOOOOOOOOOOOOOOOOOOOOOOOOOOOOOOOOOOOOOOOOOOOOOOOOOOOOOOOOOOOOOOOOOOOOOOOOOOOOOOOOOOOOOOOOOOOOOOOOOOOOOOOOOOOOOOOOOOOOOOOOOOOOOOOOOO",
"OOOOOOOOOOOOOOOOOOOOOOOOOOOOOOOOOOOOOOOOOOOOOOOOOOOOOOOOOOOOOOOOOOOOOOOOOOOOOOOOOOOOOOOOOOOOOOOOOOOOOOOOOOOOOOOOOOOOOOOOOOOOOOOOOOOOOOOOOOOOOOOOOOOOOOOOOOOOOOOOOOOOOOOOOO",
"OOOOOOOOOOOOOOOOOOOOOOOOOOOOOOOOOOOOOOOOOOOOOOOOOOOOOOOOOOOOOOOOOOOOOOOOOOOOOOOOOOOOOOOOOOOOOOOOOOOOOOOOOOOOOOOOOOOOOOOOOOOOOOOOOOOOOOOOOOOOOOOOOOOOOOOOOOOOOOOOOOOOOOOOOO",
"OOOOOOOOOOOOOOOOOOOOOOOOOOOOOOOOOOOOOOOOOOOOOOOOOOOOOOOOOOOOOOOOOOOOOOOOOOOOOOOOOOOOOOOOOOOOOOO      OOOOOOOOOOOOOOOOOOOOOOOOOOOOOOOOOOOOOOOOOOOOOOOOOOOOOOOOOOOOOOOOOOOOO",
"OOOOOOOOOOOOOOOOOOOOOOOOOOOOOOOOOOOOOOOOOOOOOOOOOOOOOOO        OOOOOOOOOOOOOOOOOOOOOOOOOOOOOOOO      OOOOOOOOOOOOOOOOOOOOOOOOOOOOOOOOOOOOOOOOOOOOOOOOOOOOOOOOOOOOOOOOOOOOO",
"OOOOOOOOOOOOOO          OOOOOOOOOOOOOOOOOOOOOOOOOOOOOOO        OOOOOOOOOOOOOOOOOOOOOOOOOOOOOOOO      OOOOOOOOOOOOOOOOOOOOOOOOOOOOOOOOOOOOOOOOOOOOOOOOOOOOOOOOOOOOOOOOOOOOO",
"OOOOOOOOOOOOOO          OOOOOOOOOOOOOOOOOOOOOOOOOOOOOOO        OOOOOOOOOOOOOOOOOOOOOOOOOOOO    ooooXX    OOOOOOOOOOOOOOOOOOOOOOOOOOOOOO        OOOOOOOOOOOOOOOOOOOOOOOOOOO",
"OOOOOOOOOOOOOO          OOOOOOOOOOOOOOOOOOOOOOOOOOOOO  ..ooooXX  OOOOOOOOOOOOOOOOOOOOOOOOOO    ooooXX    OOOOOOOOOOOOOOOOOOOOOOOOOOOOOO        OOOOOOOOOOOOOOOOOOOOOOOOOOO",
"OOOOOOOOOO    ooooXXXXXX  OOOOOOOOOOOOOOOOOOOOOOOOOOO  ..ooooXX  OOOOOOOOOOOOOOOOOOOOOOOOOO    XX..XX    OOOOOOOOOOOOOOOOOOOOOOOOOOOOOO        OOOOOOOOOOOOOOOOOOOOOOOOOOO",
"OOOOOOOOOO    ooooXXXXXX  OOOOOOOOOOOOOOOOOOOOOOO    ..oo......XX  OOOOOOOOOOOOOOOOOOOOOOOO    XX..XX    OOOOOOOOOOOOOOOOOOOOOOOOOOOO  XXoooo..  OOOOOOOOOOOOOOOOOOOOOOOOO",
"OOOOOOOO  oooo..........XX  OOOOOOOOOOOOOOOOOOOOO    ..oo......XX  OOOOOOOOOOOOOOOOOOOOOOOO    XX..XX    OOOOOOOOOOOOOOOOOOOOOOOOOOOO  XXoooo..  OOOOOOOOOOOOOOOOOOOOOOOOO",
"OOOOOOOO  oooo..........XX  OOOOOOOOOOOOOOOOOOOOO    ..oo......XX  OOOOOOOOOOOOOOOOOOOOOOOO    XX..XX    OOOOOOOOOOOOOOOOOOOOOOOOOO  XX......oo..  OOOOOOOOOOOOOOOOOOOOOOO",
"OOOOOOOO  oooo..........XX  OOOOOOOOOOOOOOOOOOO  ....XX..........XX    OOOOOOOOOOOOOOOOOOOO    XX..XX    OOOOOOOOOOOOOOOOOOOOOOOOOO  XX......oo..  OOOOOOOOOOOOOOOOOOOOOOO",
"OOOOOO  XX................XX  OOOOOOOOOOOOOOOOO  ....XX..........XX    OOOOOOOOOOOOOOOOOOOO    XX..XX    OOOOOOOOOOOOOOOOOOOOOOOOOO  XX......oo..  OOOOOOOOOOOOOOOOOOOOOOO",
"OOOOOO  XX................XX  OOOOOOOOOOOOOOOOO  ....XX..........XX    OOOOOOOOOOOOOOOOOOOO    XX..XX    OOOOOOOOOOOOOOOOOOOOOO    XX..........XX..    OOOOOOOOOOOOOOOOOOO",
"OOOOOO  XX................XX  OOOOOOOOOOOOOOOOO  ....XX..........XX    OOOOOOOOOOOOOOOOOOOO    XX..XX    OOOOOOOOOOOOOOOOOOOOOO    XX..........XX..    OOOOOOOOOOOOOOOOOOO",
"OOOOOO  XX................XX  OOOOOOOOOOOOOOOOO  ....XX..........XX    OOOOOOOOOOOOOOOOOOOO    XX..XX    OOOOOOOOOOOOOOOOOOOOOO    XX..........XX..    OOOOOOOOOOOOOOOOOOO",
"OOOOOO  XX................XX  OOOOOOOOOOOOOOOOO  ....XX..........XX    OOOOOOOOOOOOOOOOOOOO    XX..XX    OOOOOOOOOOOOOOOOOOOOOO    XX..........XX..    OOOOOOOOOOOOOOOOOOO",
"OOOOOO  XX................XX  OOOOOOOOOOOOOOOOO  ....XX..........XX    OOOOOOOOOOOOOOOOOOOO    XX..XX    OOOOOOOOOOOOOOOOOOOOOO    XX..........XX..    OOOOOOOOOOOOOOOOOOO",
"OOOOOO  XX................XX  OOOOOOOOOOOOOOOOO  ....XX..........XX    OOOOOOOOOOOOOOOOOOOO    XX..XX    OOOOOOOOOOOOOOOOOOOOOO    XX..........XX..    OOOOOOOOOOOOOOOOOOO",
"OOOOOO  XX................XX  OOOOOOOOOOOOOOOOO  ....XX..........XX    OOOOOOOOOOOOOOOOOOOO    XX..XX    OOOOOOOOOOOOOOOOOOOOOO    XX..........XX..    OOOOOOOOOOOOOOOOOOO",
"OOOOOO  XX................XX  OOOOOOOOOOOOOOOOO  ....XX..........XX    OOOOOOOOOOOOOOOOOOOO    XX..XX    OOOOOOOOOOOOOOOOOOOOOO    XX..........XX..    OOOOOOOOOOOOOOOOOOO",
"OOOOOO  XX................XX  OOOOOOOOOOOOOOOOO  ....XX..........XX    OOOOOOOOOOOOOOOOOOOO    XX..XX    OOOOOOOOOOOOOOOOOOOOOO    XX..........XX..    OOOOOOOOOOOOOOOOOOO",
"OOOOOO  XX................XX  OOOOOOOOOOOOOOOOOOO    ..XX......XX  OOOOOOOOOOOOOOOOOOOOOOOO    XXXXXX    OOOOOOOOOOOOOOOOOOOOOO    XX..........XX..    OOOOOOOOOOOOOOOOOOO",
"OOOOOOOO  XXXX..........XX  OOOOOOOOOOOOOOOOOOOOOOOOO  ..XXXXXX  OOOOOOOOOOOOOOOOOOOOOOOOOO    XXXXXX    OOOOOOOOOOOOOOOOOOOOOO    XX..........XX..    OOOOOOOOOOOOOOOOOOO",
"OOOOOOOOOO    XXXXXXXXXX  OOOOOOOOOOOOOOOOOOOOOOOOOOO  ..XXXXXX  OOOOOOOOOOOOOOOOOOOOOOOOOO    XXXXXX    OOOOOOOOOOOOOOOOOOOOOOOOOO  XX......XX..  OOOOOOOOOOOOOOOOOOOOOOO",
"OOOOOOOOOO    XXXXXXXXXX  OOOOOOOOOOOOOOOOOOOOOOOOOOO  ..XXXXXX  OOOOOOOOOOOOOOOOOOOOOOOOOOOOOO      OOOOOOOOOOOOOOOOOOOOOOOOOOOOOOOO  XXXXXX..  OOOOOOOOOOOOOOOOOOOOOOOOO",
"OOOOOOOOOO    XXXXXXXXXX  OOOOOOOOOOOOOOOOOOOOOOOOOOOOO        OOOOOOOOOOOOOOOOOOOOOOOOOOOOOOOO      OOOOOOOOOOOOOOOOOOOOOOOOOOOOOOOO  XXXXXX..  OOOOOOOOOOOOOOOOOOOOOOOOO",
"OOOOOOOOOOOOOO          OOOOOOOOOOOOOOOOOOOOOOOOOOOOOOO        OOOOOOOOOOOOOOOOOOOOOOOOOOOOOOOOOOOOOOOOOOOOOOOOOOOOOOOOOOOOOOOOOOOOOO  XXXXXX..  OOOOOOOOOOOOOOOOOOOOOOOOO",
"OOOOOOOOOOOOOO          OOOOOOOOOOOOOOOOOOOOOOOOOOOOOOOOOOOOOOOOOOOOOOOOOOOOOOOOOOOOOOOOOOOOOOOOOOOOOOOOOOOOOOOOOOOOOOOOOOOOOOOOOOOOOOO        OOOOOOOOOOOOOOOOOOOOOOOOOOO",
"OOOOOOOOOOOOOOOOOOOOOOOOOOOOOOOOOOOOOOOOOOOOOOOOOOOOOOOOOOOOOOOOOOOOOOOOOOOOOOOOOOOOOOOOOOOOOOOOOOOOOOOOOOOOOOOOOOOOOOOOOOOOOOOOOOOOOOO        OOOOOOOOOOOOOOOOOOOOOOOOOOO",
"OOOOOOOOOOOOOOOOOOOOOOOOOOOOOOOOOOOOOOOOOOOOOOOOOOOOOOOOOOOOOOOOOOOOOOOOOOOOOOOOOOOOOOOOOOOOOOOOOOOOOOOOOOOOOOOOOOOOOOOOOOOOOOOOOOOOOOOOOOOOOOOOOOOOOOOOOOOOOOOOOOOOOOOOOO",
"OOOOOOOOOOOOOOOOOOOOOOOOOOOOOOOOOOOOOOOOOOOOOOOOOOOOOOOOOOOOOOOOOOOOOOOOOOOOOOOOOOOOOOOOOOOOOOOOOOOOOOOOOOOOOOOOOOOOOOOOOOOOOOOOOOOOOOOOOOOOOOOOOOOOOOOOOOOOOOOOOOOOOOOOOO",
"OOOOOOOOOOOOOOOOOOOOOOOOOOOOOOOOOOOOOOOOOOOOOOOOOOOOOOOOOOOOOOOOOOOOOOOOOOOOOOOOOOOOOOOOOOOOOOOOOOOOOOOOOOOOOOOOOOOOOOOOOOOOOOOOOOOOOOOOOOOOOOOOOOOOOOOOOOOOOOOOOOOOOOOOOO",
"OOOOOOOOOOOOOOOOOOOOOOOOOOOOOOOOOOOOOOOOOOOOOOOOOOOOOOOOOOOOOOOOOOOOOOOOOOOOOOOOOOOOOOOOOOOOOOOOOOOOOOOOOOOOOOOOOOOOOOOOOOOOOOOOOOOOOOOOOOOOOOOOOOOOOOOOOOOOOOOOOOOOOOOOOO",
"OOOOOOOOOOOOOOOOOOOOOOOOOOOOOOOOOOOOOOOOOOOOOOOOOOOOOOOOOOOOOOOOOOOOOOOOOOOOOOOOOOOOOOOOOOOOOOOOOOOOOOOOOOOOOOOOOOOOOOOOOOOOOOOOOOOOOOOOOOOOOOOOOOOOOOOOOOOOOOOOOOOOOOOOOO",
"OOOOOOOOOOOOOOOOOOOOOOOOOOOOOOOOOOOOOOOOOOOOOOOOOOOOOOOOOOOOOOOOOOOOOOOOOOOOOOOOOOOOOOOOOOOOOOOOOOOOOOOOOOOOOOOOOOOOOOOOOOOOOOOOOOOOOOOOOOOOOOOOOOOOOOOOOOOOOOOOOOOOOOOOOO"
};
