/* XPM */
static char *cd24a23f5d7d4ef0b0ef262585ba02700wrRazXrlo7pu9D6[] = {
/* columns rows colors chars-per-pixel */
"40 10 39 1 ",
"  c None",
". c #141B1B",
"X c #3B3643",
"o c #4E484A",
"O c #5F7160",
"+ c #8D977F",
"@ c #ABC2BC",
"# c #A8A129",
"$ c #56864C",
"% c #345A52",
"& c #FFCBA9",
"* c #F2AD7D",
"= c #EF914F",
"- c #CF736D",
"; c #D14B34",
": c #79B8CE",
"> c #548789",
", c #2D697B",
"< c #4A5270",
"1 c #D3865F",
"2 c #A3754E",
"3 c #965340",
"4 c #8F3E56",
"5 c #A5608B",
"6 c #F2EAF1",
"7 c #543C52",
"8 c #E0394C",
"9 c #D78B4A",
"0 c #F1C471",
"q c #FFE18D",
"w c #FFAD5D",
"e c #E46D3A",
"r c #FCE2CA",
"t c #EECF9B",
"y c #D2B37D",
"u c #C8966B",
"i c #BD7959",
"p c #D3A2C0",
"a c white",
/* pixels */
"   ....      ...       ...       ...    ",
"  .66ww.    .e6w.     .66w.     .w6e.   ",
" .6eeeew.  .e6eew.    .wew.    .wee6e.  ",
".weeeeeew..eweeeew.   .wew.   .weeeewe. ",
".weeeeeew..eweeeew.   .wew.   .weeeewe. ",
".weeeeeew..eweeeew.   .wew.   .weeeewe. ",
".weeeeeew..eweeeew.   .wew.   .weeeewe. ",
" .weeeew.  .eweew.    .wew.    .weewe.  ",
"  .wwww.    .eww.     .www.     .wwe.   ",
"   ....      ...       ...       ...    "
};
