/* XPM */
static char *_5baf93d88a946a2e126cfd4b3f5af68Cbo66jZShC0Sosay[] = {
/* columns rows colors chars-per-pixel */
"162 41 9 1 ",
"  c None",
". c #1B2121",
"X c #5F7161",
"o c #4C8050",
"O c #ACBD4F",
"+ c #F0AB55",
"@ c #FFE176",
"# c #AAC2BB",
"$ c white",
/* pixels */
"                                                                                                                                                                  ",
"                                                                                                                                                                  ",
"                                                                                                                                                                  ",
"                                                                                                                                                                  ",
"                                                                                                                                                                  ",
"                                                                                                                                                                  ",
"                                                                                                                                                                  ",
"                                                                                                                                                                  ",
"            ...............                          ..............                                                                                               ",
"         ...$$$$$$OOO$$$$$$.                         ..............                           ...............                                                     ",
"         ...$$$$$$OOO$$$$$$.                         ..............                           ...............                                                     ",
"         ...$$$$$$OOO$$$$$$.                        .$$$$$OOO$$$$$$.                          ...............                          ..............             ",
"        .$$$$$$$@@@@@@$$$$$$.                      .$$$$$ OOO $$$$$$..                       .$$$$$$OOO$$$$$$.                       ..$$$$$OO$$$$$$$..           ",
"        .$$$$$@@@@@@@@+$$$$$.                      .$$$$@@@@@@+$$$$$..                    ...$$$$$$ OOO $$$$$$..                    .$$$$$$ OO   $$$$$$.          ",
"        .OOOO#@@@@@@@@+###OO.                      .$$$$@@@@@@+$$$$$..                    ...$$$$$$@@@@@$$$$$$..                    .$$$$$$ OO   $$$$$$.          ",
"        .OOOO#@@@@@@@@+###OO.                      .OO##@@@@@@+###OO..                    ...$$$$$$@@@@@$$$$$$..                    .$$$$$$@@@@@@$$$$$$.          ",
"       .OOOOO$##++++++#$$$OOO..                    .OO##@@@@@@+###OO..                   .OOOOO##@@@@@@@+++#OOOO.                   .$$$$$$@@@@@@$$$$$$.          ",
"       .OOOOO$##++++++#$$$OOO..                 ...OOO$$@@@@@@+$$$OOOO..                 .OOOOO##@@@@@@@+++#OOOO.                  .OOOO#@@@@@@@@+#OOOOO..        ",
"       .OOOO$$$$##XXX#$$$$$OO..                 ...OO$$$$+++++$$$$$OOO..                 .OOOOO##@@@@@@@+++#OOOO.                  .OOOO#@@@@@@@@+#OOOOO..        ",
"       ..$$$$$$$$$###$$$$$$$...                 ...OO$$$$+++++$$$$$OOO..                 ....O$$$##+++++###$$O...                  .OOOO#@@@@@@@@+#OOOOO..        ",
"       ..$$$$$$$$$###$$$$$$$...                 ....$$$$$#XXX#$$$$$$....                 ....O$$$##+++++###$$O...                  ..OO$$##++++++#$$$OO...        ",
"       ..$$$$$$$$$OOO$$$$$$$...                 ....$$$$$$###$$$$$$$....                 ....$$$$$$#XXX#$$$$$$...                  ..$$$$$$#XX###$$$$$$...        ",
"       .OOOO$$$$$$OOO$$$$$$OO..                 ...OO$$$$$OOO$$$$$$OOO..                 .OOOO$$$$$$###$$$$$$OOO.                  .OOO$$$$$##$$$$$$$OOO..        ",
"       .OOOOOOooOOOOOOoOOOOOO..                 ...OO$$$$$OOO$$$$$$OOO..                 .OOOO$$$$$$OOO$$$$$OOOO.                  .OOO$$$$$##$$$$$$$OOO..        ",
"       .OOOOOOooOOOOOOoOOOOOO..                 ...OO$$$$$OOO$$$$$$OOO..                 .OOOO$$$$$$OOO$$$$$OOOO.                  .OOO$$$$$##$$$$$$$OOO..        ",
"       .OOOOOOooOOOOOOoOOOOOO..                 ...OOOOOoOOOOOoOOOOOOO..                 .OOOO$$$$$$OOO$$$$$OOOO.                  .OOO$$$$$OO$$$$$OOOOO..        ",
"       .OOOO.oooOOOOOOoooo.OO..                 ...OO.oooOOOOOoooo.OOO..                 .OOOO.OOooOOOOOoooO.OOO.                  .OOO.OooOOOOOOoO..OOO..        ",
"       ......   ..OOO.    .....                 ......ooo.OOO.oooo......                 ......oooooOOOooooo.....                  .....ooooOOooooo.......        ",
"                                                          ...                                    ooo...oooo                                 ..                    ",
"                                                          ...                                                                               ..                    ",
"                                                                                                                                                                  ",
"                                                                                                                                                                  ",
"                                                                                                                                                                  ",
"                                                                                                                                                                  ",
"                                                                                                                                                                  ",
"                                                                                                                                                                  ",
"                                                                                                                                                                  ",
"                                                                                                                                                                  ",
"                                                                                                                                                                  ",
"                                                                                                                                                                  ",
"                                                                                                                                                                  "
};
