/* XPM */
static char *d855b770113547f8fa3f536c614fefcdabTBr6zElEZWIAF1[] = {
/* columns rows colors chars-per-pixel */
"123 150 10 1 ",
"  c None",
". c black",
"X c #603920",
"o c #B45D37",
"O c #BA6739",
"+ c #DF793D",
"@ c #BB7140",
"# c #979797",
"$ c #F8F8F8",
"% c white",
/* pixels */
"                                                                                                                           ",
"                                                                                                                           ",
"                                                                                                                           ",
"                                                                                                                           ",
"                                                                                                                           ",
"                                                                                                                           ",
"                                                                                                                           ",
"                                         ..      ..                                                      ..      ..        ",
"         ..      ..                     .@+.    .+@.                     ..      ..                     .@+.    .+@.       ",
"        .@+.    .+@.                    .@X+....+X@.                    .@+.    .+@.                    .@X+....+X@.       ",
"        .@X+....+X@.                    .@XX@++@XX@.                    .@X+....+X@.                    .@XX@++@XX@.       ",
"        .@XX@++@XX@.                   ..@X@++++@X@..                   .@XX@++@XX@.                   ..@X@++++@X@..      ",
"       ..@X@++++@X@..                  .+@@@++++@@@+.                   .@X@++++@X@.                   .+@@@++++@@@+.      ",
"       .+@@@++++@@@+.                   .@XX@++@XX+.                   .+@@@++++@@@+.                   .@XX@++@XX+.       ",
"        .@XX@++@XX+.                   .++X..@@..X++.                  .+@XX@++@XX++.                  .++X..@@..X++.      ",
"       .++X..@@..X++.                   .X+%.@@.%+X.                    .+X..@@..X+.                    .X+%.@@.%+X.       ",
"        .X+%.@@.%+X.                    ..+%.%%.%+..                   .+X+%.@@.%+X+.                   ..+%.%%.%+..       ",
"        ..+%.%%.%+..                   .X+.+%%%%+.+X.                   ..+%.%%.%+..                   .X+.+%%%%+.+X.      ",
"       .X+.+%%%%+.+X.                 .++++.#..#.++++.                 .X+.+%%%%+.+X.                 .++++.#..#.++++.     ",
"      .++.+.#..#.+.++.                .++.+X....X+.++.                .++++.#..#.++++.                .++.+X....X+.++.     ",
"      .+..+X....X+..+.                .+..++@@@@++..+.                .++.+X....X+.++.                .+..++@@@@++..+.     ",
"      .%%.++@@@@++.%%.                .%%.+++@@+++.%%.                .+..++@@@@++..+.                .%%.+++@@+++.%%.     ",
"      .%.++++@@++++.%.                .%.+@@+@@+@@+.%.                .%%.+++@@+++.%%.                .%.+@@+@@+@@+.%.     ",
"       ..+@@+@@+@@+..                  ...++++++++...                 .%.+@@+@@+@@+.%.                 ...++++++++...      ",
"        ....+XX+....                    .+..+XX+..+.                   ..+..+XX+..+..                   .+..+XX+..+.       ",
"        ..X+....+X..                    ..X+....+X..                    ..X+....+X..                    ..X+....+X..       ",
"         ..........                      ..........                      ..........                      ..........        ",
"           ......                          ......                          ......                          ......          ",
"                                                                                                                           ",
"                                                                                                                           ",
"                                                                                                                           ",
"                                                                                                                           ",
"                                                                                                                           ",
"                                                                                                                           ",
"                                                                                                                           ",
"                                                                                                                           ",
"                                                                                                          ..      ..       ",
"                                                                         ..      ..                      .@+.    .+@.      ",
"        ..      ..                       ..      ..                     .@+.    .+@.                     .@X+....+X@.      ",
"       .@+.    .+@.                     .@+.    .+@.                    .@X+....+X@.                     .@XX@++@XX@.      ",
"       .@X+....+X@.                     .@X+....+X@.                    .@XX@++@XX@.                     .@X@++++@X@.      ",
"       .@XX@++@XX@.                     .@XX@++@XX@.                    .@X@++++@X@.                    .+@@@++++@@@+.     ",
"       .@X@++++@X@.                     .@X@++++@X@.                   .+@@@++++@@@+.                  .o.@XX@++@XX+.o     ",
"      .+@@@++++@@@+.                   .+@@@++++@@@+.                 .o.@XX@++@XX+.o.                  .++X..@@..X++.     ",
"     .o.@XX@++@XX+.o.                 .o.@XX@++@XX+.o.                 .++X..@@..X++.                    .X+%.@@.%+X.      ",
"      .++X..@@..X++.                   .++X..@@..X++.                   .X+%.@@.%+X.                     ..+%.%%.%+..      ",
"       .X+%.@@.%+X.                     .X+%.@@.%+X.                    ..+%.%%.%+...                   .++.+%%%%+..+.     ",
"      ...+%.%%.%+..                     ..+%.%%.%+..                   ..+.+%%%%+.+++.                  .+++.#..#..++.     ",
"     .+++.+%%%%+.++.                   .@+.+%%%%+.+@.                 .++.+.#..#.+.+..                  .++......@+.+.     ",
"     ..+.+.#..#.+.++.                 .+.++.#..#.++.+.                .++..+....@+..%.                  .+.$$.+@@+++.      ",
"     .%..+@....+..++.                 .++.++....@+.++.                .+.%%.++@@+++..                    ..$$.+@++@@.      ",
"      ..+++@@@+.%%.+.                 ..+.+++@@@++.+..                 ..%%.++@+++@.                     .+...+@.@++.      ",
"       .+@++@@+.%%..                  .%..+++@@+++..%.                  ...@.@@.@++.                     ..++@@+.+....     ",
"       ..++@@@.@...                    ...+..++@++...                   ..++@@+.++.X.                     ...++++.XX%.     ",
"       .O..+@@@++..                     ..++.+++++..                    .X..+++++XX%.                     .......X....     ",
"       .XOO.+++..X.                     .....+++..X.                    ........XXX.                     ............      ",
"       .%XX........                     ........XX..                    ............                     ............      ",
"        ..........                       ..........                      ..........                       ..........       ",
"          ......                           ......                          ......                           ......         ",
"                                                                                                                           ",
"                                                                                                                           ",
"                                                                                                                           ",
"                                                                                                                           ",
"                                                                                                                           ",
"                                                                                                                           ",
"                                                                                                                           ",
"                                                                                                                           ",
"                                                                                                                           ",
"                                                                                                          ..      ..       ",
"                                                                         ..      ..                      .@+.    .+@.      ",
"        ..      ..                       ..      ..                     .@+.    .+@.                     .@X+....+X@.      ",
"       .@+.    .+@.                     .@+.    .+@.                    .@X+....+X@.                     .@XX@++@XX@.      ",
"       .@X+....+X@.                     .@X+....+X@.                    .@XX@++@XX@.                     .@X@++++@X@.      ",
"       .@XX@++@XX@.                     .@XX@++@XX@.                    .@X@++++@X@.                    .+@@@++++@@@+.     ",
"       .@X@++++@X@.                     .@X@++++@X@.                   .+@@@++++@@@+.                  .o.@XX@++@XX+.o     ",
"      .+@@@++++@@@+.                   .+@@@++++@@@+.                 .o.@XX@++@XX+.o.                  .++X..@@..X++.     ",
"     .o.@XX@++@XX+.o.                 .o.@XX@++@XX+.o.                 .++X..@@..X++.                    .X+%.@@.%+X.      ",
"      .++X..@@..X++.                   .++X..@@..X++.                   .X+%.@@.%+X.                     ..+%.%%.%+..      ",
"       .X+%.@@.%+X.                     .X+%.@@.%+X.                   ...+%.%%.%+...                   .+..+%%%%+.++.     ",
"       ..+%.%%.%+...                    ..+%.%%.%+..                  .+++.+%%%%+.+..                   .++..#..#.+++.     ",
"      .++.+%%%%+.+++.                  .@+.+%%%%+.+@.                 ..+.+.#..#.+.++.                  .+.+@......++.     ",
"     .++.+.#..#.+.+..                 .+.++.#..#.++.+.                .%..++....+..++.                   .+++@@+.%%.+.     ",
"     .++..+....@+..%.                 .++.++....@+.++.                 ..+++@@@+.%%.+.                   .@@++@+.%%..      ",
"     .+.%%.+@@@+++..                  ..+.+++@@@++.+..                  .@+++@@+.%%..                    .++@.@@...+.      ",
"      ..%%.+@@++@+.                   .%..+++@@+++..%.                  ....+@@.@...                    ....+.@@@++..      ",
"       ...@.@@@++..                    .%.@..@@.@@...                  .X.++.@@@++..                    .%XX.++++...       ",
"       ..++@+++++..                     ..++.+++++..                   .%X.+++++..X.                    ....X.......       ",
"       .X..++++..X.                     .....@@+..X.                    .XX.........                     ............      ",
"       ........XX%.                     ........XX..                    ............                     ............      ",
"        ..........                       ..........                      ..........                       ..........       ",
"          ......                           ......                          ......                           ......         ",
"                                                                                                                           ",
"                                                                                                                           ",
"                                                                                                                           ",
"                                                                                                                           ",
"                                                                                                                           ",
"                                                                                                                           ",
"                                                                                                                           ",
"                                                                                                                           ",
"                                                                                                                           ",
"                                                                                                                           ",
"                                                                                                                           ",
"                                                                                                                           ",
"                                                                                                                           ",
"                                                                                                                           ",
"        ..      ..                                                                                                         ",
"       .@+.    .+@.                                                                                                        ",
"       .@X+....+X@.                                                                                                        ",
"       .@XX@++@XX@.                                                                                                        ",
"      ..@X@++++@X@..                                                                                                       ",
"      .+@@@++++@@@+.                                                                                                       ",
"       .@XX@++@XX+.                                                                                                        ",
"      .++X..@@..X++.                                                                                                       ",
"       .X+%.@@.%+X.                                                                                                        ",
"       ..+%.%%.%+..                                                                                                        ",
"      .X+.+%%%%+.+X.                                                                                                       ",
"     .++++.#..#.++++.                                                                                                      ",
"     .++.+X....X+.++.                                                                                                      ",
"     .+..++@@@@++..+.                                                                                                      ",
"     .%%.+++@@+++.%%.                                                                                                      ",
"     .%.+@@+@@+@@+.%.                                                                                                      ",
"      ...++++++++...                                                                                                       ",
"       .+..+XX+..+.                                                                                                        ",
"       ..X+....+X..                                                                                                        ",
"        ..........                                                                                                         ",
"          ......                                                                                                           ",
"                                                                                                                           ",
"                                                                                                                           ",
"                                                                                                                           ",
"                                                                                                                           ",
"                                                                                                                           ",
"                                                                                                                           ",
"                                                                                                                           ",
"                                                                                                                           ",
"                                                                                                                           ",
"                                                                                                                           ",
"                                                                                                                           ",
"                                                                                                                           ",
"                                                                                                                           ",
"                                                                                                                           ",
"                                                                                                                           ",
"                                                                                                                           ",
"                                                                                                                           ",
"                                                                                                                           ",
"                                                                                                                           ",
"                                                                                                                           ",
"                                                                                                                           ",
"                                                                                                                           ",
"                                                                                                                           ",
"                                                                                                                           "
};
