/* XPM */
static char *_ec8806700c0421dd63fd191a8a9246csQK3dcfmE49TPBwQ[] = {
/* columns rows colors chars-per-pixel */
"40 40 77 1 ",
"  c #251033",
". c #364A0A",
"X c #374C09",
"o c #425A0D",
"O c #4D6B0C",
"+ c #4F6D0D",
"@ c #516F0D",
"# c #496013",
"$ c #4B6510",
"% c #4A6017",
"& c #4C6214",
"* c #4D6414",
"= c #4F6A10",
"- c #526B18",
"; c #5C7F10",
": c #587318",
"> c #5C6A3C",
", c #16194A",
"< c #171D5E",
"1 c #35174A",
"2 c #381B4A",
"3 c #381C4A",
"4 c #20256A",
"5 c #50315D",
"6 c #4F2D60",
"7 c #4D226A",
"8 c #553563",
"9 c #563467",
"0 c #52404F",
"q c #5A4569",
"w c #4C4F7F",
"e c #5E8112",
"r c #688F13",
"t c #688A1A",
"y c #6B8F1B",
"u c #6C9612",
"i c #6D9813",
"p c #6E9718",
"a c #709B15",
"s c #719D14",
"d c #739C1B",
"f c #739B1C",
"g c #75A014",
"h c #6D823E",
"j c #79923D",
"k c #7A9140",
"l c #A2E11D",
"z c #9CBA5A",
"x c #B6DF5E",
"c c #BEEA61",
"v c #222A87",
"b c #2F3699",
"n c #6F3495",
"m c #6F3198",
"M c #725D80",
"N c #636697",
"B c #5A6AAC",
"V c #646AAB",
"C c #6D72B7",
"Z c #4D6DF3",
"A c #826497",
"S c #9A6FB7",
"D c #00B7EF",
"F c #4DCCF4",
"G c #D1F090",
"H c #DFF4B1",
"J c #999CCC",
"K c #8299F6",
"L c #A7B7F9",
"P c #99D9EA",
"I c #82DBF7",
"U c #A7E6F9",
"Y c #B7E4F0",
"T c #E8F7C8",
"R c #CCECF4",
"E c #C1EDFB",
"W c #DBF2F7",
/* pixels */
"ssGGTGcccczsssshh>++++>hhsssszccccGTGGss",
"sHGSSSSSSSSGcllllllllllllllcGSSSSSSSSGHs",
"sGcSSEUIFFAGGcllllllllllllcGGADFIUESScGs",
"slccA1MFFD71111117777771111117DFFM1qccls",
"sllccG1FD711mmmmmmmmmmmmmmmm117DF1Gcclls",
"sllllc11777mmmmmmmm11mmmmmmmm77711clllls",
"sllllcG117mmmm777777777777mmmm111Gclllls",
"slllllc777m77711KvvvvvKK11777m777cllllls",
"slllllGGmm7711YYYYYPPPb4bP1177mmGGllllls",
"scllllccm771CCCbCbbCC44Y44bP177mccllllcs",
"scclllccm71WCYYYPP444PP44Y4bY17mcclllccs",
"slcccllcm7VYYRvVvvPPPP4NN4Y4bV7mcllcccls",
"sllclllcm7VYJYv44CCbPY4PC44YbV7mclllclls",
"sclllllcm7VYCPv4PPPPbP,4PNP44K7mclllllcs",
"sGclllllm7VRCPvC44YYCYP4444bYK7mlllllcGs",
"slccclllm7VRvPPbbPY4bYPPPvvPYZ7mlllcccls",
"sllllcllm7VYvvPPPP4CYPvvbbbb4K7mllclllls",
"scllllllm7KYv4v444PPPPvC4PPYCv7mllllllcs",
"sGclllllm7vYYv4bPPvCYPvbPvvYCv7mlllllcGs",
"scllllllm7KPPPPPPPvCYYPb4vvPCv7mllllllcs",
"slllllllm7vPb44CPYPvCCYPYPPPCv7mllllllls",
"slllllllm7vbCPP4YvPPvbbCbbbb4v7mllllllls",
"sllcllllm7vwPPYbYvvPPPPYPYvvvZ7mllllclls",
"scccclllm7vwPbbCPbvPPbb4CbPPYZ7mlllccccs",
"sGllllllm7vCPPPPYCvPbYYYP4bPPZ7mllllllGs",
"slllllllm7vYbPYPPbvP4PvvvY4PPZ7mllllllls",
"scclllllm7KRbPYCCvPvCPPVvYPbYZ7mlllllccs",
"slllllllm7KYbCCC<PPvCCCbbPPbPZ7mllllllls",
"sGlllcllm7LYPv<<PYYYYvvvPP4bPK7mllclllGs",
"sllcclllm7VZPPPPPbvvPPPPPbbPZK7mlllcclls",
"scccllllm7VKPPbPP4,4CCCCbPPPKK7mllllcccs",
"sGGclllGm7VVKZYJYY<<vVVvYYZKKB7mGlllcGGs",
"gsGccccGm7mmmmmmmmmmmmmmmmmmmmmmGccccGsg",
"gssssscT711111111111111111111117Tcsssssg",
"gsssscG7mmmmmmmmmmmmmmmmmmmmmmmm7Gcssaig",
"gssdxc7111111111111111111111111117cxfprg",
"guyk9nmmmmmmmmmmmmmmmmmmmmmmmmmmmmn8jteg",
"g;:062                            350-$g",
"gO#%&.XXXXXXXXXXXXXXXXXXXXXXXXXXXX=*&#og",
"g@@@@@@@@@@@@@@@@@@@@@@@@@@@@@@@@@@@@@@g"
};
